<svg id="Слой_1" data-name="Слой 1" xmlns="http://www.w3.org/2000/svg" xmlns:xlink="http://www.w3.org/1999/xlink" width="126.62" height="129" viewBox="0 0 126.62 129">
  <defs>
    <linearGradient id="Безымянный_градиент_32" data-name="Безымянный градиент 32" x1="321.69" y1="-223.98" x2="-4.53" y2="140.24" gradientUnits="userSpaceOnUse">
      <stop offset="0" stop-color="#fff"/>
      <stop offset="0.45" stop-color="#8c8c8c"/>
      <stop offset="0.47" stop-color="#828282"/>
      <stop offset="0.55" stop-color="#5a5a5a"/>
      <stop offset="0.63" stop-color="#3a3a3a"/>
      <stop offset="0.72" stop-color="#202020"/>
      <stop offset="0.8" stop-color="#0e0e0e"/>
      <stop offset="0.9" stop-color="#030303"/>
      <stop offset="1"/>
    </linearGradient>
    <linearGradient id="Безымянный_градиент_98" data-name="Безымянный градиент 98" x1="286.27" y1="-347.76" x2="195.03" y2="-278.34" gradientUnits="userSpaceOnUse">
      <stop offset="0" stop-color="#000938"/>
      <stop offset="0.17" stop-color="#0b0833"/>
      <stop offset="0.45" stop-color="#13072f"/>
      <stop offset="0.69" stop-color="#280524"/>
      <stop offset="1" stop-color="#430217"/>
    </linearGradient>
    <linearGradient id="Безымянный_градиент_14" data-name="Безымянный градиент 14" x1="285.34" y1="-362.79" x2="168.14" y2="-242.19" gradientUnits="userSpaceOnUse">
      <stop offset="0" stop-opacity="0"/>
      <stop offset="1"/>
    </linearGradient>
    <linearGradient id="Безымянный_градиент_59" data-name="Безымянный градиент 59" x1="288.58" y1="-366.54" x2="163.84" y2="-237.35" gradientUnits="userSpaceOnUse">
      <stop offset="0" stop-color="#999"/>
      <stop offset="0.09" stop-color="#959595"/>
      <stop offset="0.17" stop-color="#8a8a8a"/>
      <stop offset="0.24" stop-color="#777"/>
      <stop offset="0.32" stop-color="#5c5c5c"/>
      <stop offset="0.4" stop-color="#3a3a3a"/>
      <stop offset="0.47" stop-color="#101010"/>
      <stop offset="0.5"/>
    </linearGradient>
    <linearGradient id="Безымянный_градиент_48" data-name="Безымянный градиент 48" x1="288.75" y1="-365.91" x2="165.05" y2="-239.39" gradientUnits="userSpaceOnUse">
      <stop offset="0" stop-color="#999"/>
      <stop offset="0.12" stop-color="#717171"/>
      <stop offset="0.28" stop-color="#414141"/>
      <stop offset="0.42" stop-color="#1d1d1d"/>
      <stop offset="0.53" stop-color="#080808"/>
      <stop offset="0.6"/>
    </linearGradient>
  </defs>
  <g id="Badget">
    <rect id="IconBackgroundMesh" width="126.62" height="129" rx="25.43" fill="url(#Безымянный_градиент_32)"/>
    <path id="IconBackgroundMesh-2" data-name="IconBackgroundMesh" d="M188.91-366a24.64,24.64,0,0,0-24.62,24.65v77.91a24.64,24.64,0,0,0,24.62,24.65h75.47A24.64,24.64,0,0,0,289-263.44v-77.91A24.64,24.64,0,0,0,264.38-366Z" transform="translate(-163.34 366.9)" fill="url(#Безымянный_градиент_98)"/>
    <path id="IconBackgroundMesh-3" data-name="IconBackgroundMesh" d="M188.91-366a24.64,24.64,0,0,0-24.62,24.65v77.91a24.64,24.64,0,0,0,24.62,24.65h75.47A24.64,24.64,0,0,0,289-263.44v-77.91A24.64,24.64,0,0,0,264.38-366Z" transform="translate(-163.34 366.9)" fill="url(#Безымянный_градиент_14)"/>
    <path id="IconBackgroundMesh-4" data-name="IconBackgroundMesh" d="M264.53-365.9A24.46,24.46,0,0,1,289-341.47v78.15a24.45,24.45,0,0,1-24.43,24.42H188.76a24.44,24.44,0,0,1-24.42-24.42v-78.15a24.45,24.45,0,0,1,24.42-24.43h75.77m0-1H188.76a25.43,25.43,0,0,0-25.42,25.43v78.15a25.42,25.42,0,0,0,25.42,25.42h75.77A25.43,25.43,0,0,0,290-263.32v-78.15a25.44,25.44,0,0,0-25.43-25.43Z" transform="translate(-163.34 366.9)" fill="url(#Безымянный_градиент_59)"/>
    <path id="IconBackgroundMesh-5" data-name="IconBackgroundMesh" d="M264.38-365A23.66,23.66,0,0,1,288-341.35v77.91a23.66,23.66,0,0,1-23.62,23.65H188.91a23.66,23.66,0,0,1-23.62-23.65v-77.91A23.66,23.66,0,0,1,188.91-365h75.47m0-1H188.91a24.64,24.64,0,0,0-24.62,24.65v77.91a24.64,24.64,0,0,0,24.62,24.65h75.47A24.64,24.64,0,0,0,289-263.44v-77.91A24.64,24.64,0,0,0,264.38-366Z" transform="translate(-163.34 366.9)" fill="url(#Безымянный_градиент_48)"/>
  </g>
  <g id="Bash" opacity="0.8">
    <path id="Fill-4" d="M258.22-327.2l-26.47-15.71a9.92,9.92,0,0,0-5.1-1.4,10,10,0,0,0-5.11,1.4L195.08-327.2a10.57,10.57,0,0,0-5.11,9.09v31.42a10.58,10.58,0,0,0,5.11,9.1l26.47,15.71a10,10,0,0,0,5.1,1.4,10,10,0,0,0,5.1-1.4l26.47-15.71a10.57,10.57,0,0,0,5.1-9.1v-31.42A10.57,10.57,0,0,0,258.22-327.2Zm-20.5,49.07.05,2.25a.87.87,0,0,1-.39.7l-1.34.76c-.21.12-.39,0-.39-.29l0-2.22a4.4,4.4,0,0,1-3,.29.41.41,0,0,1-.14-.49l.49-2a.74.74,0,0,1,.24-.43.34.34,0,0,1,.12-.09.23.23,0,0,1,.21,0,3.74,3.74,0,0,0,2.81-.36,3.67,3.67,0,0,0,2.07-3.17c0-1.15-.64-1.62-2.15-1.63-1.92,0-3.71-.38-3.74-3.2a8.18,8.18,0,0,1,3.11-6.29l0-2.28a.84.84,0,0,1,.39-.7l1.29-.83c.21-.11.39,0,.39.31l0,2.28a4.23,4.23,0,0,1,2.53-.31c.17,0,.23.26.17.53l-.5,2a.94.94,0,0,1-.23.4.57.57,0,0,1-.13.1.36.36,0,0,1-.2,0,3.38,3.38,0,0,0-2.45.4,3.07,3.07,0,0,0-1.8,2.72c0,1,.55,1.35,2.38,1.37,2.45.05,3.5,1.11,3.53,3.58A8.8,8.8,0,0,1,237.72-278.13Zm18.48-42.44-25,15.46c-3.12,1.83-5.42,3.87-5.42,7.64v30.85c0,2.26.9,3.72,2.3,4.14a8.08,8.08,0,0,1-1.39.13,8.12,8.12,0,0,1-4.18-1.15L196-279.2a8.74,8.74,0,0,1-4.19-7.49v-31.42a8.72,8.72,0,0,1,4.19-7.48l26.47-15.71a8.12,8.12,0,0,1,4.18-1.15,8.15,8.15,0,0,1,4.18,1.15l26.47,15.71a8.65,8.65,0,0,1,4.06,6.06C260.49-321.41,258.51-321.92,256.2-320.57Z" transform="translate(-163.34 366.9)" fill="#fff" fill-rule="evenodd"/>
    <path id="Fill-6" d="M251.28-283.65l-6.59,3.94c-.17.11-.3.22-.3.43v1.73c0,.21.14.29.32.19l6.69-4.07a.52.52,0,0,0,.2-.5v-1.52c0-.21-.14-.3-.32-.2" transform="translate(-163.34 366.9)" fill="#47b353" fill-rule="evenodd"/>
  </g>
</svg>
