<svg id="Слой_1" data-name="Слой 1" xmlns="http://www.w3.org/2000/svg" xmlns:xlink="http://www.w3.org/1999/xlink" width="126.62" height="129" viewBox="0 0 126.62 129">
  <defs>
    <linearGradient id="Безымянный_градиент_32" data-name="Безымянный градиент 32" x1="321.69" y1="-223.98" x2="-4.53" y2="140.24" gradientUnits="userSpaceOnUse">
      <stop offset="0" stop-color="#fff"/>
      <stop offset="0.45" stop-color="#8c8c8c"/>
      <stop offset="0.47" stop-color="#828282"/>
      <stop offset="0.55" stop-color="#5a5a5a"/>
      <stop offset="0.63" stop-color="#3a3a3a"/>
      <stop offset="0.72" stop-color="#202020"/>
      <stop offset="0.8" stop-color="#0e0e0e"/>
      <stop offset="0.9" stop-color="#030303"/>
      <stop offset="1"/>
    </linearGradient>
    <linearGradient id="Безымянный_градиент_80" data-name="Безымянный градиент 80" x1="287.05" y1="-370.08" x2="134.75" y2="-199.42" gradientUnits="userSpaceOnUse">
      <stop offset="0" stop-color="#276ede"/>
      <stop offset="0.02" stop-color="#276ede"/>
      <stop offset="0.2" stop-color="#276ede"/>
      <stop offset="0.45" stop-color="#276ede"/>
      <stop offset="0.67" stop-color="#276ede"/>
      <stop offset="1" stop-color="#276ede"/>
    </linearGradient>
    <linearGradient id="Безымянный_градиент_14" data-name="Безымянный градиент 14" x1="285.34" y1="-362.79" x2="168.14" y2="-242.19" gradientUnits="userSpaceOnUse">
      <stop offset="0" stop-opacity="0"/>
      <stop offset="1"/>
    </linearGradient>
    <linearGradient id="Безымянный_градиент_59" data-name="Безымянный градиент 59" x1="288.58" y1="-366.54" x2="163.84" y2="-237.35" gradientUnits="userSpaceOnUse">
      <stop offset="0" stop-color="#999"/>
      <stop offset="0.09" stop-color="#959595"/>
      <stop offset="0.17" stop-color="#8a8a8a"/>
      <stop offset="0.24" stop-color="#777"/>
      <stop offset="0.32" stop-color="#5c5c5c"/>
      <stop offset="0.4" stop-color="#3a3a3a"/>
      <stop offset="0.47" stop-color="#101010"/>
      <stop offset="0.5"/>
    </linearGradient>
    <linearGradient id="Безымянный_градиент_48" data-name="Безымянный градиент 48" x1="288.75" y1="-365.91" x2="165.05" y2="-239.39" gradientUnits="userSpaceOnUse">
      <stop offset="0" stop-color="#999"/>
      <stop offset="0.12" stop-color="#717171"/>
      <stop offset="0.28" stop-color="#414141"/>
      <stop offset="0.42" stop-color="#1d1d1d"/>
      <stop offset="0.53" stop-color="#080808"/>
      <stop offset="0.6"/>
    </linearGradient>
  </defs>
  <g id="Badget">
    <rect id="IconBackgroundMesh" width="126.62" height="129" rx="25.43" fill="url(#Безымянный_градиент_32)"/>
    <g id="IconBackgroundMesh-2" data-name="IconBackgroundMesh" opacity="0.4">
      <path d="M188.91-366a24.64,24.64,0,0,0-24.62,24.65v77.91a24.64,24.64,0,0,0,24.62,24.65h75.47A24.64,24.64,0,0,0,289-263.44v-77.91A24.64,24.64,0,0,0,264.38-366Z" transform="translate(-163.34 366.9)" fill="url(#Безымянный_градиент_80)"/>
    </g>
    <path id="IconBackgroundMesh-3" data-name="IconBackgroundMesh" d="M188.91-366a24.64,24.64,0,0,0-24.62,24.65v77.91a24.64,24.64,0,0,0,24.62,24.65h75.47A24.64,24.64,0,0,0,289-263.44v-77.91A24.64,24.64,0,0,0,264.38-366Z" transform="translate(-163.34 366.9)" fill="url(#Безымянный_градиент_14)"/>
    <path id="IconBackgroundMesh-4" data-name="IconBackgroundMesh" d="M264.53-365.9A24.46,24.46,0,0,1,289-341.47v78.15a24.45,24.45,0,0,1-24.43,24.42H188.76a24.44,24.44,0,0,1-24.42-24.42v-78.15a24.45,24.45,0,0,1,24.42-24.43h75.77m0-1H188.76a25.43,25.43,0,0,0-25.42,25.43v78.15a25.42,25.42,0,0,0,25.42,25.42h75.77A25.43,25.43,0,0,0,290-263.32v-78.15a25.44,25.44,0,0,0-25.43-25.43Z" transform="translate(-163.34 366.9)" fill="url(#Безымянный_градиент_59)"/>
    <path id="IconBackgroundMesh-5" data-name="IconBackgroundMesh" d="M264.38-365A23.66,23.66,0,0,1,288-341.35v77.91a23.66,23.66,0,0,1-23.62,23.65H188.91a23.66,23.66,0,0,1-23.62-23.65v-77.91A23.66,23.66,0,0,1,188.91-365h75.47m0-1H188.91a24.64,24.64,0,0,0-24.62,24.65v77.91a24.64,24.64,0,0,0,24.62,24.65h75.47A24.64,24.64,0,0,0,289-263.44v-77.91A24.64,24.64,0,0,0,264.38-366Z" transform="translate(-163.34 366.9)" fill="url(#Безымянный_градиент_48)"/>
  </g>
  <g id="GitHub_Actions" data-name="GitHub Actions">
    <g id="Logo" opacity="0.8">
      <path d="M257.19-285c-17-.24-17,26.38,0,26.15C274.15-258.58,274.15-285.2,257.19-285Zm0,22.32c-12,.16-12-18.66,0-18.5C269.18-281.3,269.18-262.47,257.19-262.64Z" transform="translate(-163.34 366.9)" fill="#fff"/>
      <rect x="77.29" y="93.26" width="7.41" height="3.49" rx="1.74" fill="#fff"/>
      <circle cx="57.68" cy="95.01" r="2.18" fill="#fff"/>
      <circle cx="64.65" cy="95.01" r="2.18" fill="#fff"/>
      <path d="M229.84-302.21,224-296.38a1.72,1.72,0,0,1-2.37,0L218.05-300a1.61,1.61,0,0,1,0-2.26l.65-.66a1.61,1.61,0,0,1,2.26,0l1.87,1.87,4.1-4.1a1.61,1.61,0,0,1,2.26,0l.65.65A1.61,1.61,0,0,1,229.84-302.21Z" transform="translate(-163.34 366.9)" fill="#fff"/>
      <path d="M262.53-302.21l-5.83,5.83a1.72,1.72,0,0,1-2.37,0l-3.6-3.59a1.62,1.62,0,0,1,0-2.26l.66-.66a1.61,1.61,0,0,1,2.26,0l1.86,1.87,4.11-4.1a1.59,1.59,0,0,1,2.25,0l.66.65A1.61,1.61,0,0,1,262.53-302.21Z" transform="translate(-163.34 366.9)" fill="#fff"/>
      <path d="M197.29-334.21l9.1,6.1-9.1,5.67v-11.77m-3.73,11.77a3.73,3.73,0,0,0,5.62,3.37l9.11-5.66a4,4,0,0,0,.11-6.69c-2-1.33-5.42-3.62-8.63-5.77a4,4,0,0,0-6.21,3.58Z" transform="translate(-163.34 366.9)" fill="#fff"/>
      <path d="M257.19-314.16c-7.73-.11-11.94,5.36-12.62,11.33h-7.45c-1-15-24.23-15-25.23,0H209.8a7.37,7.37,0,0,1-3.7-1c-2.49-1.46-4.84-3.66-5.13-6.43,23.49-.4,23.48-35.34,0-35.74-21.31-.12-24.18,31.49-3.49,35.4v46.1H201V-275a16.51,16.51,0,0,0,10.91,4.88c.68,6,4.88,11.46,12.62,11.36,15.25.21,16.79-21.29,4.62-25.46-8.22-3-16.94,2.9-17.23,10.61-4.69-.3-8.7-1.86-10.76-5.75a1.48,1.48,0,0,1-.16-.68v-23.29a12.23,12.23,0,0,0,10.92,4c1,15,24.22,15,25.23,0h7.45c.68,6,4.89,11.45,12.62,11.34C274.15-287.78,274.15-314.4,257.19-314.16Zm-71-13.95c.33-19.48,29.31-19.47,29.64,0C215.45-308.63,186.48-308.63,186.15-328.11ZM215.72-274c.54-5.2,7-8.77,12.39-6.54,8.23,3.23,7,18-3.61,17.88C217.69-262.58,214.68-268.52,215.72-274Zm17.63-25.37c-2,12.06-20,8.66-17.7-3.48C217.71-314.89,235.65-311.49,233.35-299.35Zm23.84,7.51c-12,.17-12-18.66,0-18.5C269.18-310.5,269.18-291.67,257.19-291.84Z" transform="translate(-163.34 366.9)" fill="#fff"/>
    </g>
    <g id="Text">
      <g>
        <path d="M230.53-334.5h-4a.18.18,0,0,0-.18.18v1.95a.18.18,0,0,0,.18.19h1.56v2.42a4.71,4.71,0,0,1-1.32.12c-1.14,0-2.73-.41-2.73-3.92s1.66-4,3.22-4a6.36,6.36,0,0,1,2.29.35.19.19,0,0,0,.23-.18l.44-1.89a.16.16,0,0,0-.07-.14,6.34,6.34,0,0,0-3.38-.62c-2.66,0-5.39,1.13-5.39,6.58s3.13,6.26,5.76,6.26a6.49,6.49,0,0,0,3.51-.93.18.18,0,0,0,.06-.14v-6.09A.18.18,0,0,0,230.53-334.5Z" transform="translate(-163.34 366.9)" fill="#fff"/>
        <path d="M251.1-339.35a.19.19,0,0,0-.19-.18h-2.25a.18.18,0,0,0-.18.18V-335H245v-4.34a.19.19,0,0,0-.19-.18h-2.24a.18.18,0,0,0-.19.18v11.76a.19.19,0,0,0,.19.19h2.24a.2.2,0,0,0,.19-.19v-5h3.5v5a.2.2,0,0,0,.19.19h2.25a.2.2,0,0,0,.19-.19Z" transform="translate(-163.34 366.9)" fill="#fff"/>
        <g>
          <path d="M234.77-337.8a1.46,1.46,0,0,0-1.45-1.47,1.45,1.45,0,0,0-1.44,1.47,1.45,1.45,0,0,0,1.44,1.46A1.46,1.46,0,0,0,234.77-337.8Z" transform="translate(-163.34 366.9)" fill="#fff"/>
          <path d="M234.61-330.07v-5.43a.18.18,0,0,0-.18-.18h-2.24a.21.21,0,0,0-.2.2v7.78c0,.23.14.3.33.3h2c.22,0,.27-.11.27-.3Z" transform="translate(-163.34 366.9)" fill="#fff"/>
        </g>
        <path d="M259.63-335.67h-2.22a.19.19,0,0,0-.19.19v5.77a2.55,2.55,0,0,1-1.37.41c-.8,0-1-.37-1-1.15v-5a.19.19,0,0,0-.18-.19h-2.27a.19.19,0,0,0-.18.19v5.41c0,2.34,1.3,2.91,3.09,2.91A5.26,5.26,0,0,0,258-328s.06.42.08.47a.19.19,0,0,0,.17.11h1.44a.18.18,0,0,0,.18-.19v-7.89A.19.19,0,0,0,259.63-335.67Z" transform="translate(-163.34 366.9)" fill="#fff"/>
        <path d="M265.73-335.93a4.22,4.22,0,0,0-2.13.56v-4a.18.18,0,0,0-.18-.18h-2.26a.18.18,0,0,0-.18.18v11.76a.19.19,0,0,0,.18.19h1.57a.19.19,0,0,0,.16-.1A3.54,3.54,0,0,0,263-328a4,4,0,0,0,2.67.87c2.05,0,3.22-1,3.22-4.66S267-335.93,265.73-335.93Zm-.88,6.62a2.68,2.68,0,0,1-1.3-.37v-3.73a3.09,3.09,0,0,1,1.15-.37c.81-.07,1.58.17,1.58,2.09S265.93-329.28,264.85-329.31Z" transform="translate(-163.34 366.9)" fill="#fff"/>
        <path d="M241.07-335.69h-1.69v-2.22c0-.09,0-.13-.14-.13h-2.3c-.09,0-.13,0-.13.13v2.3s-1.15.27-1.23.3a.18.18,0,0,0-.14.18v1.44a.19.19,0,0,0,.19.19h1.18V-330c0,2.58,1.81,2.84,3,2.84a5.17,5.17,0,0,0,1.34-.22.18.18,0,0,0,.1-.17v-1.59a.19.19,0,0,0-.19-.19c-.1,0-.35,0-.61,0-.83,0-1.11-.39-1.11-.88v-3.31h1.69a.19.19,0,0,0,.19-.19v-1.81A.2.2,0,0,0,241.07-335.69Z" transform="translate(-163.34 366.9)" fill="#fff"/>
      </g>
      <g>
        <path d="M226.83-319l1.79-6.66h.78l1.79,6.66h-.61l-.48-1.86h-2.18l-.48,1.86Zm1.22-2.38H230l-.64-2.44c-.09-.35-.16-.64-.21-.88a4.6,4.6,0,0,1-.1-.47,4.6,4.6,0,0,1-.1.47c0,.24-.13.53-.22.88Z" transform="translate(-163.34 366.9)" fill="#fff"/>
        <path d="M234.51-319a1.88,1.88,0,0,1-1.37-.5,1.82,1.82,0,0,1-.51-1.36v-1.48a1.83,1.83,0,0,1,.51-1.36,1.89,1.89,0,0,1,1.37-.5,1.93,1.93,0,0,1,1.35.47,1.64,1.64,0,0,1,.51,1.27h-.6a1.13,1.13,0,0,0-.35-.88,1.26,1.26,0,0,0-.91-.31,1.25,1.25,0,0,0-.93.34,1.31,1.31,0,0,0-.35,1v1.48a1.32,1.32,0,0,0,.35,1,1.25,1.25,0,0,0,.93.34,1.26,1.26,0,0,0,.91-.31,1.12,1.12,0,0,0,.35-.87h.6a1.62,1.62,0,0,1-.51,1.26A1.88,1.88,0,0,1,234.51-319Z" transform="translate(-163.34 366.9)" fill="#fff"/>
        <path d="M240.51-319a1.28,1.28,0,0,1-.93-.31,1.19,1.19,0,0,1-.33-.9v-3.26h-1.44v-.55h1.44v-1.41h.6v1.41h2v.55h-2v3.26a.58.58,0,0,0,.66.66h1.28v.55Z" transform="translate(-163.34 366.9)" fill="#fff"/>
        <path d="M243.53-319v-.55h1.81v-3.92h-1.59v-.55h2.19v4.47h1.71v.55Zm2-6a.56.56,0,0,1-.42-.14.5.5,0,0,1-.15-.39.53.53,0,0,1,.15-.39.56.56,0,0,1,.42-.14.56.56,0,0,1,.42.14.53.53,0,0,1,.15.39.5.5,0,0,1-.15.39A.56.56,0,0,1,245.57-325Z" transform="translate(-163.34 366.9)" fill="#fff"/>
        <path d="M250.91-319a1.79,1.79,0,0,1-1.35-.5,1.81,1.81,0,0,1-.5-1.36v-1.46a1.83,1.83,0,0,1,.5-1.36,1.83,1.83,0,0,1,1.35-.5,1.86,1.86,0,0,1,1.35.5,1.86,1.86,0,0,1,.5,1.35v1.47a1.85,1.85,0,0,1-.5,1.36A1.82,1.82,0,0,1,250.91-319Zm0-.53a1.21,1.21,0,0,0,.92-.34,1.38,1.38,0,0,0,.33-1v-1.46a1.33,1.33,0,0,0-.34-1,1.2,1.2,0,0,0-.91-.35,1.22,1.22,0,0,0-.92.35,1.37,1.37,0,0,0-.33,1v1.46a1.38,1.38,0,0,0,.33,1A1.2,1.2,0,0,0,250.91-319.5Z" transform="translate(-163.34 366.9)" fill="#fff"/>
        <path d="M254.58-319v-5h.61v.9a1.14,1.14,0,0,1,.46-.73,1.53,1.53,0,0,1,.91-.26,1.56,1.56,0,0,1,1.19.48,1.76,1.76,0,0,1,.45,1.27V-319h-.6v-3.28a1.38,1.38,0,0,0-.32-1,1.18,1.18,0,0,0-.87-.34,1.12,1.12,0,0,0-.89.36,1.37,1.37,0,0,0-.33,1V-319Z" transform="translate(-163.34 366.9)" fill="#fff"/>
        <path d="M261.64-319a1.82,1.82,0,0,1-1.17-.36,1.35,1.35,0,0,1-.51-.95h.6a.86.86,0,0,0,.35.56,1.19,1.19,0,0,0,.73.21h.52a1.13,1.13,0,0,0,.77-.23.77.77,0,0,0,.27-.62A.85.85,0,0,0,263-321a1.17,1.17,0,0,0-.63-.3l-.86-.12a1.89,1.89,0,0,1-1-.45,1.21,1.21,0,0,1-.35-.93,1.28,1.28,0,0,1,.42-1,1.8,1.8,0,0,1,1.22-.37h.36a1.78,1.78,0,0,1,1.14.34,1.29,1.29,0,0,1,.51.9h-.61a.75.75,0,0,0-.33-.51,1.19,1.19,0,0,0-.71-.19h-.36a1.16,1.16,0,0,0-.77.22.79.79,0,0,0-.26.62q0,.67.87.81l.84.12a1.8,1.8,0,0,1,1,.46,1.37,1.37,0,0,1,.35,1,1.34,1.34,0,0,1-.43,1.06,1.72,1.72,0,0,1-1.2.39Z" transform="translate(-163.34 366.9)" fill="#fff"/>
      </g>
    </g>
  </g>
</svg>
