<svg id="Слой_1" data-name="Слой 1" xmlns="http://www.w3.org/2000/svg" xmlns:xlink="http://www.w3.org/1999/xlink" width="126.62" height="129" viewBox="0 0 126.62 129">
  <defs>
    <linearGradient id="Безымянный_градиент_4" data-name="Безымянный градиент 4" x1="63.31" y1="2.05" x2="63.31" y2="-36.64" gradientUnits="userSpaceOnUse">
      <stop offset="0"/>
      <stop offset="1" stop-color="#fff"/>
    </linearGradient>
    <linearGradient id="Безымянный_градиент_4-2" x1="163.34" y1="-302.4" x2="289.96" y2="-302.4" xlink:href="#Безымянный_градиент_4"/>
    <linearGradient id="Безымянный_градиент_11" data-name="Безымянный градиент 11" x1="164.29" y1="-302.4" x2="289" y2="-302.4" gradientUnits="userSpaceOnUse">
      <stop offset="0" stop-color="#ef662a"/>
      <stop offset="0.23" stop-color="#ef662a"/>
      <stop offset="0.51" stop-color="#e34e26"/>
      <stop offset="0.68" stop-color="#e34e26"/>
      <stop offset="0.9" stop-color="#e34e26"/>
    </linearGradient>
    <linearGradient id="Безымянный_градиент_14" data-name="Безымянный градиент 14" x1="285.34" y1="-362.79" x2="168.14" y2="-242.19" gradientUnits="userSpaceOnUse">
      <stop offset="0" stop-opacity="0"/>
      <stop offset="1"/>
    </linearGradient>
    <linearGradient id="Безымянный_градиент_4-3" x1="164.29" y1="-302.4" x2="289" y2="-302.4" xlink:href="#Безымянный_градиент_4"/>
  </defs>
  <g id="IconBackgroundMesh">
    <rect width="126.62" height="129" rx="25.43" fill="url(#Безымянный_градиент_4)"/>
    <path d="M264.53-365.9A24.46,24.46,0,0,1,289-341.47v78.15a24.45,24.45,0,0,1-24.43,24.42H188.76a24.44,24.44,0,0,1-24.42-24.42v-78.15a24.45,24.45,0,0,1,24.42-24.43h75.77m0-1H188.76a25.43,25.43,0,0,0-25.42,25.43v78.15a25.42,25.42,0,0,0,25.42,25.42h75.77A25.43,25.43,0,0,0,290-263.32v-78.15a25.44,25.44,0,0,0-25.43-25.43Z" transform="translate(-163.34 366.9)" fill="url(#Безымянный_градиент_4-2)"/>
  </g>
  <g id="IconBackgroundMesh-2" data-name="IconBackgroundMesh" opacity="0.6">
    <path d="M188.91-366a24.64,24.64,0,0,0-24.62,24.65v77.91a24.64,24.64,0,0,0,24.62,24.65h75.47A24.64,24.64,0,0,0,289-263.44v-77.91A24.64,24.64,0,0,0,264.38-366Z" transform="translate(-163.34 366.9)" fill="url(#Безымянный_градиент_11)"/>
  </g>
  <g id="IconBackgroundMesh-3" data-name="IconBackgroundMesh" opacity="0.6">
    <path d="M188.91-366a24.64,24.64,0,0,0-24.62,24.65v77.91a24.64,24.64,0,0,0,24.62,24.65h75.47A24.64,24.64,0,0,0,289-263.44v-77.91A24.64,24.64,0,0,0,264.38-366Z" transform="translate(-163.34 366.9)" fill="url(#Безымянный_градиент_14)"/>
    <path d="M264.38-365A23.66,23.66,0,0,1,288-341.35v77.91a23.66,23.66,0,0,1-23.62,23.65H188.91a23.66,23.66,0,0,1-23.62-23.65v-77.91A23.66,23.66,0,0,1,188.91-365h75.47m0-1H188.91a24.64,24.64,0,0,0-24.62,24.65v77.91a24.64,24.64,0,0,0,24.62,24.65h75.47A24.64,24.64,0,0,0,289-263.44v-77.91A24.64,24.64,0,0,0,264.38-366Z" transform="translate(-163.34 366.9)" fill="url(#Безымянный_градиент_4-3)"/>
  </g>
  <g id="Text">
    <path d="M203.75-342h3.57v3.53h3.27V-342h3.57v10.68h-3.57v-3.58h-3.27v3.58h-3.57V-342Z" transform="translate(-163.34 366.9)" fill="#fff"/>
    <path d="M218.85-338.46h-3.14V-342h9.86v3.54h-3.15v7.14h-3.57v-7.14Z" transform="translate(-163.34 366.9)" fill="#fff"/>
    <path d="M227.13-342h3.72l2.29,3.75,2.29-3.75h3.73v10.68H235.6v-5.29l-2.46,3.8h-.06l-2.45-3.8v5.29h-3.5Z" transform="translate(-163.34 366.9)" fill="#fff"/>
    <path d="M240.93-342h3.57v7.15h5v3.53h-8.6Z" transform="translate(-163.34 366.9)" fill="#fff"/>
  </g>
  <g id="Logo">
    <polygon points="40.3 97.72 35.18 40.26 91.44 40.26 86.31 97.72 63.3 104.11 40.3 97.72" fill="#e34e26"/>
    <polygon points="63.31 44.95 63.31 99.22 81.92 94.06 86.31 44.95 63.31 44.95" fill="#ef662a"/>
    <polygon points="45.66 52 47.56 73.31 71.99 73.31 71.17 82.46 63.3 84.58 55.45 82.46 54.93 76.59 47.85 76.59 48.86 87.9 63.3 91.91 77.75 87.9 79.69 66.27 54 66.27 53.36 59.05 80.31 59.05 80.33 59.05 80.96 52 45.66 52" fill="#fff"/>
    <g>
      <polygon points="63.31 52 45.66 52 47.56 73.31 63.31 73.31 63.31 66.27 54 66.27 53.36 59.05 63.31 59.05 63.31 52" fill="#ebebeb"/>
      <polygon points="63.31 84.58 63.3 84.58 55.45 82.46 54.93 76.59 47.85 76.59 48.86 87.9 63.3 91.91 63.31 91.91 63.31 84.58" fill="#ebebeb"/>
    </g>
  </g>
</svg>
