<svg id="Слой_1" data-name="Слой 1" xmlns="http://www.w3.org/2000/svg" xmlns:xlink="http://www.w3.org/1999/xlink" width="126.62" height="129" viewBox="0 0 126.62 129">
  <defs>
    <linearGradient id="Безымянный_градиент_32" data-name="Безымянный градиент 32" x1="321.69" y1="-223.98" x2="-4.53" y2="140.24" gradientUnits="userSpaceOnUse">
      <stop offset="0" stop-color="#fff"/>
      <stop offset="0.45" stop-color="#8c8c8c"/>
      <stop offset="0.47" stop-color="#828282"/>
      <stop offset="0.55" stop-color="#5a5a5a"/>
      <stop offset="0.63" stop-color="#3a3a3a"/>
      <stop offset="0.72" stop-color="#202020"/>
      <stop offset="0.8" stop-color="#0e0e0e"/>
      <stop offset="0.9" stop-color="#030303"/>
      <stop offset="1"/>
    </linearGradient>
    <linearGradient id="Безымянный_градиент_23" data-name="Безымянный градиент 23" x1="166.42" y1="-239.44" x2="284.2" y2="-362.55" gradientUnits="userSpaceOnUse">
      <stop offset="0" stop-color="#0c48a4"/>
      <stop offset="0.13" stop-color="#0e50b7"/>
      <stop offset="0.15" stop-color="#1151b2"/>
      <stop offset="0.27" stop-color="#1b56a2"/>
      <stop offset="0.35" stop-color="#1f589c"/>
      <stop offset="0.68" stop-color="#2d75cd"/>
      <stop offset="0.8" stop-color="#428cd8"/>
      <stop offset="0.9" stop-color="#509bdf"/>
    </linearGradient>
    <linearGradient id="Безымянный_градиент_14" data-name="Безымянный градиент 14" x1="285.34" y1="-362.79" x2="168.14" y2="-242.19" gradientUnits="userSpaceOnUse">
      <stop offset="0" stop-opacity="0"/>
      <stop offset="1"/>
    </linearGradient>
    <linearGradient id="Безымянный_градиент_59" data-name="Безымянный градиент 59" x1="288.58" y1="-366.54" x2="163.84" y2="-237.35" gradientUnits="userSpaceOnUse">
      <stop offset="0" stop-color="#999"/>
      <stop offset="0.09" stop-color="#959595"/>
      <stop offset="0.17" stop-color="#8a8a8a"/>
      <stop offset="0.24" stop-color="#777"/>
      <stop offset="0.32" stop-color="#5c5c5c"/>
      <stop offset="0.4" stop-color="#3a3a3a"/>
      <stop offset="0.47" stop-color="#101010"/>
      <stop offset="0.5"/>
    </linearGradient>
    <linearGradient id="Безымянный_градиент_48" data-name="Безымянный градиент 48" x1="288.75" y1="-365.91" x2="165.05" y2="-239.39" gradientUnits="userSpaceOnUse">
      <stop offset="0" stop-color="#999"/>
      <stop offset="0.12" stop-color="#717171"/>
      <stop offset="0.28" stop-color="#414141"/>
      <stop offset="0.42" stop-color="#1d1d1d"/>
      <stop offset="0.53" stop-color="#080808"/>
      <stop offset="0.6"/>
    </linearGradient>
    <linearGradient id="Безымянный_градиент_25" data-name="Безымянный градиент 25" x1="205.63" y1="-263.58" x2="223.79" y2="-303.24" gradientUnits="userSpaceOnUse">
      <stop offset="0" stop-color="#1f589c"/>
      <stop offset="0.19" stop-color="#2564b1"/>
      <stop offset="0.41" stop-color="#296ec1"/>
      <stop offset="0.66" stop-color="#2c73ca"/>
      <stop offset="1" stop-color="#2d75cd"/>
    </linearGradient>
    <linearGradient id="Безымянный_градиент_30" data-name="Безымянный градиент 30" x1="225.36" y1="-302.62" x2="215.14" y2="-320.78" gradientUnits="userSpaceOnUse">
      <stop offset="0" stop-color="#58a4e3"/>
      <stop offset="1" stop-color="#2d75cd"/>
    </linearGradient>
    <linearGradient id="Безымянный_градиент_19" data-name="Безымянный градиент 19" x1="225.84" y1="-302.53" x2="271.51" y2="-302.53" gradientUnits="userSpaceOnUse">
      <stop offset="0" stop-color="#0c48a3"/>
      <stop offset="0.59" stop-color="#0d4dae"/>
      <stop offset="1" stop-color="#0e51b8"/>
    </linearGradient>
  </defs>
  <rect id="IconBackgroundMesh" width="126.62" height="129" rx="25.43" fill="url(#Безымянный_градиент_32)"/>
  <g id="IconBackgroundMesh-2" data-name="IconBackgroundMesh" opacity="0.6">
    <path d="M188.91-366a24.64,24.64,0,0,0-24.62,24.65v77.91a24.64,24.64,0,0,0,24.62,24.65h75.47A24.64,24.64,0,0,0,289-263.44v-77.91A24.64,24.64,0,0,0,264.38-366Z" transform="translate(-163.34 366.9)" fill="url(#Безымянный_градиент_23)"/>
  </g>
  <path id="IconBackgroundMesh-3" data-name="IconBackgroundMesh" d="M188.91-366a24.64,24.64,0,0,0-24.62,24.65v77.91a24.64,24.64,0,0,0,24.62,24.65h75.47A24.64,24.64,0,0,0,289-263.44v-77.91A24.64,24.64,0,0,0,264.38-366Z" transform="translate(-163.34 366.9)" fill="url(#Безымянный_градиент_14)"/>
  <path id="IconBackgroundMesh-4" data-name="IconBackgroundMesh" d="M264.53-365.9A24.46,24.46,0,0,1,289-341.47v78.15a24.45,24.45,0,0,1-24.43,24.42H188.76a24.44,24.44,0,0,1-24.42-24.42v-78.15a24.45,24.45,0,0,1,24.42-24.43h75.77m0-1H188.76a25.43,25.43,0,0,0-25.42,25.43v78.15a25.42,25.42,0,0,0,25.42,25.42h75.77A25.43,25.43,0,0,0,290-263.32v-78.15a25.44,25.44,0,0,0-25.43-25.43Z" transform="translate(-163.34 366.9)" fill="url(#Безымянный_градиент_59)"/>
  <path id="IconBackgroundMesh-5" data-name="IconBackgroundMesh" d="M264.38-365A23.66,23.66,0,0,1,288-341.35v77.91a23.66,23.66,0,0,1-23.62,23.65H188.91a23.66,23.66,0,0,1-23.62-23.65v-77.91A23.66,23.66,0,0,1,188.91-365h75.47m0-1H188.91a24.64,24.64,0,0,0-24.62,24.65v77.91a24.64,24.64,0,0,0,24.62,24.65h75.47A24.64,24.64,0,0,0,289-263.44v-77.91A24.64,24.64,0,0,0,264.38-366Z" transform="translate(-163.34 366.9)" fill="url(#Безымянный_градиент_48)"/>
  <g id="Text">
    <path d="M203.75-342h3.57v3.53h3.27V-342h3.57v10.68h-3.57v-3.58h-3.27v3.58h-3.57V-342Z" transform="translate(-163.34 366.9)" fill="#fff"/>
    <path d="M218.85-338.46h-3.14V-342h9.86v3.54h-3.15v7.14h-3.57v-7.14Z" transform="translate(-163.34 366.9)" fill="#fff"/>
    <path d="M227.13-342h3.72l2.29,3.75,2.29-3.75h3.73v10.68H235.6v-5.29l-2.46,3.8h-.06l-2.45-3.8v5.29h-3.5Z" transform="translate(-163.34 366.9)" fill="#fff"/>
    <path d="M240.93-342h3.57v7.15h5v3.53h-8.6Z" transform="translate(-163.34 366.9)" fill="#fff"/>
  </g>
  <g id="Xaml">
    <polygon points="83.53 28.17 41.57 28.17 20.59 64.51 41.57 100.85 83.53 100.85 104.52 64.51 83.53 28.17" fill="#fff"/>
    <path d="M271.17-303.79l-21.49-37.14a.61.61,0,0,0-.07-.1.56.56,0,0,0-.05-.08l-.13-.18-.08-.08a2.39,2.39,0,0,0-.23-.22l-.09-.07-.17-.12h0l-.17-.1a2.46,2.46,0,0,0-1.14-.28l-43.28-.09A2.47,2.47,0,0,0,202.1-341l-21.5,37.23a2.48,2.48,0,0,0,0,2.47l21.5,37.23a2.47,2.47,0,0,0,2.15,1.24h43.18a2.44,2.44,0,0,0,1-.2l.09,0,.09,0,.16-.09h0l.16-.11.08-.07.07-.06.07-.06.07-.07a.27.27,0,0,0,.07-.08.23.23,0,0,0,.07-.07h0l.06-.08.06-.08a1.74,1.74,0,0,0,.11-.18l21.59-37.23A2.43,2.43,0,0,0,271.17-303.79Zm-72,1.6L217.68-270a.49.49,0,0,1-.43.74h-12a.39.39,0,0,1-.34-.19l-18.55-32a2.29,2.29,0,0,1,0-2.29l18.55-32a.4.4,0,0,1,.34-.2h12a.49.49,0,0,1,.43.74l-18.51,32.23A.66.66,0,0,0,199.17-302.19Zm66.68-.05-16.56,28.46a.4.4,0,0,1-.69,0L242.75-284a.89.89,0,0,1,0-.89l9.83-17.16a.89.89,0,0,0,0-.89l-9.83-17.16a.87.87,0,0,1,0-.88l5.85-10.27a.4.4,0,0,1,.69,0l16.56,28.46A.57.57,0,0,1,265.85-302.24Z" transform="translate(-163.34 366.9)" opacity="0.5"/>
    <path id="LeftDown" d="M248.4-263l-22.56-39.38H199.08a.48.48,0,0,1,0-.12.57.57,0,0,0,.09.36L217.68-270a.49.49,0,0,1-.43.74h-12a.39.39,0,0,1-.34-.19l-18.55-32a2.28,2.28,0,0,1-.31-1h-5.76a2.45,2.45,0,0,0,.32,1.11l21.5,37.23a2.47,2.47,0,0,0,2.15,1.24h43.18a2.59,2.59,0,0,0,1.14-.27Z" transform="translate(-163.34 366.9)" fill="url(#Безымянный_градиент_25)"/>
    <path id="LeftUp" d="M247.53-342.17l-43.28-.09A2.47,2.47,0,0,0,202.1-341l-21.5,37.23a2.4,2.4,0,0,0-.32,1.36H186a2.24,2.24,0,0,1,.31-1.25l18.55-32a.4.4,0,0,1,.34-.2h12a.49.49,0,0,1,.43.74l-18.51,32.23a.71.71,0,0,0-.09.45h26.76L248.37-342A2.6,2.6,0,0,0,247.53-342.17Z" transform="translate(-163.34 366.9)" fill="url(#Безымянный_градиент_30)"/>
    <path d="M271.17-303.79l-21.49-37.14a.61.61,0,0,0-.07-.1.56.56,0,0,0-.05-.08l-.13-.18-.08-.08a2.39,2.39,0,0,0-.23-.22l-.09-.07-.17-.12h0l-.17-.1-.3-.13-22.53,39.59L248.4-263l.09,0,.09,0,.16-.09h0l.16-.11.08-.07.07-.06.07-.06.07-.07a.27.27,0,0,0,.07-.08.23.23,0,0,0,.07-.07h0l.06-.08.06-.08a1.74,1.74,0,0,0,.11-.18l21.59-37.23A2.43,2.43,0,0,0,271.17-303.79Zm-5.32,1.55-16.56,28.46a.4.4,0,0,1-.69,0L242.75-284a.89.89,0,0,1,0-.89l9.83-17.16a.89.89,0,0,0,0-.89l-9.83-17.16a.87.87,0,0,1,0-.88l5.85-10.27a.4.4,0,0,1,.69,0l16.56,28.46A.57.57,0,0,1,265.85-302.24Z" transform="translate(-163.34 366.9)" fill="url(#Безымянный_градиент_19)"/>
  </g>
</svg>
