<svg xmlns="http://www.w3.org/2000/svg" xmlns:xlink="http://www.w3.org/1999/xlink" width="521" height="129" viewBox="0 0 521 129">
  <defs>
    <linearGradient id="Безымянный_градиент_36" data-name="Безымянный градиент 36" x1="128.62" y1="-1552.31" x2="128.62" y2="-1678.92" gradientUnits="userSpaceOnUse">
      <stop offset="0" stop-color="#003580" stop-opacity="0"/>
      <stop offset="0.01" stop-color="#003b89" stop-opacity="0.07"/>
      <stop offset="0.05" stop-color="#0049a2" stop-opacity="0.26"/>
      <stop offset="0.09" stop-color="#0056b8" stop-opacity="0.44"/>
      <stop offset="0.13" stop-color="#0062cb" stop-opacity="0.59"/>
      <stop offset="0.17" stop-color="#006cdb" stop-opacity="0.72"/>
      <stop offset="0.21" stop-color="#0073e8" stop-opacity="0.82"/>
      <stop offset="0.26" stop-color="#0079f2" stop-opacity="0.9"/>
      <stop offset="0.32" stop-color="#007efa" stop-opacity="0.96"/>
      <stop offset="0.39" stop-color="#0080fe" stop-opacity="0.99"/>
      <stop offset="0.5" stop-color="#0081ff"/>
      <stop offset="0.61" stop-color="#0080fe" stop-opacity="0.99"/>
      <stop offset="0.68" stop-color="#007efa" stop-opacity="0.96"/>
      <stop offset="0.74" stop-color="#0079f2" stop-opacity="0.9"/>
      <stop offset="0.79" stop-color="#0073e8" stop-opacity="0.82"/>
      <stop offset="0.83" stop-color="#006cdb" stop-opacity="0.72"/>
      <stop offset="0.87" stop-color="#0062cb" stop-opacity="0.59"/>
      <stop offset="0.91" stop-color="#0056b7" stop-opacity="0.44"/>
      <stop offset="0.95" stop-color="#0049a1" stop-opacity="0.26"/>
      <stop offset="0.99" stop-color="#003b88" stop-opacity="0.07"/>
      <stop offset="1" stop-color="#00357f" stop-opacity="0"/>
    </linearGradient>
    <linearGradient id="BudgetTextColorGradient" x1="300.97" y1="-1588.5" x2="387.49" y2="-1712.35" gradientUnits="userSpaceOnUse">
      <stop offset="0" stop-color="#000938"/>
      <stop offset="0.24" stop-color="#0b0833"/>
      <stop offset="0.67" stop-color="#280524"/>
      <stop offset="1" stop-color="#430217"/>
    </linearGradient>
    <linearGradient id="Безымянный_градиент_146" data-name="Безымянный градиент 146" x1="325.81" y1="-1678.09" x2="325.81" y2="-1555.56" gradientUnits="userSpaceOnUse">
      <stop offset="0" stop-opacity="0"/>
      <stop offset="1"/>
    </linearGradient>
    <linearGradient id="Безымянный_градиент_94" data-name="Безымянный градиент 94" x1="59.06" y1="110.33" x2="32.09" y2="-7.33" gradientUnits="userSpaceOnUse">
      <stop offset="0" stop-color="#ffb300"/>
      <stop offset="0.07" stop-color="#fc9c0d"/>
      <stop offset="0.23" stop-color="#f76f26"/>
      <stop offset="0.39" stop-color="#f3493a"/>
      <stop offset="0.55" stop-color="#f02c4a"/>
      <stop offset="0.7" stop-color="#ee1756"/>
      <stop offset="0.85" stop-color="#ec0a5d"/>
      <stop offset="1" stop-color="#ec065f"/>
    </linearGradient>
    <linearGradient id="Безымянный_градиент_97" data-name="Безымянный градиент 97" x1="42.3" y1="51.5" x2="114" y2="51.5" gradientUnits="userSpaceOnUse">
      <stop offset="0" stop-color="#ffb300"/>
      <stop offset="0.02" stop-color="#fda10a"/>
      <stop offset="0.07" stop-color="#f97d1e"/>
      <stop offset="0.13" stop-color="#f65d2f"/>
      <stop offset="0.19" stop-color="#f3413e"/>
      <stop offset="0.26" stop-color="#f02b4a"/>
      <stop offset="0.35" stop-color="#ee1a54"/>
      <stop offset="0.45" stop-color="#ed0f5a"/>
      <stop offset="0.6" stop-color="#ec085e"/>
      <stop offset="1" stop-color="#ec065f"/>
    </linearGradient>
    <linearGradient id="Безымянный_градиент_120" data-name="Безымянный градиент 120" x1="10.37" y1="-33.3" x2="131.18" y2="175.95" gradientUnits="userSpaceOnUse">
      <stop offset="0" stop-color="#007fff"/>
      <stop offset="0.2" stop-color="#027efe"/>
      <stop offset="0.27" stop-color="#097bfa"/>
      <stop offset="0.32" stop-color="#1476f4"/>
      <stop offset="0.36" stop-color="#256eea"/>
      <stop offset="0.39" stop-color="#3b64de"/>
      <stop offset="0.42" stop-color="#5758cf"/>
      <stop offset="0.45" stop-color="#7749bd"/>
      <stop offset="0.47" stop-color="#9c39a8"/>
      <stop offset="0.5" stop-color="#c52692"/>
      <stop offset="0.5" stop-color="#ca248f"/>
      <stop offset="0.5" stop-color="#c52692"/>
      <stop offset="0.53" stop-color="#9c39a8"/>
      <stop offset="0.55" stop-color="#7749bd"/>
      <stop offset="0.58" stop-color="#5758cf"/>
      <stop offset="0.61" stop-color="#3b64de"/>
      <stop offset="0.64" stop-color="#256eea"/>
      <stop offset="0.68" stop-color="#1476f4"/>
      <stop offset="0.73" stop-color="#097bfa"/>
      <stop offset="0.8" stop-color="#027efe"/>
      <stop offset="1" stop-color="#007fff"/>
    </linearGradient>
  </defs>
  <g style="isolation: isolate">
    <g id="IconBackground">
      <g id="IconBackgroundMesh">
        <path d="M27-1680a25,25,0,0,0-25,25v79a25,25,0,0,0,25,25H128.62v-129Z" transform="translate(-2 1680)"/>
      </g>
    </g>
    <g id="IconTextBackgroundBorder">
      <path id="IconTextBackgroundBorderMesh" d="M128.62-1678.92v0Z" transform="translate(-2 1680)" fill="none" stroke-miterlimit="10" opacity="0.5" stroke="url(#Безымянный_градиент_36)"/>
    </g>
    <g id="TextBackground">
      <g id="BudgetTextColorGradient-2" data-name="BudgetTextColorGradient">
        <path d="M498-1680H128.62v129H498a25,25,0,0,0,25-25v-79A25,25,0,0,0,498-1680Z" transform="translate(-2 1680)" fill="url(#BudgetTextColorGradient)"/>
      </g>
      <g id="BudgetTextVignette">
        <path d="M498-1680H128.62v129H498a25,25,0,0,0,25-25v-79A25,25,0,0,0,498-1680Z" transform="translate(-2 1680)" fill="url(#Безымянный_градиент_146)" style="mix-blend-mode: multiply"/>
      </g>
    </g>
    <g id="Text">
      <g opacity="0.8">
        <path d="M189.64-1606.29a8.23,8.23,0,0,1-5.84-2,7,7,0,0,1-2.16-5.39h4.8a3.22,3.22,0,0,0,.86,2.35,3.13,3.13,0,0,0,2.34.88,3.19,3.19,0,0,0,2.34-.85,3.1,3.1,0,0,0,.86-2.32v-11.9h-6.56V-1630h11.36v16.38a6.93,6.93,0,0,1-2.14,5.36A8.31,8.31,0,0,1,189.64-1606.29Z" transform="translate(-2 1680)" fill="#fff"/>
        <path d="M209.83-1606.32a8.89,8.89,0,0,1-4.08-.88,6.48,6.48,0,0,1-2.69-2.46,7.09,7.09,0,0,1-.94-3.7v-4.16a7.09,7.09,0,0,1,.94-3.7,6.48,6.48,0,0,1,2.69-2.46,8.89,8.89,0,0,1,4.08-.88,8.7,8.7,0,0,1,4,.88,6.52,6.52,0,0,1,2.66,2.46,7.19,7.19,0,0,1,.94,3.7v3.2H206.7v1c0,2.24,1.06,3.36,3.2,3.36,1.51,0,2.42-.48,2.72-1.44h4.7a6.2,6.2,0,0,1-2.61,3.71A8.33,8.33,0,0,1,209.83-1606.32Zm-3.13-11.2v.48l6.2-.06v-.48q0-3.36-3.07-3.36a3,3,0,0,0-2.35.89A3.74,3.74,0,0,0,206.7-1617.52Z" transform="translate(-2 1680)" fill="#fff"/>
        <path d="M230.92-1606.64a5.67,5.67,0,0,1-4.22-1.54,5.67,5.67,0,0,1-1.54-4.22v-7.52h-4.64v-4.32h4.64v-5H230v5h6.56v4.32H230v7.52a1.27,1.27,0,0,0,1.44,1.44h4.8v4.32Z" transform="translate(-2 1680)" fill="#fff"/>
        <path d="M250-1606.32a4.76,4.76,0,0,1-3.08-1,4.2,4.2,0,0,1-1.49-2.72h-.1v3.36h-4.64V-1630h4.8v4.8l-.16,4.32h.1a4.2,4.2,0,0,1,1.49-2.72,4.76,4.76,0,0,1,3.08-1,5.32,5.32,0,0,1,4.26,1.87,7.44,7.44,0,0,1,1.6,5v4.48a7.4,7.4,0,0,1-1.6,5A5.35,5.35,0,0,1,250-1606.32Zm-1.73-4.16a2.74,2.74,0,0,0,2.07-.75,3,3,0,0,0,.72-2.13v-4.16a3,3,0,0,0-.72-2.13,2.74,2.74,0,0,0-2.07-.75,2.73,2.73,0,0,0-2,.75,2.92,2.92,0,0,0-.74,2.13v4.16a2.92,2.92,0,0,0,.74,2.13A2.73,2.73,0,0,0,248.29-1610.48Z" transform="translate(-2 1680)" fill="#fff"/>
        <path d="M260.42-1606.64v-17.6h4.48v3.36H265c.57-2.45,2.22-3.68,4.92-3.68a5.83,5.83,0,0,1,4.53,1.76,7.06,7.06,0,0,1,1.62,5v1.44h-5.12v-1.12a3,3,0,0,0-.79-2.24,2.8,2.8,0,0,0-2.09-.8,2.69,2.69,0,0,0-2.1.8,3.23,3.23,0,0,0-.72,2.24v10.88Z" transform="translate(-2 1680)" fill="#fff"/>
        <path d="M284.33-1606.32a5.92,5.92,0,0,1-4.21-1.44,5,5,0,0,1-1.55-3.9,4.85,4.85,0,0,1,1.84-4.08,8.48,8.48,0,0,1,5.29-1.43h3.65v-1.31a2,2,0,0,0-.72-1.63,2.89,2.89,0,0,0-1.94-.61,3.18,3.18,0,0,0-1.85.51,2.11,2.11,0,0,0-.9,1.41H279.3a5.88,5.88,0,0,1,2.32-4.21,8.42,8.42,0,0,1,5.23-1.55,8,8,0,0,1,5.33,1.65,5.48,5.48,0,0,1,2,4.43v11.84h-4.64v-2.88h-.1a3.79,3.79,0,0,1-1.72,2.35A6.16,6.16,0,0,1,284.33-1606.32Zm1.79-3.52a3.53,3.53,0,0,0,2.32-.75,2.42,2.42,0,0,0,.91-2v-1.89H285.8a2.46,2.46,0,0,0-1.76.63,2.11,2.11,0,0,0-.67,1.64,2.14,2.14,0,0,0,.73,1.72A3,3,0,0,0,286.12-1609.84Z" transform="translate(-2 1680)" fill="#fff"/>
        <path d="M298.44-1606.64V-1611h6.08v-8.93h-5.28v-4.32H309V-1611h5.12v4.35Zm8-20.38a3.1,3.1,0,0,1-2.1-.68,2.26,2.26,0,0,1-.78-1.82,2.26,2.26,0,0,1,.78-1.82,3.1,3.1,0,0,1,2.1-.68,3.09,3.09,0,0,1,2.09.68,2.24,2.24,0,0,1,.79,1.82,2.24,2.24,0,0,1-.79,1.82A3.09,3.09,0,0,1,306.44-1627Z" transform="translate(-2 1680)" fill="#fff"/>
        <path d="M317.51-1606.64v-17.6h4.64v3.36h.09a4.43,4.43,0,0,1,1.54-2.69,4.76,4.76,0,0,1,3.1-1,5.2,5.2,0,0,1,4.12,1.79,7.07,7.07,0,0,1,1.55,4.77v11.36h-4.8v-10.88a3,3,0,0,0-.72-2.13,2.65,2.65,0,0,0-2-.75,2.63,2.63,0,0,0-2,.75,3,3,0,0,0-.72,2.13v10.88Z" transform="translate(-2 1680)" fill="#fff"/>
        <path d="M343.46-1606.32a9.74,9.74,0,0,1-3.81-.69,6,6,0,0,1-2.54-1.9,4.6,4.6,0,0,1-.91-2.85H341a1.41,1.41,0,0,0,.68,1.23,3.12,3.12,0,0,0,1.78.47h1.41c1.79,0,2.69-.61,2.69-1.83,0-1-.84-1.61-2.5-1.82L343-1614a9.85,9.85,0,0,1-4.8-1.6,4.31,4.31,0,0,1-1.5-3.61,4.77,4.77,0,0,1,1.76-4,8.08,8.08,0,0,1,5.15-1.41h1.22a8.52,8.52,0,0,1,5.15,1.41,4.45,4.45,0,0,1,1.92,3.77h-4.8a1.21,1.21,0,0,0-.63-1,3,3,0,0,0-1.64-.4h-1.22a3,3,0,0,0-1.73.4,1.41,1.41,0,0,0-.54,1.2,1.32,1.32,0,0,0,.49,1.12,3.44,3.44,0,0,0,1.59.55l2.21.29a10.17,10.17,0,0,1,4.94,1.66,4.39,4.39,0,0,1,1.62,3.71,4.92,4.92,0,0,1-1.86,4.13,8.81,8.81,0,0,1-5.47,1.44Z" transform="translate(-2 1680)" fill="#fff"/>
        <path d="M375.07-1606.64V-1630h7.52a10.06,10.06,0,0,1,4.32.86,6.66,6.66,0,0,1,2.84,2.47,6.94,6.94,0,0,1,1,3.77,7.57,7.57,0,0,1-1.1,4.07,6.37,6.37,0,0,1-3,2.59l4.41,9.6h-5.21l-3.78-8.83h-2.24v8.83Zm4.77-13h2.75a3.55,3.55,0,0,0,2.48-.8,2.87,2.87,0,0,0,.88-2.24,3.07,3.07,0,0,0-.88-2.34,3.47,3.47,0,0,0-2.48-.83h-2.75Z" transform="translate(-2 1680)" fill="#fff"/>
        <path d="M394.43-1606.64V-1611h6.08v-8.93h-5.28v-4.32H405V-1611h5.12v4.35Zm8-20.38a3.09,3.09,0,0,1-2.09-.68,2.24,2.24,0,0,1-.79-1.82,2.24,2.24,0,0,1,.79-1.82,3.09,3.09,0,0,1,2.09-.68,3.1,3.1,0,0,1,2.1.68,2.26,2.26,0,0,1,.78,1.82,2.26,2.26,0,0,1-.78,1.82A3.1,3.1,0,0,1,402.43-1627Z" transform="translate(-2 1680)" fill="#fff"/>
        <path d="M419.17-1606.32a5.35,5.35,0,0,1-4.26-1.86,7.45,7.45,0,0,1-1.6-5v-4.48a7.49,7.49,0,0,1,1.6-5,5.32,5.32,0,0,1,4.26-1.87,4.79,4.79,0,0,1,3.09,1,4.19,4.19,0,0,1,1.48,2.72h.1l-.16-4.32v-4.8h4.8v23.36h-4.64V-1610h-.1a4.19,4.19,0,0,1-1.48,2.72A4.79,4.79,0,0,1,419.17-1606.32Zm1.73-4.16a2.73,2.73,0,0,0,2-.75,2.88,2.88,0,0,0,.74-2.13v-4.16a2.88,2.88,0,0,0-.74-2.13,2.73,2.73,0,0,0-2-.75,2.74,2.74,0,0,0-2.07.75,3,3,0,0,0-.72,2.13v4.16a3,3,0,0,0,.72,2.13A2.74,2.74,0,0,0,420.9-1610.48Z" transform="translate(-2 1680)" fill="#fff"/>
        <path d="M440.22-1606.32a9,9,0,0,1-4.08-.88,6.4,6.4,0,0,1-2.68-2.46,7.1,7.1,0,0,1-.95-3.7v-4.16a7.1,7.1,0,0,1,.95-3.7,6.4,6.4,0,0,1,2.68-2.46,9,9,0,0,1,4.08-.88,8.7,8.7,0,0,1,4,.88,6.52,6.52,0,0,1,2.66,2.46,7.09,7.09,0,0,1,.94,3.7v3.2H437.09v1c0,2.24,1.06,3.36,3.2,3.36,1.51,0,2.42-.48,2.72-1.44h4.7a6.2,6.2,0,0,1-2.61,3.71A8.33,8.33,0,0,1,440.22-1606.32Zm-3.13-11.2v.48l6.21-.06v-.48q0-3.36-3.08-3.36a3,3,0,0,0-2.35.89A3.74,3.74,0,0,0,437.09-1617.52Z" transform="translate(-2 1680)" fill="#fff"/>
        <path d="M452.42-1606.64v-17.6h4.47v3.36H457q.87-3.67,4.93-3.68a5.86,5.86,0,0,1,4.53,1.76,7.1,7.1,0,0,1,1.61,5v1.44h-5.12v-1.12a3.07,3.07,0,0,0-.78-2.24,2.83,2.83,0,0,0-2.1-.8,2.71,2.71,0,0,0-2.1.8,3.27,3.27,0,0,0-.72,2.24v10.88Z" transform="translate(-2 1680)" fill="#fff"/>
      </g>
    </g>
    <g id="Icon">
      <polygon points="11 32 22.11 103 51.39 114 88.75 86 42.3 11 11 32" fill="url(#Безымянный_градиент_94)"/>
      <polygon points="95.82 88 114 51 42.3 11 92.79 92 95.82 88" fill="url(#Безымянный_градиент_97)"/>
      <polygon points="44.32 95 83.71 114 114 97 76.64 12 42.3 48 44.32 95" fill="url(#Безымянный_градиент_120)"/>
      <rect x="33.22" y="37" width="59.58" height="54" fill="#fff"/>
      <path d="M62.48-1593H38.25v-5H62.48Zm-9.34-42a5.78,5.78,0,0,0-3.56-1H45.63v7.11h3.95a6,6,0,0,0,3.56-.92,3,3,0,0,0,1.26-2.56A3.14,3.14,0,0,0,53.14-1635Zm0,0a5.78,5.78,0,0,0-3.56-1H45.63v7.11h3.95a6,6,0,0,0,3.56-.92,3,3,0,0,0,1.26-2.56A3.14,3.14,0,0,0,53.14-1635Zm-22-15v65H97.82v-65Zm23.09,36-5.42-10.11H45.63V-1614H38.78v-26.74h10.8a17.59,17.59,0,0,1,6.21,1,9.15,9.15,0,0,1,4.06,2.82,6.79,6.79,0,0,1,1.45,4.32,7.41,7.41,0,0,1-1.59,4.66,8.9,8.9,0,0,1-4.3,3l6.34,11Zm34.47-8.61a7.39,7.39,0,0,1-1.45,4.51,9.43,9.43,0,0,1-4.05,3,15.7,15.7,0,0,1-6.09,1.08H66.26v-26.74H77.15a16.1,16.1,0,0,1,6.09,1.06,9.38,9.38,0,0,1,4.05,3,7.34,7.34,0,0,1,1.45,4.52Zm-8.18-12.05a5.63,5.63,0,0,0-3.41-.95h-4v16.48h4a5.56,5.56,0,0,0,3.41-.95,3,3,0,0,0,1.28-2.53v-9.56A3,3,0,0,0,80.56-1634.66ZM53.14-1635a5.78,5.78,0,0,0-3.56-1H45.63v7.11h3.95a6,6,0,0,0,3.56-.92,3,3,0,0,0,1.26-2.56A3.14,3.14,0,0,0,53.14-1635Z" transform="translate(-2 1680)"/>
    </g>
  </g>
</svg>
