<svg xmlns="http://www.w3.org/2000/svg" xmlns:xlink="http://www.w3.org/1999/xlink" width="520.5" height="129" viewBox="0 0 520.5 129">
  <defs>
    <linearGradient id="Безымянный_градиент_34" data-name="Безымянный градиент 34" x1="354.04" y1="-1755.01" x2="311.97" y2="-1562.41" gradientUnits="userSpaceOnUse">
      <stop offset="0" stop-color="#f9f74b"/>
      <stop offset="0.23" stop-color="#ace46c"/>
      <stop offset="0.51" stop-color="#34d985"/>
      <stop offset="0.68" stop-color="#20d68e"/>
      <stop offset="0.73" stop-color="#19d0ab"/>
      <stop offset="0.81" stop-color="#0fc9d4"/>
      <stop offset="0.85" stop-color="#0bc6e3"/>
    </linearGradient>
    <linearGradient id="Безымянный_градиент_151" data-name="Безымянный градиент 151" x1="337.53" y1="-1702.87" x2="307.31" y2="-1504.2" gradientUnits="userSpaceOnUse">
      <stop offset="0" stop-opacity="0"/>
      <stop offset="1"/>
    </linearGradient>
    <linearGradient id="Безымянный_градиент_42" data-name="Безымянный градиент 42" x1="129.31" y1="-1552" x2="129.31" y2="-1678.61" gradientUnits="userSpaceOnUse">
      <stop offset="0" stop-color="#0bc6e3" stop-opacity="0"/>
      <stop offset="0.03" stop-color="#0bc6e3" stop-opacity="0.18"/>
      <stop offset="0.07" stop-color="#0bc6e3" stop-opacity="0.37"/>
      <stop offset="0.11" stop-color="#0bc6e3" stop-opacity="0.54"/>
      <stop offset="0.15" stop-color="#0bc6e3" stop-opacity="0.68"/>
      <stop offset="0.2" stop-color="#0bc6e3" stop-opacity="0.8"/>
      <stop offset="0.25" stop-color="#0bc6e3" stop-opacity="0.89"/>
      <stop offset="0.31" stop-color="#0bc6e3" stop-opacity="0.95"/>
      <stop offset="0.38" stop-color="#0bc6e3" stop-opacity="0.99"/>
      <stop offset="0.5" stop-color="#0bc6e3"/>
      <stop offset="0.62" stop-color="#0bc6e3" stop-opacity="0.99"/>
      <stop offset="0.69" stop-color="#0bc6e3" stop-opacity="0.95"/>
      <stop offset="0.75" stop-color="#0bc6e3" stop-opacity="0.89"/>
      <stop offset="0.8" stop-color="#0bc6e3" stop-opacity="0.8"/>
      <stop offset="0.85" stop-color="#0bc6e3" stop-opacity="0.68"/>
      <stop offset="0.89" stop-color="#0bc6e3" stop-opacity="0.54"/>
      <stop offset="0.93" stop-color="#0bc6e3" stop-opacity="0.37"/>
      <stop offset="0.97" stop-color="#0bc6e3" stop-opacity="0.18"/>
      <stop offset="1" stop-color="#0bc6e3" stop-opacity="0"/>
    </linearGradient>
    <linearGradient id="Безымянный_градиент_6" data-name="Безымянный градиент 6" x1="51.49" y1="94.01" x2="54.44" y2="74.34" gradientUnits="userSpaceOnUse">
      <stop offset="0" stop-color="#34d985"/>
      <stop offset="0.13" stop-color="#39da84"/>
      <stop offset="0.29" stop-color="#48db81"/>
      <stop offset="0.46" stop-color="#60dd7c"/>
      <stop offset="0.5" stop-color="#66de7b"/>
      <stop offset="0.67" stop-color="#7be077"/>
      <stop offset="1" stop-color="#ace46c"/>
    </linearGradient>
  </defs>
  <g style="isolation: isolate">
    <g id="IconBackground">
      <g id="IconBackgroundMesh">
        <path d="M27.69-1680a25,25,0,0,0-25,25v79a25,25,0,0,0,25,25H129.31v-129Z" transform="translate(-2.69 1680)"/>
      </g>
    </g>
    <g id="TextBackground">
      <g id="BudgetTextColorGradient">
        <path d="M498.19-1680H128.81v129H498.19a25,25,0,0,0,25-25v-79A25,25,0,0,0,498.19-1680Z" transform="translate(-2.69 1680)" fill="url(#Безымянный_градиент_34)"/>
      </g>
      <g id="BudgetTextVignette">
        <path d="M498.19-1680H128.81v129H498.19a25,25,0,0,0,25-25v-79A25,25,0,0,0,498.19-1680Z" transform="translate(-2.69 1680)" fill="url(#Безымянный_градиент_151)" style="mix-blend-mode: multiply"/>
      </g>
    </g>
    <g id="Text">
      <g id="Visual_Studio" data-name="Visual Studio" opacity="0.8">
        <path d="M170.71-1603.79a8.23,8.23,0,0,1-5.84-2,7,7,0,0,1-2.16-5.39h4.8a3.22,3.22,0,0,0,.86,2.35,3.13,3.13,0,0,0,2.34.88,3.15,3.15,0,0,0,2.33-.85,3.07,3.07,0,0,0,.87-2.32V-1623h-6.56v-4.48h11.36v16.38a6.9,6.9,0,0,1-2.15,5.36A8.27,8.27,0,0,1,170.71-1603.79Z" transform="translate(-2.69 1680)" fill="#fff"/>
        <path d="M190.9-1603.82a8.89,8.89,0,0,1-4.08-.88,6.48,6.48,0,0,1-2.69-2.46,7.09,7.09,0,0,1-.94-3.7V-1615a7.09,7.09,0,0,1,.94-3.7,6.48,6.48,0,0,1,2.69-2.46,8.89,8.89,0,0,1,4.08-.88,8.7,8.7,0,0,1,4,.88,6.44,6.44,0,0,1,2.65,2.46,7.1,7.1,0,0,1,1,3.7v3.2H187.76v1q0,3.36,3.2,3.36c1.52,0,2.43-.48,2.72-1.44h4.71a6.24,6.24,0,0,1-2.61,3.71A8.33,8.33,0,0,1,190.9-1603.82Zm-3.14-11.2v.48l6.21-.06v-.48q0-3.36-3.07-3.36a2.93,2.93,0,0,0-2.35.89A3.74,3.74,0,0,0,187.76-1615Z" transform="translate(-2.69 1680)" fill="#fff"/>
        <path d="M212-1604.14a5.71,5.71,0,0,1-4.23-1.54,5.71,5.71,0,0,1-1.53-4.22v-7.52h-4.64v-4.32h4.64v-5H211v5h6.56v4.32H211v7.52a1.27,1.27,0,0,0,1.44,1.44h4.8v4.32Z" transform="translate(-2.69 1680)" fill="#fff"/>
        <path d="M231.09-1603.82a4.79,4.79,0,0,1-3.09-1,4.19,4.19,0,0,1-1.48-2.72h-.1v3.36h-4.64v-23.36h4.8v4.8l-.16,4.32h.1a4.19,4.19,0,0,1,1.48-2.72,4.79,4.79,0,0,1,3.09-1,5.32,5.32,0,0,1,4.26,1.87,7.49,7.49,0,0,1,1.6,5v4.48a7.45,7.45,0,0,1-1.6,5A5.35,5.35,0,0,1,231.09-1603.82Zm-1.73-4.16a2.74,2.74,0,0,0,2.07-.75,3,3,0,0,0,.72-2.13V-1615a3,3,0,0,0-.72-2.13,2.74,2.74,0,0,0-2.07-.75,2.73,2.73,0,0,0-2,.75,2.92,2.92,0,0,0-.74,2.13v4.16a2.92,2.92,0,0,0,.74,2.13A2.73,2.73,0,0,0,229.36-1608Z" transform="translate(-2.69 1680)" fill="#fff"/>
        <path d="M241.49-1604.14v-17.6H246v3.36H246q.86-3.67,4.92-3.68a5.86,5.86,0,0,1,4.53,1.76,7.06,7.06,0,0,1,1.62,5v1.44H252V-1615a3,3,0,0,0-.79-2.24,2.8,2.8,0,0,0-2.09-.8,2.69,2.69,0,0,0-2.1.8,3.23,3.23,0,0,0-.72,2.24v10.88Z" transform="translate(-2.69 1680)" fill="#fff"/>
        <path d="M265.4-1603.82a5.92,5.92,0,0,1-4.21-1.44,5,5,0,0,1-1.55-3.9,4.85,4.85,0,0,1,1.84-4.08,8.48,8.48,0,0,1,5.29-1.43h3.65V-1616a2,2,0,0,0-.72-1.63,2.89,2.89,0,0,0-1.94-.61,3.18,3.18,0,0,0-1.85.51,2.11,2.11,0,0,0-.9,1.41h-4.64a5.88,5.88,0,0,1,2.32-4.21,8.42,8.42,0,0,1,5.23-1.55,8,8,0,0,1,5.33,1.65,5.48,5.48,0,0,1,2,4.43v11.84h-4.64V-1607h-.1a3.79,3.79,0,0,1-1.72,2.35A6.16,6.16,0,0,1,265.4-1603.82Zm1.79-3.52a3.53,3.53,0,0,0,2.32-.75,2.42,2.42,0,0,0,.91-2v-1.89h-3.55a2.46,2.46,0,0,0-1.76.63,2.11,2.11,0,0,0-.67,1.64,2.14,2.14,0,0,0,.73,1.72A3,3,0,0,0,267.19-1607.34Z" transform="translate(-2.69 1680)" fill="#fff"/>
        <path d="M279.51-1604.14v-4.35h6.08v-8.93h-5.28v-4.32h9.76v13.25h5.12v4.35Zm8-20.38a3.1,3.1,0,0,1-2.1-.68,2.26,2.26,0,0,1-.78-1.82,2.26,2.26,0,0,1,.78-1.82,3.1,3.1,0,0,1,2.1-.68,3.09,3.09,0,0,1,2.09.68,2.24,2.24,0,0,1,.79,1.82,2.24,2.24,0,0,1-.79,1.82A3.09,3.09,0,0,1,287.51-1624.52Z" transform="translate(-2.69 1680)" fill="#fff"/>
        <path d="M298.58-1604.14v-17.6h4.64v3.36h.09a4.43,4.43,0,0,1,1.54-2.69,4.74,4.74,0,0,1,3.1-1,5.2,5.2,0,0,1,4.12,1.79,7.07,7.07,0,0,1,1.55,4.77v11.36h-4.8V-1615a3,3,0,0,0-.72-2.13,2.65,2.65,0,0,0-2-.75,2.63,2.63,0,0,0-2,.75,3,3,0,0,0-.72,2.13v10.88Z" transform="translate(-2.69 1680)" fill="#fff"/>
        <path d="M324.53-1603.82a9.74,9.74,0,0,1-3.81-.69,6,6,0,0,1-2.54-1.9,4.61,4.61,0,0,1-.92-2.85h4.81a1.41,1.41,0,0,0,.68,1.23,3.12,3.12,0,0,0,1.78.47h1.41c1.79,0,2.69-.61,2.69-1.83,0-1-.84-1.61-2.5-1.82l-2.05-.26a9.85,9.85,0,0,1-4.8-1.6,4.31,4.31,0,0,1-1.5-3.61,4.77,4.77,0,0,1,1.76-4,8.08,8.08,0,0,1,5.15-1.41h1.22a8.52,8.52,0,0,1,5.15,1.41,4.45,4.45,0,0,1,1.92,3.77h-4.8a1.21,1.21,0,0,0-.63-1,3,3,0,0,0-1.64-.4h-1.22a3,3,0,0,0-1.73.4,1.41,1.41,0,0,0-.54,1.2,1.32,1.32,0,0,0,.49,1.12,3.44,3.44,0,0,0,1.59.55l2.21.29a10.17,10.17,0,0,1,4.94,1.66,4.39,4.39,0,0,1,1.61,3.71,4.91,4.91,0,0,1-1.85,4.13,8.81,8.81,0,0,1-5.47,1.44Z" transform="translate(-2.69 1680)" fill="#fff"/>
        <path d="M356.18-1604.14v-23.36h8a9.44,9.44,0,0,1,4.31.93,7,7,0,0,1,2.85,2.59,7.4,7.4,0,0,1,1,3.9,7.33,7.33,0,0,1-1,3.89,6.92,6.92,0,0,1-2.85,2.61,9.29,9.29,0,0,1-4.29.93H361v8.51ZM361-1617h3.16a3.43,3.43,0,0,0,2.45-.85,2.94,2.94,0,0,0,.91-2.26,2.92,2.92,0,0,0-.91-2.25,3.43,3.43,0,0,0-2.45-.85H361Z" transform="translate(-2.69 1680)" fill="#fff"/>
        <path d="M378.29-1598.38l2.4-6.62-6.6-16.74h5.22l2.66,7.68c.19.58.39,1.27.59,2.1s.36,1.48.46,2c.11-.52.26-1.18.47-2s.4-1.52.59-2.1l2.56-7.68h5l-8.32,23.36Z" transform="translate(-2.69 1680)" fill="#fff"/>
        <path d="M402.19-1603.82a9,9,0,0,1-4.1-.88,6.65,6.65,0,0,1-2.73-2.46,6.93,6.93,0,0,1-1-3.7v-9.92a6.87,6.87,0,0,1,1-3.71,6.63,6.63,0,0,1,2.73-2.45,9,9,0,0,1,4.1-.88,9,9,0,0,1,4.11.88,6.67,6.67,0,0,1,2.72,2.45,6.87,6.87,0,0,1,1,3.71h-4.8a2.76,2.76,0,0,0-.79-2.14,3.12,3.12,0,0,0-2.22-.74,3.12,3.12,0,0,0-2.22.74,2.76,2.76,0,0,0-.79,2.14v9.92a2.78,2.78,0,0,0,.79,2.13,3.07,3.07,0,0,0,2.22.75,3.07,3.07,0,0,0,2.22-.75,2.78,2.78,0,0,0,.79-2.13H410a6.93,6.93,0,0,1-1,3.7,6.69,6.69,0,0,1-2.72,2.46A9,9,0,0,1,402.19-1603.82Z" transform="translate(-2.69 1680)" fill="#fff"/>
        <path d="M413.77-1604.14v-23.36h4.8v5.76l-.16,3.36h.1a4.32,4.32,0,0,1,1.53-2.7,4.84,4.84,0,0,1,3.11-1,5.17,5.17,0,0,1,4.11,1.79,7,7,0,0,1,1.55,4.77v11.36H424V-1615a3,3,0,0,0-.72-2.13,2.67,2.67,0,0,0-2-.75,2.59,2.59,0,0,0-2,.75,3,3,0,0,0-.71,2.13v10.88Z" transform="translate(-2.69 1680)" fill="#fff"/>
        <path d="M438.19-1603.82a5.94,5.94,0,0,1-4.21-1.44,5.08,5.08,0,0,1-1.55-3.9,4.85,4.85,0,0,1,1.84-4.08,8.5,8.5,0,0,1,5.29-1.43h3.65V-1616a2,2,0,0,0-.72-1.63,2.86,2.86,0,0,0-1.93-.61,3.19,3.19,0,0,0-1.86.51,2.11,2.11,0,0,0-.9,1.41h-4.64a5.92,5.92,0,0,1,2.32-4.21,8.43,8.43,0,0,1,5.24-1.55,8,8,0,0,1,5.32,1.65,5.45,5.45,0,0,1,2,4.43v11.84h-4.64V-1607h-.09a3.84,3.84,0,0,1-1.73,2.35A6.16,6.16,0,0,1,438.19-1603.82Zm1.79-3.52a3.53,3.53,0,0,0,2.32-.75,2.42,2.42,0,0,0,.91-2v-1.89h-3.55a2.46,2.46,0,0,0-1.76.63,2.11,2.11,0,0,0-.67,1.64A2.14,2.14,0,0,0,438-1608,3.09,3.09,0,0,0,440-1607.34Z" transform="translate(-2.69 1680)" fill="#fff"/>
        <path d="M452.68-1604.14v-17.6h4.48v3.36h.07c.57-2.45,2.22-3.68,4.93-3.68a5.82,5.82,0,0,1,4.52,1.76,7.06,7.06,0,0,1,1.62,5v1.44h-5.12V-1615a3.07,3.07,0,0,0-.78-2.24,2.84,2.84,0,0,0-2.1-.8,2.69,2.69,0,0,0-2.1.8,3.23,3.23,0,0,0-.72,2.24v10.88Z" transform="translate(-2.69 1680)" fill="#fff"/>
        <path d="M470.6-1604.14v-17.6h3.78v2.56h.19a3.43,3.43,0,0,1,.9-2.08,2.59,2.59,0,0,1,1.95-.8,2.6,2.6,0,0,1,1.93.8,3.79,3.79,0,0,1,1,2.08h.16a3.27,3.27,0,0,1,1-2.08,2.91,2.91,0,0,1,2.08-.8,3.17,3.17,0,0,1,2.58,1.25,5,5,0,0,1,1,3.23v13.44H483V-1617c0-1-.42-1.53-1.25-1.53s-1.25.51-1.25,1.53v12.9h-3.29V-1617c0-1-.42-1.53-1.25-1.53s-1.25.51-1.25,1.53v12.9Z" transform="translate(-2.69 1680)" fill="#fff"/>
      </g>
    </g>
    <g id="Icon">
      <g id="IconTextBackgroundBorder">
        <path id="IconTextBackgroundBorderMesh" d="M129.31-1678.61v0Z" transform="translate(-2.69 1680)" fill="none" stroke-miterlimit="10" stroke="url(#Безымянный_градиент_42)"/>
      </g>
      <g id="PyCharm">
        <polygon points="58.05 29 32.25 39.89 27.87 85.8 50.24 89.11 72.89 38.83 58.05 29" fill="#20d68e"/>
        <polygon points="82 43.97 98.21 57.52 80.35 93.84 60.65 67.64 82 43.97" fill="#0bc6e3"/>
        <polygon points="52.07 100 27.87 85.8 46.39 57.87 64.38 43.44 80.47 29.36 83.36 47.11 63.19 83.08 57.34 93.61 52.07 100" fill="url(#Безымянный_градиент_6)"/>
        <polygon points="48.28 91.59 53.43 67.4 83.9 61.42 89.93 59.12 98.75 92.54 77.21 99.7 48.28 91.59" fill="#f9f74b"/>
        <rect x="43.08" y="44.15" width="40.41" height="39.99" fill="#fff"/>
        <path d="M58.06-1627.69a2.68,2.68,0,0,0-1.9-.66H53.7v4.82h2.46a2.68,2.68,0,0,0,1.9-.66,2.28,2.28,0,0,0,.71-1.75A2.28,2.28,0,0,0,58.06-1627.69Zm0,0a2.68,2.68,0,0,0-1.9-.66H53.7v4.82h2.46a2.68,2.68,0,0,0,1.9-.66,2.28,2.28,0,0,0,.71-1.75A2.28,2.28,0,0,0,58.06-1627.69ZM44-1637.51v43.9h43.9v-43.9Zm6,5.8h6.19a7.34,7.34,0,0,1,3.34.72,5.28,5.28,0,0,1,2.21,2,5.66,5.66,0,0,1,.79,3,5.7,5.7,0,0,1-.8,3,5.42,5.42,0,0,1-2.21,2,7.29,7.29,0,0,1-3.33.72H53.7v6.61H50Zm14.61,32.6H48.13v-2.78H64.58Zm6.67-18.16a2.33,2.33,0,0,0,1.68.57,2.31,2.31,0,0,0,1.68-.57,2.1,2.1,0,0,0,.6-1.61h3.63a5.25,5.25,0,0,1-.74,2.8,5,5,0,0,1-2.06,1.86,6.73,6.73,0,0,1-3.11.67,6.77,6.77,0,0,1-3.1-.67,4.92,4.92,0,0,1-2.07-1.86,5.25,5.25,0,0,1-.74-2.8v-7.5a5.23,5.23,0,0,1,.74-2.81,5,5,0,0,1,2.07-1.85,6.77,6.77,0,0,1,3.1-.67A6.73,6.73,0,0,1,76-1631a5,5,0,0,1,2.06,1.85,5.23,5.23,0,0,1,.74,2.81H75.21a2.1,2.1,0,0,0-.6-1.62,2.31,2.31,0,0,0-1.68-.56,2.32,2.32,0,0,0-1.68.56,2.09,2.09,0,0,0-.59,1.62v7.5A2.1,2.1,0,0,0,71.25-1617.27Zm-13.19-6.92a2.28,2.28,0,0,0,.71-1.75,2.28,2.28,0,0,0-.71-1.75,2.68,2.68,0,0,0-1.9-.66H53.7v4.82h2.46A2.68,2.68,0,0,0,58.06-1624.19Z" transform="translate(-2.69 1680)"/>
      </g>
    </g>
  </g>
</svg>
