<svg xmlns="http://www.w3.org/2000/svg" xmlns:xlink="http://www.w3.org/1999/xlink" width="520.36" height="129" viewBox="0 0 520.36 129">
  <defs>
    <linearGradient id="Безымянный_градиент_160" data-name="Безымянный градиент 160" x1="128.62" y1="-1552.72" x2="128.62" y2="-1679.33" gradientUnits="userSpaceOnUse">
      <stop offset="0" stop-color="#865fc5" stop-opacity="0"/>
      <stop offset="0.01" stop-color="#865fc5" stop-opacity="0.06"/>
      <stop offset="0.05" stop-color="#865fc5" stop-opacity="0.28"/>
      <stop offset="0.09" stop-color="#865fc5" stop-opacity="0.47"/>
      <stop offset="0.14" stop-color="#865fc5" stop-opacity="0.64"/>
      <stop offset="0.19" stop-color="#865fc5" stop-opacity="0.77"/>
      <stop offset="0.24" stop-color="#865fc5" stop-opacity="0.87"/>
      <stop offset="0.3" stop-color="#865fc5" stop-opacity="0.94"/>
      <stop offset="0.38" stop-color="#865fc5" stop-opacity="0.99"/>
      <stop offset="0.5" stop-color="#865fc5"/>
      <stop offset="0.62" stop-color="#865fc5" stop-opacity="0.99"/>
      <stop offset="0.7" stop-color="#865fc5" stop-opacity="0.94"/>
      <stop offset="0.76" stop-color="#865fc5" stop-opacity="0.87"/>
      <stop offset="0.81" stop-color="#865fc5" stop-opacity="0.77"/>
      <stop offset="0.86" stop-color="#865fc5" stop-opacity="0.64"/>
      <stop offset="0.91" stop-color="#865fc5" stop-opacity="0.47"/>
      <stop offset="0.95" stop-color="#865fc5" stop-opacity="0.28"/>
      <stop offset="0.99" stop-color="#865fc5" stop-opacity="0.06"/>
      <stop offset="1" stop-color="#865fc5" stop-opacity="0"/>
    </linearGradient>
    <linearGradient id="Безымянный_градиент_15" data-name="Безымянный градиент 15" x1="327.36" y1="-1627.71" x2="413.87" y2="-1751.56" gradientUnits="userSpaceOnUse">
      <stop offset="0" stop-color="#539ffc"/>
      <stop offset="0.11" stop-color="#5a97f5"/>
      <stop offset="0.7" stop-color="#7a6ed2"/>
      <stop offset="1" stop-color="#865fc5"/>
    </linearGradient>
    <linearGradient id="Безымянный_градиент_151" data-name="Безымянный градиент 151" x1="336.71" y1="-1703.39" x2="306.48" y2="-1504.72" gradientUnits="userSpaceOnUse">
      <stop offset="0" stop-opacity="0"/>
      <stop offset="1"/>
    </linearGradient>
  </defs>
  <g style="isolation: isolate">
    <g id="IconBackground">
      <g id="IconBackgroundMesh">
        <path d="M27-1680.52a25,25,0,0,0-25,25v79a25,25,0,0,0,25,25H128.62v-129Z" transform="translate(-2 1680.52)"/>
      </g>
    </g>
    <g id="IconTextBackgroundBorder">
      <path id="IconTextBackgroundBorderMesh" d="M128.62-1679.33v0Z" transform="translate(-2 1680.52)" fill="none" stroke-miterlimit="10" stroke="url(#Безымянный_градиент_160)"/>
    </g>
    <g id="TextBackground">
      <g id="BudgetTextColorGradient">
        <path d="M497.36-1680.52H128v129H497.36a25,25,0,0,0,25-25v-79A25,25,0,0,0,497.36-1680.52Z" transform="translate(-2 1680.52)" fill="url(#Безымянный_градиент_15)"/>
      </g>
      <g id="BudgetTextVignette">
        <path d="M497.36-1680.52H128v129H497.36a25,25,0,0,0,25-25v-79A25,25,0,0,0,497.36-1680.52Z" transform="translate(-2 1680.52)" fill="url(#Безымянный_градиент_151)" style="mix-blend-mode: multiply"/>
      </g>
    </g>
    <g id="Text">
      <g id="Visual_Studio" data-name="Visual Studio" opacity="0.8">
        <path d="M162.87-1604.66,157.08-1628h5l3.23,14.75c.1.51.24,1.16.4,2s.28,1.46.37,2c.08-.56.19-1.23.32-2s.24-1.45.35-2l3.13-14.72h4.84L169-1604.66Z" transform="translate(-2 1680.52)" fill="#fff"/>
        <path d="M177.72-1604.66V-1609h6.07v-8.92h-5.27v-4.32h9.75V-1609h5.13v4.36Zm8-20.39a3.1,3.1,0,0,1-2.1-.67,2.3,2.3,0,0,1-.79-1.82,2.3,2.3,0,0,1,.79-1.83,3.1,3.1,0,0,1,2.1-.67,3.09,3.09,0,0,1,2.09.67,2.3,2.3,0,0,1,.79,1.83,2.3,2.3,0,0,1-.79,1.82A3.09,3.09,0,0,1,185.72-1625Z" transform="translate(-2 1680.52)" fill="#fff"/>
        <path d="M203.54-1604.34a9.74,9.74,0,0,1-3.81-.69,5.88,5.88,0,0,1-2.54-1.91,4.6,4.6,0,0,1-.92-2.84h4.8a1.42,1.42,0,0,0,.69,1.23,3.12,3.12,0,0,0,1.78.46H205c1.79,0,2.68-.61,2.68-1.82q0-1.5-2.49-1.83l-2-.25a9.85,9.85,0,0,1-4.8-1.6,4.34,4.34,0,0,1-1.5-3.62,4.79,4.79,0,0,1,1.76-4,8.15,8.15,0,0,1,5.15-1.4h1.22a8.59,8.59,0,0,1,5.15,1.4,4.46,4.46,0,0,1,1.92,3.78h-4.8a1.2,1.2,0,0,0-.63-1,3,3,0,0,0-1.64-.4H203.7a2.92,2.92,0,0,0-1.73.4,1.41,1.41,0,0,0-.54,1.2,1.33,1.33,0,0,0,.49,1.12,3.34,3.34,0,0,0,1.59.54l2.2.29a10.17,10.17,0,0,1,4.95,1.67,4.39,4.39,0,0,1,1.61,3.71,4.91,4.91,0,0,1-1.85,4.13,8.81,8.81,0,0,1-5.47,1.44Z" transform="translate(-2 1680.52)" fill="#fff"/>
        <path d="M223.47-1604.34a7.71,7.71,0,0,1-5.55-1.92,7,7,0,0,1-2-5.25v-10.75h4.8v10.72c0,2,.92,3,2.75,3a2.61,2.61,0,0,0,2-.79,3.2,3.2,0,0,0,.72-2.25v-10.72H231v10.75a6.9,6.9,0,0,1-2,5.26A7.74,7.74,0,0,1,223.47-1604.34Z" transform="translate(-2 1680.52)" fill="#fff"/>
        <path d="M240.4-1604.34a6,6,0,0,1-4.21-1.44,5.08,5.08,0,0,1-1.55-3.91,4.87,4.87,0,0,1,1.84-4.08,8.51,8.51,0,0,1,5.3-1.42h3.65v-1.31a2,2,0,0,0-.72-1.64,2.94,2.94,0,0,0-1.94-.6,3.19,3.19,0,0,0-1.86.51,2.1,2.1,0,0,0-.89,1.41h-4.64a5.83,5.83,0,0,1,2.32-4.21,8.34,8.34,0,0,1,5.23-1.55,8.08,8.08,0,0,1,5.33,1.64,5.5,5.5,0,0,1,2,4.44v11.84h-4.64v-2.88h-.1a3.83,3.83,0,0,1-1.73,2.35A6.2,6.2,0,0,1,240.4-1604.34Zm1.79-3.52a3.47,3.47,0,0,0,2.32-.76,2.41,2.41,0,0,0,.92-2v-1.89h-3.56a2.52,2.52,0,0,0-1.76.62,2.18,2.18,0,0,0-.67,1.65,2.11,2.11,0,0,0,.74,1.71A3,3,0,0,0,242.19-1607.86Z" transform="translate(-2 1680.52)" fill="#fff"/>
        <path d="M264.91-1604.66a6.53,6.53,0,0,1-3.26-.79,5.49,5.49,0,0,1-2.19-2.19,6.53,6.53,0,0,1-.79-3.26v-12.8h-5.6V-1628h10.4v17.12a1.89,1.89,0,0,0,.53,1.39,1.89,1.89,0,0,0,1.39.53h5v4.32Z" transform="translate(-2 1680.52)" fill="#fff"/>
        <path d="M300.27-1604.34a10.2,10.2,0,0,1-4.29-.84,6.49,6.49,0,0,1-2.81-2.33,6.31,6.31,0,0,1-1-3.55H297a2.21,2.21,0,0,0,.91,1.87,4,4,0,0,0,2.48.69,3.69,3.69,0,0,0,2.35-.68,2.2,2.2,0,0,0,.85-1.85,2.63,2.63,0,0,0-.64-1.76,3.25,3.25,0,0,0-1.79-1l-2.37-.55a8.49,8.49,0,0,1-4.63-2.61,6.83,6.83,0,0,1-1.64-4.65,6.21,6.21,0,0,1,2.08-4.91,8.16,8.16,0,0,1,5.63-1.84,8.53,8.53,0,0,1,5.68,1.77,6,6,0,0,1,2.09,4.79h-4.8a2.14,2.14,0,0,0-.78-1.76,3.46,3.46,0,0,0-2.26-.64,3.16,3.16,0,0,0-2.11.62,2.21,2.21,0,0,0-.73,1.78,2.62,2.62,0,0,0,.59,1.74,3,3,0,0,0,1.68,1l2.49.57a8.53,8.53,0,0,1,4.71,2.55,6.9,6.9,0,0,1,1.6,4.68,6.55,6.55,0,0,1-1,3.62,6.58,6.58,0,0,1-2.82,2.43A9.74,9.74,0,0,1,300.27-1604.34Z" transform="translate(-2 1680.52)" fill="#fff"/>
        <path d="M321.39-1604.66a5.71,5.71,0,0,1-4.22-1.54,5.67,5.67,0,0,1-1.54-4.22v-7.52H311v-4.32h4.64v-5h4.8v5H327v4.32h-6.56v7.52a1.27,1.27,0,0,0,1.44,1.44h4.8v4.32Z" transform="translate(-2 1680.52)" fill="#fff"/>
        <path d="M338.67-1604.34a7.67,7.67,0,0,1-5.55-1.92,7,7,0,0,1-2-5.25v-10.75h4.8v10.72c0,2,.91,3,2.75,3a2.6,2.6,0,0,0,2-.79,3.2,3.2,0,0,0,.72-2.25v-10.72h4.8v10.75a6.89,6.89,0,0,1-2,5.26A7.75,7.75,0,0,1,338.67-1604.34Z" transform="translate(-2 1680.52)" fill="#fff"/>
        <path d="M356.05-1604.34a5.33,5.33,0,0,1-4.26-1.86,7.41,7.41,0,0,1-1.6-5v-4.48a7.44,7.44,0,0,1,1.6-5,5.31,5.31,0,0,1,4.26-1.87,4.78,4.78,0,0,1,3.08,1,4.18,4.18,0,0,1,1.49,2.72h.1l-.16-4.32v-4.8h4.8v23.36h-4.64V-1608h-.1a4.2,4.2,0,0,1-1.49,2.72A4.78,4.78,0,0,1,356.05-1604.34Zm1.72-4.16a2.7,2.7,0,0,0,2.05-.76,2.91,2.91,0,0,0,.74-2.12v-4.16a2.92,2.92,0,0,0-.74-2.13,2.73,2.73,0,0,0-2.05-.75,2.73,2.73,0,0,0-2.06.75,3,3,0,0,0-.72,2.13v4.16a2.94,2.94,0,0,0,.72,2.12A2.69,2.69,0,0,0,357.77-1608.5Z" transform="translate(-2 1680.52)" fill="#fff"/>
        <path d="M369.71-1604.66V-1609h6.08v-8.92h-5.28v-4.32h9.76V-1609h5.12v4.36Zm8-20.39a3.1,3.1,0,0,1-2.1-.67,2.29,2.29,0,0,1-.78-1.82,2.3,2.3,0,0,1,.78-1.83,3.1,3.1,0,0,1,2.1-.67,3.09,3.09,0,0,1,2.09.67,2.27,2.27,0,0,1,.79,1.83,2.27,2.27,0,0,1-.79,1.82A3.09,3.09,0,0,1,377.71-1625Z" transform="translate(-2 1680.52)" fill="#fff"/>
        <path d="M396.27-1604.34a9,9,0,0,1-4.07-.88,6.45,6.45,0,0,1-2.67-2.47,7.06,7.06,0,0,1-.94-3.69v-4.16a7.09,7.09,0,0,1,.94-3.7,6.36,6.36,0,0,1,2.67-2.46,8.85,8.85,0,0,1,4.07-.88,8.77,8.77,0,0,1,4.08.88,6.37,6.37,0,0,1,2.65,2.46,7.1,7.1,0,0,1,.95,3.7v4.16a7.06,7.06,0,0,1-.95,3.69,6.45,6.45,0,0,1-2.65,2.47A8.9,8.9,0,0,1,396.27-1604.34Zm0-4.16a2.82,2.82,0,0,0,2.14-.76,2.91,2.91,0,0,0,.74-2.12v-4.16a2.92,2.92,0,0,0-.74-2.15,2.89,2.89,0,0,0-2.14-.73,2.91,2.91,0,0,0-2.13.73,2.88,2.88,0,0,0-.75,2.15v4.16a2.87,2.87,0,0,0,.75,2.12A2.85,2.85,0,0,0,396.27-1608.5Z" transform="translate(-2 1680.52)" fill="#fff"/>
        <path d="M434.79-1604.34a9.12,9.12,0,0,1-4.09-.88,6.64,6.64,0,0,1-2.74-2.47,6.89,6.89,0,0,1-1-3.69v-9.92a6.92,6.92,0,0,1,1-3.72,6.64,6.64,0,0,1,2.74-2.44,9,9,0,0,1,4.09-.88,9,9,0,0,1,4.12.88,6.64,6.64,0,0,1,2.72,2.44,6.92,6.92,0,0,1,1,3.72h-4.8a2.82,2.82,0,0,0-.78-2.15,3.14,3.14,0,0,0-2.23-.73,3.11,3.11,0,0,0-2.22.73,2.82,2.82,0,0,0-.78,2.15v9.92a2.81,2.81,0,0,0,.78,2.12,3,3,0,0,0,2.22.76,3.06,3.06,0,0,0,2.23-.76,2.81,2.81,0,0,0,.78-2.12h4.8a6.89,6.89,0,0,1-1,3.69,6.64,6.64,0,0,1-2.72,2.47A9.16,9.16,0,0,1,434.79-1604.34Z" transform="translate(-2 1680.52)" fill="#fff"/>
        <path d="M453.87-1604.34a8.94,8.94,0,0,1-4.07-.88,6.45,6.45,0,0,1-2.67-2.47,7.06,7.06,0,0,1-.94-3.69v-4.16a7.09,7.09,0,0,1,.94-3.7,6.36,6.36,0,0,1,2.67-2.46,8.82,8.82,0,0,1,4.07-.88,8.83,8.83,0,0,1,4.08.88,6.37,6.37,0,0,1,2.65,2.46,7.1,7.1,0,0,1,.95,3.7v4.16a7.06,7.06,0,0,1-.95,3.69,6.45,6.45,0,0,1-2.65,2.47A9,9,0,0,1,453.87-1604.34Zm0-4.16a2.84,2.84,0,0,0,2.14-.76,2.91,2.91,0,0,0,.74-2.12v-4.16a2.92,2.92,0,0,0-.74-2.15,2.91,2.91,0,0,0-2.14-.73,2.91,2.91,0,0,0-2.13.73,2.88,2.88,0,0,0-.75,2.15v4.16a2.87,2.87,0,0,0,.75,2.12A2.85,2.85,0,0,0,453.87-1608.5Z" transform="translate(-2 1680.52)" fill="#fff"/>
        <path d="M471.24-1604.34a5.35,5.35,0,0,1-4.26-1.86,7.47,7.47,0,0,1-1.6-5v-4.48a7.49,7.49,0,0,1,1.6-5,5.32,5.32,0,0,1,4.26-1.87,4.79,4.79,0,0,1,3.09,1,4.18,4.18,0,0,1,1.49,2.72h.09l-.16-4.32v-4.8h4.8v23.36h-4.64V-1608h-.09a4.2,4.2,0,0,1-1.49,2.72A4.79,4.79,0,0,1,471.24-1604.34Zm1.73-4.16a2.72,2.72,0,0,0,2-.76,2.9,2.9,0,0,0,.73-2.12v-4.16a2.91,2.91,0,0,0-.73-2.13,2.75,2.75,0,0,0-2-.75,2.7,2.7,0,0,0-2.06.75,2.91,2.91,0,0,0-.73,2.13v4.16a2.9,2.9,0,0,0,.73,2.12A2.67,2.67,0,0,0,473-1608.5Z" transform="translate(-2 1680.52)" fill="#fff"/>
        <path d="M492.3-1604.34a9,9,0,0,1-4.08-.88,6.38,6.38,0,0,1-2.69-2.47,7.06,7.06,0,0,1-.95-3.69v-4.16a7.1,7.1,0,0,1,.95-3.7,6.3,6.3,0,0,1,2.69-2.46,8.89,8.89,0,0,1,4.08-.88,8.69,8.69,0,0,1,4,.88,6.33,6.33,0,0,1,2.66,2.46,7.09,7.09,0,0,1,.94,3.7v3.2H489.16v1q0,3.36,3.2,3.36c1.52,0,2.42-.48,2.72-1.44h4.7a6.25,6.25,0,0,1-2.6,3.71A8.38,8.38,0,0,1,492.3-1604.34Zm-3.14-11.2v.48l6.21-.07v-.48c0-2.24-1-3.36-3.07-3.36a3,3,0,0,0-2.36.9A3.74,3.74,0,0,0,489.16-1615.54Z" transform="translate(-2 1680.52)" fill="#fff"/>
      </g>
    </g>
    <g id="Icon">
      <g id="VisualStudio">
        <polygon points="102 31.5 102 96.25 81.25 104.98 20.56 84.64 81.33 93.5 81.33 23.21 102 31.5" fill="#539ffc"/>
        <path d="M43-1618l18.9,18.57,11.2-4.71v-36.58l-11.2-4.76L43-1626.8l-11.2-8.57-4.8,1.43V-1611l4.64,1.56Zm18.86-14.19v19.52L49-1622.5Zm-30.18,3,6.77,6.77-6.77,6.76Z" transform="translate(-2 1680.52)" fill="#539ffc"/>
      </g>
    </g>
  </g>
</svg>
