<svg id="Слой_1" data-name="Слой 1" xmlns="http://www.w3.org/2000/svg" xmlns:xlink="http://www.w3.org/1999/xlink" width="126.62" height="129" viewBox="0 0 126.62 129">
  <defs>
    <linearGradient id="Безымянный_градиент_32" data-name="Безымянный градиент 32" x1="321.69" y1="-223.98" x2="-4.53" y2="140.24" gradientUnits="userSpaceOnUse">
      <stop offset="0" stop-color="#fff"/>
      <stop offset="0.45" stop-color="#8c8c8c"/>
      <stop offset="0.47" stop-color="#828282"/>
      <stop offset="0.55" stop-color="#5a5a5a"/>
      <stop offset="0.63" stop-color="#3a3a3a"/>
      <stop offset="0.72" stop-color="#202020"/>
      <stop offset="0.8" stop-color="#0e0e0e"/>
      <stop offset="0.9" stop-color="#030303"/>
      <stop offset="1"/>
    </linearGradient>
    <linearGradient id="Безымянный_градиент_114" data-name="Безымянный градиент 114" x1="287.66" y1="-348.82" x2="196.42" y2="-279.4" gradientUnits="userSpaceOnUse">
      <stop offset="0" stop-color="#5c2d91"/>
      <stop offset="0.31" stop-color="#5c2d91"/>
      <stop offset="0.55" stop-color="#5c2d91"/>
      <stop offset="1" stop-color="#000938"/>
    </linearGradient>
    <linearGradient id="Безымянный_градиент_14" data-name="Безымянный градиент 14" x1="285.34" y1="-362.79" x2="168.14" y2="-242.19" gradientUnits="userSpaceOnUse">
      <stop offset="0" stop-opacity="0"/>
      <stop offset="1"/>
    </linearGradient>
    <linearGradient id="Безымянный_градиент_59" data-name="Безымянный градиент 59" x1="288.58" y1="-366.54" x2="163.84" y2="-237.35" gradientUnits="userSpaceOnUse">
      <stop offset="0" stop-color="#999"/>
      <stop offset="0.09" stop-color="#959595"/>
      <stop offset="0.17" stop-color="#8a8a8a"/>
      <stop offset="0.24" stop-color="#777"/>
      <stop offset="0.32" stop-color="#5c5c5c"/>
      <stop offset="0.4" stop-color="#3a3a3a"/>
      <stop offset="0.47" stop-color="#101010"/>
      <stop offset="0.5"/>
    </linearGradient>
    <linearGradient id="Безымянный_градиент_48" data-name="Безымянный градиент 48" x1="288.75" y1="-365.91" x2="165.05" y2="-239.39" gradientUnits="userSpaceOnUse">
      <stop offset="0" stop-color="#999"/>
      <stop offset="0.12" stop-color="#717171"/>
      <stop offset="0.28" stop-color="#414141"/>
      <stop offset="0.42" stop-color="#1d1d1d"/>
      <stop offset="0.53" stop-color="#080808"/>
      <stop offset="0.6"/>
    </linearGradient>
  </defs>
  <g id="Badget">
    <rect id="IconBackgroundMesh" width="126.62" height="129" rx="25.43" fill="url(#Безымянный_градиент_32)"/>
    <path id="IconBackgroundMesh-2" data-name="IconBackgroundMesh" d="M188.91-366a24.64,24.64,0,0,0-24.62,24.65v77.91a24.64,24.64,0,0,0,24.62,24.65h75.47A24.64,24.64,0,0,0,289-263.44v-77.91A24.64,24.64,0,0,0,264.38-366Z" transform="translate(-163.34 366.9)" fill="url(#Безымянный_градиент_114)"/>
    <path id="IconBackgroundMesh-3" data-name="IconBackgroundMesh" d="M188.91-366a24.64,24.64,0,0,0-24.62,24.65v77.91a24.64,24.64,0,0,0,24.62,24.65h75.47A24.64,24.64,0,0,0,289-263.44v-77.91A24.64,24.64,0,0,0,264.38-366Z" transform="translate(-163.34 366.9)" fill="url(#Безымянный_градиент_14)"/>
    <path id="IconBackgroundMesh-4" data-name="IconBackgroundMesh" d="M264.53-365.9A24.46,24.46,0,0,1,289-341.47v78.15a24.45,24.45,0,0,1-24.43,24.42H188.76a24.44,24.44,0,0,1-24.42-24.42v-78.15a24.45,24.45,0,0,1,24.42-24.43h75.77m0-1H188.76a25.43,25.43,0,0,0-25.42,25.43v78.15a25.42,25.42,0,0,0,25.42,25.42h75.77A25.43,25.43,0,0,0,290-263.32v-78.15a25.44,25.44,0,0,0-25.43-25.43Z" transform="translate(-163.34 366.9)" fill="url(#Безымянный_градиент_59)"/>
    <path id="IconBackgroundMesh-5" data-name="IconBackgroundMesh" d="M264.38-365A23.66,23.66,0,0,1,288-341.35v77.91a23.66,23.66,0,0,1-23.62,23.65H188.91a23.66,23.66,0,0,1-23.62-23.65v-77.91A23.66,23.66,0,0,1,188.91-365h75.47m0-1H188.91a24.64,24.64,0,0,0-24.62,24.65v77.91a24.64,24.64,0,0,0,24.62,24.65h75.47A24.64,24.64,0,0,0,289-263.44v-77.91A24.64,24.64,0,0,0,264.38-366Z" transform="translate(-163.34 366.9)" fill="url(#Безымянный_градиент_48)"/>
  </g>
  <g id="DotNetCore">
    <g opacity="0.53">
      <circle cx="63.31" cy="64.5" r="36.27" fill="#5c2d91"/>
      <path d="M200.52-327.54a36.17,36.17,0,0,0-10.14,25.14,36.27,36.27,0,0,0,36.27,36.27,36.16,36.16,0,0,0,25.08-10.08c.33-.35.66-.69,1-1.05l-51.2-51.2C201.17-328.16,200.85-327.85,200.52-327.54Z" transform="translate(-163.34 366.9)" fill="#fff" opacity="0.1" style="isolation: isolate"/>
    </g>
    <g>
      <path d="M198.76-296.44a1.57,1.57,0,0,1-1.13-.48,1.56,1.56,0,0,1-.46-1.13,1.56,1.56,0,0,1,.46-1.14,1.52,1.52,0,0,1,1.13-.48,1.54,1.54,0,0,1,1.14.48,1.57,1.57,0,0,1,.47,1.14,1.53,1.53,0,0,1-.47,1.13A1.58,1.58,0,0,1,198.76-296.44Z" transform="translate(-163.34 366.9)" fill="#fff"/>
      <path d="M221.29-296.73h-3L207.7-313.21a6.28,6.28,0,0,1-.66-1.29H207a20.61,20.61,0,0,1,.11,2.83v14.94h-2.41v-20.66h3.14l10.33,16.18c.43.68.71,1.14.84,1.39H219a22.11,22.11,0,0,1-.15-3v-14.53h2.42Z" transform="translate(-163.34 366.9)" fill="#fff"/>
      <path d="M237.63-296.73h-11v-20.66h10.47v2.19h-8v6.87h7.45v2.17h-7.45V-299h8.52Z" transform="translate(-163.34 366.9)" fill="#fff"/>
      <path d="M253.85-315.2h-6v18.47h-2.41V-315.2h-5.94v-2.19h14.36Z" transform="translate(-163.34 366.9)" fill="#fff"/>
    </g>
    <g>
      <path d="M220-282.67a5.68,5.68,0,0,1-2.63.55,4.23,4.23,0,0,1-3.25-1.3,4.82,4.82,0,0,1-1.22-3.4,5,5,0,0,1,1.37-3.7,4.69,4.69,0,0,1,3.49-1.4,5.64,5.64,0,0,1,2.26.39v1.14a4.47,4.47,0,0,0-2.26-.57,3.5,3.5,0,0,0-2.67,1.13,4.19,4.19,0,0,0-1,2.93,3.94,3.94,0,0,0,1,2.78,3.27,3.27,0,0,0,2.5,1,4.69,4.69,0,0,0,2.48-.64Z" transform="translate(-163.34 366.9)" fill="#f2f2f2"/>
      <path d="M224.62-282.12a3.15,3.15,0,0,1-2.42-1,3.49,3.49,0,0,1-.89-2.52,3.66,3.66,0,0,1,.94-2.68,3.36,3.36,0,0,1,2.53-1,3,3,0,0,1,2.36.94,3.64,3.64,0,0,1,.85,2.59,3.67,3.67,0,0,1-.91,2.61A3.24,3.24,0,0,1,224.62-282.12Zm.08-6.2a2.11,2.11,0,0,0-1.66.72,3,3,0,0,0-.61,2,2.77,2.77,0,0,0,.61,1.9,2.1,2.1,0,0,0,1.66.7,2,2,0,0,0,1.62-.68,2.93,2.93,0,0,0,.56-1.94,3,3,0,0,0-.56-2A2,2,0,0,0,224.7-288.32Z" transform="translate(-163.34 366.9)" fill="#f2f2f2"/>
      <path d="M233.29-288a1.36,1.36,0,0,0-.83-.21,1.37,1.37,0,0,0-1.13.65,3.07,3.07,0,0,0-.47,1.79v3.47h-1.13v-6.8h1.13v1.42h0a2.34,2.34,0,0,1,.72-1.13,1.59,1.59,0,0,1,1.06-.4,1.8,1.8,0,0,1,.65.09Z" transform="translate(-163.34 366.9)" fill="#f2f2f2"/>
      <path d="M239.93-285.39h-4.79a2.51,2.51,0,0,0,.57,1.74,2.11,2.11,0,0,0,1.61.61,3.33,3.33,0,0,0,2.11-.76v1a3.91,3.91,0,0,1-2.37.65,2.88,2.88,0,0,1-2.26-.93,3.79,3.79,0,0,1-.83-2.61,3.75,3.75,0,0,1,.89-2.58,2.9,2.9,0,0,1,2.27-1,2.6,2.6,0,0,1,2.06.86,3.65,3.65,0,0,1,.73,2.41Zm-1.13-.92a2.25,2.25,0,0,0-.46-1.46,1.55,1.55,0,0,0-1.24-.53,1.79,1.79,0,0,0-1.31.56,2.51,2.51,0,0,0-.67,1.44Z" transform="translate(-163.34 366.9)" fill="#f2f2f2"/>
    </g>
  </g>
</svg>
