<svg id="Слой_1" data-name="Слой 1" xmlns="http://www.w3.org/2000/svg" xmlns:xlink="http://www.w3.org/1999/xlink" width="126.62" height="129" viewBox="0 0 126.62 129">
  <defs>
    <linearGradient id="Безымянный_градиент_32" data-name="Безымянный градиент 32" x1="321.69" y1="-223.98" x2="-4.53" y2="140.24" gradientUnits="userSpaceOnUse">
      <stop offset="0" stop-color="#fff"/>
      <stop offset="0.45" stop-color="#8c8c8c"/>
      <stop offset="0.47" stop-color="#828282"/>
      <stop offset="0.55" stop-color="#5a5a5a"/>
      <stop offset="0.63" stop-color="#3a3a3a"/>
      <stop offset="0.72" stop-color="#202020"/>
      <stop offset="0.8" stop-color="#0e0e0e"/>
      <stop offset="0.9" stop-color="#030303"/>
      <stop offset="1"/>
    </linearGradient>
    <linearGradient id="Безымянный_градиент_114" data-name="Безымянный градиент 114" x1="287.66" y1="-348.82" x2="196.42" y2="-279.4" gradientUnits="userSpaceOnUse">
      <stop offset="0" stop-color="#5c2d91"/>
      <stop offset="0.31" stop-color="#5c2d91"/>
      <stop offset="0.55" stop-color="#5c2d91"/>
      <stop offset="1" stop-color="#000938"/>
    </linearGradient>
    <linearGradient id="Безымянный_градиент_14" data-name="Безымянный градиент 14" x1="285.34" y1="-362.79" x2="168.14" y2="-242.19" gradientUnits="userSpaceOnUse">
      <stop offset="0" stop-opacity="0"/>
      <stop offset="1"/>
    </linearGradient>
    <linearGradient id="Безымянный_градиент_59" data-name="Безымянный градиент 59" x1="288.58" y1="-366.54" x2="163.84" y2="-237.35" gradientUnits="userSpaceOnUse">
      <stop offset="0" stop-color="#999"/>
      <stop offset="0.09" stop-color="#959595"/>
      <stop offset="0.17" stop-color="#8a8a8a"/>
      <stop offset="0.24" stop-color="#777"/>
      <stop offset="0.32" stop-color="#5c5c5c"/>
      <stop offset="0.4" stop-color="#3a3a3a"/>
      <stop offset="0.47" stop-color="#101010"/>
      <stop offset="0.5"/>
    </linearGradient>
    <linearGradient id="Безымянный_градиент_48" data-name="Безымянный градиент 48" x1="288.75" y1="-365.91" x2="165.05" y2="-239.39" gradientUnits="userSpaceOnUse">
      <stop offset="0" stop-color="#999"/>
      <stop offset="0.12" stop-color="#717171"/>
      <stop offset="0.28" stop-color="#414141"/>
      <stop offset="0.42" stop-color="#1d1d1d"/>
      <stop offset="0.53" stop-color="#080808"/>
      <stop offset="0.6"/>
    </linearGradient>
  </defs>
  <g id="Badget">
    <rect id="IconBackgroundMesh" width="126.62" height="129" rx="25.43" fill="url(#Безымянный_градиент_32)"/>
    <path id="IconBackgroundMesh-2" data-name="IconBackgroundMesh" d="M188.91-366a24.64,24.64,0,0,0-24.62,24.65v77.91a24.64,24.64,0,0,0,24.62,24.65h75.47A24.64,24.64,0,0,0,289-263.44v-77.91A24.64,24.64,0,0,0,264.38-366Z" transform="translate(-163.34 366.9)" fill="url(#Безымянный_градиент_114)"/>
    <path id="IconBackgroundMesh-3" data-name="IconBackgroundMesh" d="M188.91-366a24.64,24.64,0,0,0-24.62,24.65v77.91a24.64,24.64,0,0,0,24.62,24.65h75.47A24.64,24.64,0,0,0,289-263.44v-77.91A24.64,24.64,0,0,0,264.38-366Z" transform="translate(-163.34 366.9)" fill="url(#Безымянный_градиент_14)"/>
    <path id="IconBackgroundMesh-4" data-name="IconBackgroundMesh" d="M264.53-365.9A24.46,24.46,0,0,1,289-341.47v78.15a24.45,24.45,0,0,1-24.43,24.42H188.76a24.44,24.44,0,0,1-24.42-24.42v-78.15a24.45,24.45,0,0,1,24.42-24.43h75.77m0-1H188.76a25.43,25.43,0,0,0-25.42,25.43v78.15a25.42,25.42,0,0,0,25.42,25.42h75.77A25.43,25.43,0,0,0,290-263.32v-78.15a25.44,25.44,0,0,0-25.43-25.43Z" transform="translate(-163.34 366.9)" fill="url(#Безымянный_градиент_59)"/>
    <path id="IconBackgroundMesh-5" data-name="IconBackgroundMesh" d="M264.38-365A23.66,23.66,0,0,1,288-341.35v77.91a23.66,23.66,0,0,1-23.62,23.65H188.91a23.66,23.66,0,0,1-23.62-23.65v-77.91A23.66,23.66,0,0,1,188.91-365h75.47m0-1H188.91a24.64,24.64,0,0,0-24.62,24.65v77.91a24.64,24.64,0,0,0,24.62,24.65h75.47A24.64,24.64,0,0,0,289-263.44v-77.91A24.64,24.64,0,0,0,264.38-366Z" transform="translate(-163.34 366.9)" fill="url(#Безымянный_градиент_48)"/>
  </g>
  <g>
    <rect x="27.17" y="28.36" width="72.28" height="72.28" rx="36.14" fill="#68217a"/>
    <path d="M252.2-276.84a36,36,0,0,1-25.55,10.58,36.14,36.14,0,0,1-36.14-36.14,36,36,0,0,1,10.58-25.55Z" transform="translate(-163.34 366.9)" fill="#fff" opacity="0.1"/>
    <g>
      <g>
        <path d="M217.77-307.82v-16.51h9.09V-323h-7.6v5.86h6.81v1.36h-6.81v6.59h7.6v1.35Z" transform="translate(-163.34 366.9)" fill="#fff"/>
        <path d="M229.42-307.82v-16.51h9.46V-323h-8v6.16h7.29v1.38h-7.27v7.62Z" transform="translate(-163.34 366.9)" fill="#fff"/>
      </g>
      <g>
        <path d="M234.31-299.51a3.66,3.66,0,0,0-2.15.61,3.14,3.14,0,0,0-1.2,1.7v-2.08h-1.47v12.44H231v-8.05a3.56,3.56,0,0,1,.8-2.47,2.86,2.86,0,0,1,2.23-.88,3.28,3.28,0,0,1,1.52.33v-1.46A5.3,5.3,0,0,0,234.31-299.51Z" transform="translate(-163.34 366.9)" fill="#fff"/>
        <path d="M241.29-286.61a4.54,4.54,0,0,1-3.38-1.25,4.57,4.57,0,0,1-1.24-3.36v-3.67a4.57,4.57,0,0,1,1.25-3.36,4.52,4.52,0,0,1,3.37-1.26,4.48,4.48,0,0,1,3.34,1.26,4.6,4.6,0,0,1,1.23,3.36v2.17h-7.72v1.5a3.48,3.48,0,0,0,.82,2.44,3,3,0,0,0,2.33.88,3.52,3.52,0,0,0,2-.53,2.59,2.59,0,0,0,1.05-1.5h1.5a3.83,3.83,0,0,1-1.51,2.43A5,5,0,0,1,241.29-286.61Zm-3.15-7.31h6.25v-1a3.59,3.59,0,0,0-.8-2.46,3,3,0,0,0-2.3-.89,3,3,0,0,0-2.33.88,3.52,3.52,0,0,0-.82,2.47Z" transform="translate(-163.34 366.9)" fill="#fff"/>
        <line x1="72.19" y1="68.98" x2="72.19" y2="67.52" fill="#fff"/>
        <circle cx="57.01" cy="73.52" r="4.53" fill="#40ccf4"/>
        <path d="M228.53-285.42a11.38,11.38,0,0,1-8.18,3.46,11.41,11.41,0,0,1-11.41-11.41,11.41,11.41,0,0,1,11.41-11.41,11.33,11.33,0,0,1,7.94,3.23l1.07-1.07a12.86,12.86,0,0,0-9-3.67,12.93,12.93,0,0,0-12.92,12.92,12.92,12.92,0,0,0,12.92,12.91,12.88,12.88,0,0,0,9.25-3.9Z" transform="translate(-163.34 366.9)" fill="#fff"/>
      </g>
    </g>
    <line x1="88.86" y1="90.05" x2="37.76" y2="38.95" fill="none"/>
  </g>
</svg>
