<svg id="Слой_1" data-name="Слой 1" xmlns="http://www.w3.org/2000/svg" xmlns:xlink="http://www.w3.org/1999/xlink" width="126.62" height="129" viewBox="0 0 126.62 129">
  <defs>
    <linearGradient id="Безымянный_градиент_32" data-name="Безымянный градиент 32" x1="321.69" y1="-223.98" x2="-4.53" y2="140.24" gradientUnits="userSpaceOnUse">
      <stop offset="0" stop-color="#fff"/>
      <stop offset="0.45" stop-color="#8c8c8c"/>
      <stop offset="0.47" stop-color="#828282"/>
      <stop offset="0.55" stop-color="#5a5a5a"/>
      <stop offset="0.63" stop-color="#3a3a3a"/>
      <stop offset="0.72" stop-color="#202020"/>
      <stop offset="0.8" stop-color="#0e0e0e"/>
      <stop offset="0.9" stop-color="#030303"/>
      <stop offset="1"/>
    </linearGradient>
    <linearGradient id="Безымянный_градиент_62" data-name="Безымянный градиент 62" x1="287.05" y1="-370.08" x2="134.75" y2="-199.42" gradientUnits="userSpaceOnUse">
      <stop offset="0" stop-color="#fb9200"/>
      <stop offset="0.05" stop-color="#c9841d"/>
      <stop offset="0.11" stop-color="#9b7639"/>
      <stop offset="0.16" stop-color="#716a51"/>
      <stop offset="0.23" stop-color="#4e6066"/>
      <stop offset="0.29" stop-color="#325877"/>
      <stop offset="0.36" stop-color="#1c5284"/>
      <stop offset="0.43" stop-color="#0c4d8d"/>
      <stop offset="0.52" stop-color="#034b92"/>
      <stop offset="0.64" stop-color="#004a94"/>
      <stop offset="0.77" stop-color="#004a94"/>
      <stop offset="0.82" stop-color="#254263"/>
      <stop offset="0.86" stop-color="#433b3a"/>
      <stop offset="0.88" stop-color="#4f382b"/>
      <stop offset="1" stop-color="#50382b"/>
    </linearGradient>
    <linearGradient id="Безымянный_градиент_14" data-name="Безымянный градиент 14" x1="285.34" y1="-362.79" x2="168.14" y2="-242.19" gradientUnits="userSpaceOnUse">
      <stop offset="0" stop-opacity="0"/>
      <stop offset="1"/>
    </linearGradient>
    <linearGradient id="Безымянный_градиент_59" data-name="Безымянный градиент 59" x1="288.58" y1="-366.54" x2="163.84" y2="-237.35" gradientUnits="userSpaceOnUse">
      <stop offset="0" stop-color="#999"/>
      <stop offset="0.09" stop-color="#959595"/>
      <stop offset="0.17" stop-color="#8a8a8a"/>
      <stop offset="0.24" stop-color="#777"/>
      <stop offset="0.32" stop-color="#5c5c5c"/>
      <stop offset="0.4" stop-color="#3a3a3a"/>
      <stop offset="0.47" stop-color="#101010"/>
      <stop offset="0.5"/>
    </linearGradient>
    <linearGradient id="Безымянный_градиент_48" data-name="Безымянный градиент 48" x1="288.75" y1="-365.91" x2="165.05" y2="-239.39" gradientUnits="userSpaceOnUse">
      <stop offset="0" stop-color="#999"/>
      <stop offset="0.12" stop-color="#717171"/>
      <stop offset="0.28" stop-color="#414141"/>
      <stop offset="0.42" stop-color="#1d1d1d"/>
      <stop offset="0.53" stop-color="#080808"/>
      <stop offset="0.6"/>
    </linearGradient>
  </defs>
  <g id="Badget">
    <rect id="IconBackgroundMesh" width="126.62" height="129" rx="25.43" fill="url(#Безымянный_градиент_32)"/>
    <g id="IconBackgroundMesh-2" data-name="IconBackgroundMesh" opacity="0.4">
      <path d="M188.91-366a24.64,24.64,0,0,0-24.62,24.65v77.91a24.64,24.64,0,0,0,24.62,24.65h75.47A24.64,24.64,0,0,0,289-263.44v-77.91A24.64,24.64,0,0,0,264.38-366Z" transform="translate(-163.34 366.9)" fill="url(#Безымянный_градиент_62)"/>
    </g>
    <path id="IconBackgroundMesh-3" data-name="IconBackgroundMesh" d="M188.91-366a24.64,24.64,0,0,0-24.62,24.65v77.91a24.64,24.64,0,0,0,24.62,24.65h75.47A24.64,24.64,0,0,0,289-263.44v-77.91A24.64,24.64,0,0,0,264.38-366Z" transform="translate(-163.34 366.9)" fill="url(#Безымянный_градиент_14)"/>
    <path id="IconBackgroundMesh-4" data-name="IconBackgroundMesh" d="M264.53-365.9A24.46,24.46,0,0,1,289-341.47v78.15a24.45,24.45,0,0,1-24.43,24.42H188.76a24.44,24.44,0,0,1-24.42-24.42v-78.15a24.45,24.45,0,0,1,24.42-24.43h75.77m0-1H188.76a25.43,25.43,0,0,0-25.42,25.43v78.15a25.42,25.42,0,0,0,25.42,25.42h75.77A25.43,25.43,0,0,0,290-263.32v-78.15a25.44,25.44,0,0,0-25.43-25.43Z" transform="translate(-163.34 366.9)" fill="url(#Безымянный_градиент_59)"/>
    <path id="IconBackgroundMesh-5" data-name="IconBackgroundMesh" d="M264.38-365A23.66,23.66,0,0,1,288-341.35v77.91a23.66,23.66,0,0,1-23.62,23.65H188.91a23.66,23.66,0,0,1-23.62-23.65v-77.91A23.66,23.66,0,0,1,188.91-365h75.47m0-1H188.91a24.64,24.64,0,0,0-24.62,24.65v77.91a24.64,24.64,0,0,0,24.62,24.65h75.47A24.64,24.64,0,0,0,289-263.44v-77.91A24.64,24.64,0,0,0,264.38-366Z" transform="translate(-163.34 366.9)" fill="url(#Безымянный_градиент_48)"/>
  </g>
  <g id="Python">
    <g>
      <path d="M226.65-348.29c-11.7,0-19.42,4.85-19.42,9.49V-324h19.42v2.2H190.24c-4.64,0-9.49,7.73-9.49,19.42S185.6-283,190.24-283H205v-9.24a11.3,11.3,0,0,1,11.29-11.29H237a9.09,9.09,0,0,0,9.08-9.09v-16h0V-338.8C246.07-343.44,238.34-348.29,226.65-348.29Z" transform="translate(-163.34 366.9)" fill="#004a94"/>
      <circle cx="52.79" cy="31.69" r="2.8" fill="#fff"/>
    </g>
    <g>
      <path d="M263.05-321.81H248.27v9.22A11.3,11.3,0,0,1,237-301.3H216.31a9.1,9.1,0,0,0-9.09,9.09V-282h0v16c0,4.64,7.72,9.49,19.42,9.49s19.42-4.85,19.42-9.49v-14.78H226.65V-283h36.4c4.64,0,9.49-7.73,9.49-19.43S267.69-321.81,263.05-321.81Z" transform="translate(-163.34 366.9)" fill="#fb9200"/>
      <circle cx="73.83" cy="97.31" r="2.8" fill="#fff"/>
    </g>
  </g>
</svg>
