<svg id="Слой_1" data-name="Слой 1" xmlns="http://www.w3.org/2000/svg" xmlns:xlink="http://www.w3.org/1999/xlink" width="126.84" height="129" viewBox="0 0 126.84 129">
  <defs>
    <linearGradient id="Безымянный_градиент_32" data-name="Безымянный градиент 32" x1="321.69" y1="-223.98" x2="-4.53" y2="140.24" gradientUnits="userSpaceOnUse">
      <stop offset="0" stop-color="#fff"/>
      <stop offset="0.45" stop-color="#8c8c8c"/>
      <stop offset="0.47" stop-color="#828282"/>
      <stop offset="0.55" stop-color="#5a5a5a"/>
      <stop offset="0.63" stop-color="#3a3a3a"/>
      <stop offset="0.72" stop-color="#202020"/>
      <stop offset="0.8" stop-color="#0e0e0e"/>
      <stop offset="0.9" stop-color="#030303"/>
      <stop offset="1"/>
    </linearGradient>
    <linearGradient id="Безымянный_градиент_19" data-name="Безымянный градиент 19" x1="335.53" y1="-410.02" x2="164.28" y2="-238.76" gradientUnits="userSpaceOnUse">
      <stop offset="0" stop-color="#f9f74b"/>
      <stop offset="0.23" stop-color="#ace46c"/>
      <stop offset="0.51" stop-color="#34d985"/>
      <stop offset="0.68" stop-color="#20d68e"/>
      <stop offset="0.96" stop-color="#192bc7"/>
    </linearGradient>
    <linearGradient id="Безымянный_градиент_14" data-name="Безымянный градиент 14" x1="285.34" y1="-362.79" x2="168.14" y2="-242.19" gradientUnits="userSpaceOnUse">
      <stop offset="0" stop-opacity="0"/>
      <stop offset="1"/>
    </linearGradient>
    <linearGradient id="Безымянный_градиент_59" data-name="Безымянный градиент 59" x1="288.58" y1="-366.54" x2="163.84" y2="-237.35" gradientUnits="userSpaceOnUse">
      <stop offset="0" stop-color="#999"/>
      <stop offset="0.09" stop-color="#959595"/>
      <stop offset="0.17" stop-color="#8a8a8a"/>
      <stop offset="0.24" stop-color="#777"/>
      <stop offset="0.32" stop-color="#5c5c5c"/>
      <stop offset="0.4" stop-color="#3a3a3a"/>
      <stop offset="0.47" stop-color="#101010"/>
      <stop offset="0.5"/>
    </linearGradient>
    <linearGradient id="Безымянный_градиент_48" data-name="Безымянный градиент 48" x1="288.75" y1="-365.91" x2="165.05" y2="-239.39" gradientUnits="userSpaceOnUse">
      <stop offset="0" stop-color="#999"/>
      <stop offset="0.12" stop-color="#717171"/>
      <stop offset="0.28" stop-color="#414141"/>
      <stop offset="0.42" stop-color="#1d1d1d"/>
      <stop offset="0.53" stop-color="#080808"/>
      <stop offset="0.6"/>
    </linearGradient>
    <linearGradient id="Безымянный_градиент_4" data-name="Безымянный градиент 4" x1="213.56" y1="402.47" x2="216.85" y2="424.42" gradientTransform="matrix(1, 0, 0, -1, -163.34, 499.9)" gradientUnits="userSpaceOnUse">
      <stop offset="0" stop-color="#34d985"/>
      <stop offset="0.13" stop-color="#39da84"/>
      <stop offset="0.29" stop-color="#48db81"/>
      <stop offset="0.46" stop-color="#60dd7c"/>
      <stop offset="0.5" stop-color="#66de7b"/>
      <stop offset="0.67" stop-color="#7be077"/>
      <stop offset="1" stop-color="#ace46c"/>
    </linearGradient>
  </defs>
  <g id="Badget">
    <rect id="IconBackgroundMesh" width="126.62" height="129" rx="25.43" fill="url(#Безымянный_градиент_32)"/>
    <g id="IconBackgroundMesh-2">
      <path d="M190.09-365.91a24.63,24.63,0,0,0-24.62,24.65v77.91a24.64,24.64,0,0,0,24.62,24.65h75.47a24.65,24.65,0,0,0,24.62-24.65v-77.91a24.64,24.64,0,0,0-24.62-24.65Z" transform="translate(-163.34 366.9)" fill="url(#Безымянный_градиент_19)"/>
    </g>
    <path id="IconBackgroundMesh-2-2" data-name="IconBackgroundMesh" d="M188.91-366a24.64,24.64,0,0,0-24.62,24.65v77.91a24.64,24.64,0,0,0,24.62,24.65h75.47A24.64,24.64,0,0,0,289-263.44v-77.91A24.64,24.64,0,0,0,264.38-366Z" transform="translate(-163.34 366.9)" fill="url(#Безымянный_градиент_14)"/>
    <path id="IconBackgroundMesh-3" data-name="IconBackgroundMesh" d="M264.53-365.9A24.46,24.46,0,0,1,289-341.47v78.15a24.45,24.45,0,0,1-24.43,24.42H188.76a24.44,24.44,0,0,1-24.42-24.42v-78.15a24.45,24.45,0,0,1,24.42-24.43h75.77m0-1H188.76a25.43,25.43,0,0,0-25.42,25.43v78.15a25.42,25.42,0,0,0,25.42,25.42h75.77A25.43,25.43,0,0,0,290-263.32v-78.15a25.44,25.44,0,0,0-25.43-25.43Z" transform="translate(-163.34 366.9)" fill="url(#Безымянный_градиент_59)"/>
    <path id="IconBackgroundMesh-4" data-name="IconBackgroundMesh" d="M264.38-365A23.66,23.66,0,0,1,288-341.35v77.91a23.66,23.66,0,0,1-23.62,23.65H188.91a23.66,23.66,0,0,1-23.62-23.65v-77.91A23.66,23.66,0,0,1,188.91-365h75.47m0-1H188.91a24.64,24.64,0,0,0-24.62,24.65v77.91a24.64,24.64,0,0,0,24.62,24.65h75.47A24.64,24.64,0,0,0,289-263.44v-77.91A24.64,24.64,0,0,0,264.38-366Z" transform="translate(-163.34 366.9)" fill="url(#Безымянный_градиент_48)"/>
  </g>
  <g id="PyCharm">
    <polygon points="57.55 24.89 28.77 37.04 23.88 88.26 48.84 91.96 74.11 35.86 57.55 24.89" fill="#20d68e"/>
    <polygon points="84.27 41.6 102.36 56.71 82.43 97.23 60.45 68 84.27 41.6" fill="#0bc6e3"/>
    <polygon points="50.88 104.11 23.88 88.26 44.54 57.1 64.61 41.01 82.56 25.3 85.79 45.1 63.29 85.23 56.76 96.98 50.88 104.11" fill="url(#Безымянный_градиент_4)"/>
    <polygon points="46.65 94.72 52.4 67.73 86.39 61.06 93.12 58.5 102.96 95.78 78.93 103.77 46.65 94.72" fill="#f9f74b"/>
    <rect x="40.85" y="41.8" width="45.08" height="44.61" fill="#fff"/>
    <path d="M217.9-316a3,3,0,0,0-2.12-.74H213v5.38h2.75a3,3,0,0,0,2.12-.74,2.57,2.57,0,0,0,.79-2A2.54,2.54,0,0,0,217.9-316Zm0,0a3,3,0,0,0-2.12-.74H213v5.38h2.75a3,3,0,0,0,2.12-.74,2.57,2.57,0,0,0,.79-2A2.54,2.54,0,0,0,217.9-316Zm-15.69-11v49h49v-49Zm6.7,6.47h6.9a8.27,8.27,0,0,1,3.73.8,5.91,5.91,0,0,1,2.46,2.24,6.34,6.34,0,0,1,.89,3.34,6.45,6.45,0,0,1-.9,3.35,6,6,0,0,1-2.46,2.23,8.1,8.1,0,0,1-3.72.8H213v7.38h-4.12Zm16.3,36.37H206.82v-3.1h18.35Zm7.44-20.26a2.61,2.61,0,0,0,1.87.64,2.63,2.63,0,0,0,1.88-.64,2.36,2.36,0,0,0,.67-1.8h4.05a6,6,0,0,1-.83,3.13A5.61,5.61,0,0,1,238-301a7.44,7.44,0,0,1-3.47.75,7.55,7.55,0,0,1-3.46-.75,5.5,5.5,0,0,1-2.31-2.07,5.94,5.94,0,0,1-.82-3.13v-8.36a5.86,5.86,0,0,1,.82-3.14,5.54,5.54,0,0,1,2.31-2.06,7.55,7.55,0,0,1,3.46-.75,7.64,7.64,0,0,1,3.39.79,5.55,5.55,0,0,1,2.3,2.07,5.83,5.83,0,0,1,.83,3.13h-4a2.35,2.35,0,0,0-.67-1.81,2.59,2.59,0,0,0-1.87-.62,2.63,2.63,0,0,0-1.88.62,2.33,2.33,0,0,0-.65,1.81v8.37a2.32,2.32,0,0,0,.65,1.75Zm-14.72-7.72a2.5,2.5,0,0,0,.79-2,2.47,2.47,0,0,0-.79-1.95,2.94,2.94,0,0,0-2.12-.74H213v5.38h2.75a3,3,0,0,0,2.12-.74Z" transform="translate(-163.34 366.9)"/>
  </g>
</svg>
