<svg id="Слой_1" data-name="Слой 1" xmlns="http://www.w3.org/2000/svg" xmlns:xlink="http://www.w3.org/1999/xlink" width="126.84" height="129" viewBox="0 0 126.84 129">
  <defs>
    <linearGradient id="Безымянный_градиент_32" data-name="Безымянный градиент 32" x1="321.69" y1="-223.98" x2="-4.53" y2="140.24" gradientUnits="userSpaceOnUse">
      <stop offset="0" stop-color="#fff"/>
      <stop offset="0.45" stop-color="#8c8c8c"/>
      <stop offset="0.47" stop-color="#828282"/>
      <stop offset="0.55" stop-color="#5a5a5a"/>
      <stop offset="0.63" stop-color="#3a3a3a"/>
      <stop offset="0.72" stop-color="#202020"/>
      <stop offset="0.8" stop-color="#0e0e0e"/>
      <stop offset="0.9" stop-color="#030303"/>
      <stop offset="1"/>
    </linearGradient>
    <linearGradient id="Безымянный_градиент_13" data-name="Безымянный градиент 13" x1="308.87" y1="-383.35" x2="137.61" y2="-212.09" gradientUnits="userSpaceOnUse">
      <stop offset="0" stop-color="#430217"/>
      <stop offset="0.3" stop-color="#280524"/>
      <stop offset="0.8" stop-color="#0b0833"/>
      <stop offset="1" stop-color="#000938"/>
    </linearGradient>
    <linearGradient id="Безымянный_градиент_14" data-name="Безымянный градиент 14" x1="285.34" y1="-362.79" x2="168.14" y2="-242.19" gradientUnits="userSpaceOnUse">
      <stop offset="0" stop-opacity="0"/>
      <stop offset="1"/>
    </linearGradient>
    <linearGradient id="Безымянный_градиент_59" data-name="Безымянный градиент 59" x1="288.58" y1="-366.54" x2="163.84" y2="-237.35" gradientUnits="userSpaceOnUse">
      <stop offset="0" stop-color="#999"/>
      <stop offset="0.09" stop-color="#959595"/>
      <stop offset="0.17" stop-color="#8a8a8a"/>
      <stop offset="0.24" stop-color="#777"/>
      <stop offset="0.32" stop-color="#5c5c5c"/>
      <stop offset="0.4" stop-color="#3a3a3a"/>
      <stop offset="0.47" stop-color="#101010"/>
      <stop offset="0.5"/>
    </linearGradient>
    <linearGradient id="Безымянный_градиент_48" data-name="Безымянный градиент 48" x1="288.75" y1="-365.91" x2="165.05" y2="-239.39" gradientUnits="userSpaceOnUse">
      <stop offset="0" stop-color="#999"/>
      <stop offset="0.12" stop-color="#717171"/>
      <stop offset="0.28" stop-color="#414141"/>
      <stop offset="0.42" stop-color="#1d1d1d"/>
      <stop offset="0.53" stop-color="#080808"/>
      <stop offset="0.6"/>
    </linearGradient>
    <linearGradient id="Безымянный_градиент_4" data-name="Безымянный градиент 4" x1="224.08" y1="398.16" x2="203.08" y2="489.76" gradientTransform="matrix(1, 0, 0, -1, -163.34, 499.9)" gradientUnits="userSpaceOnUse">
      <stop offset="0" stop-color="#ffb300"/>
      <stop offset="0.07" stop-color="#fc9c0d"/>
      <stop offset="0.23" stop-color="#f76f26"/>
      <stop offset="0.39" stop-color="#f3493a"/>
      <stop offset="0.55" stop-color="#f02c4a"/>
      <stop offset="0.7" stop-color="#ee1756"/>
      <stop offset="0.85" stop-color="#ec0a5d"/>
      <stop offset="1" stop-color="#ec065f"/>
    </linearGradient>
    <linearGradient id="Безымянный_градиент_5" data-name="Безымянный градиент 5" x1="211.03" y1="443.96" x2="266.85" y2="443.96" gradientTransform="matrix(1, 0, 0, -1, -163.34, 499.9)" gradientUnits="userSpaceOnUse">
      <stop offset="0" stop-color="#ffb300"/>
      <stop offset="0.02" stop-color="#fda10a"/>
      <stop offset="0.07" stop-color="#f97d1e"/>
      <stop offset="0.13" stop-color="#f65d2f"/>
      <stop offset="0.19" stop-color="#f3413e"/>
      <stop offset="0.26" stop-color="#f02b4a"/>
      <stop offset="0.35" stop-color="#ee1a54"/>
      <stop offset="0.45" stop-color="#ed0f5a"/>
      <stop offset="0.6" stop-color="#ec085e"/>
      <stop offset="1" stop-color="#ec065f"/>
    </linearGradient>
    <linearGradient id="Безымянный_градиент_6" data-name="Безымянный градиент 6" x1="186.17" y1="509.97" x2="280.22" y2="347.07" gradientTransform="matrix(1, 0, 0, -1, -163.34, 499.9)" gradientUnits="userSpaceOnUse">
      <stop offset="0" stop-color="#007fff"/>
      <stop offset="0.2" stop-color="#027efe"/>
      <stop offset="0.27" stop-color="#097bfa"/>
      <stop offset="0.32" stop-color="#1476f4"/>
      <stop offset="0.36" stop-color="#256eea"/>
      <stop offset="0.39" stop-color="#3b64de"/>
      <stop offset="0.42" stop-color="#5758cf"/>
      <stop offset="0.45" stop-color="#7749bd"/>
      <stop offset="0.47" stop-color="#9c39a8"/>
      <stop offset="0.5" stop-color="#c52692"/>
      <stop offset="0.5" stop-color="#ca248f"/>
      <stop offset="0.5" stop-color="#c52692"/>
      <stop offset="0.53" stop-color="#9c39a8"/>
      <stop offset="0.55" stop-color="#7749bd"/>
      <stop offset="0.58" stop-color="#5758cf"/>
      <stop offset="0.61" stop-color="#3b64de"/>
      <stop offset="0.64" stop-color="#256eea"/>
      <stop offset="0.68" stop-color="#1476f4"/>
      <stop offset="0.73" stop-color="#097bfa"/>
      <stop offset="0.8" stop-color="#027efe"/>
      <stop offset="1" stop-color="#007fff"/>
    </linearGradient>
  </defs>
  <g id="Badget">
    <rect id="IconBackgroundMesh" width="126.62" height="129" rx="25.43" fill="url(#Безымянный_градиент_32)"/>
    <g id="IconBackgroundMesh-2">
      <path d="M190.09-365.91a24.63,24.63,0,0,0-24.62,24.65v77.91a24.64,24.64,0,0,0,24.62,24.65h75.47a24.65,24.65,0,0,0,24.62-24.65v-77.91a24.64,24.64,0,0,0-24.62-24.65Z" transform="translate(-163.34 366.9)" fill="url(#Безымянный_градиент_13)"/>
    </g>
    <path id="IconBackgroundMesh-2-2" data-name="IconBackgroundMesh" d="M188.91-366a24.64,24.64,0,0,0-24.62,24.65v77.91a24.64,24.64,0,0,0,24.62,24.65h75.47A24.64,24.64,0,0,0,289-263.44v-77.91A24.64,24.64,0,0,0,264.38-366Z" transform="translate(-163.34 366.9)" fill="url(#Безымянный_градиент_14)"/>
    <path id="IconBackgroundMesh-3" data-name="IconBackgroundMesh" d="M264.53-365.9A24.46,24.46,0,0,1,289-341.47v78.15a24.45,24.45,0,0,1-24.43,24.42H188.76a24.44,24.44,0,0,1-24.42-24.42v-78.15a24.45,24.45,0,0,1,24.42-24.43h75.77m0-1H188.76a25.43,25.43,0,0,0-25.42,25.43v78.15a25.42,25.42,0,0,0,25.42,25.42h75.77A25.43,25.43,0,0,0,290-263.32v-78.15a25.44,25.44,0,0,0-25.43-25.43Z" transform="translate(-163.34 366.9)" fill="url(#Безымянный_градиент_59)"/>
    <path id="IconBackgroundMesh-4" data-name="IconBackgroundMesh" d="M264.38-365A23.66,23.66,0,0,1,288-341.35v77.91a23.66,23.66,0,0,1-23.62,23.65H188.91a23.66,23.66,0,0,1-23.62-23.65v-77.91A23.66,23.66,0,0,1,188.91-365h75.47m0-1H188.91a24.64,24.64,0,0,0-24.62,24.65v77.91a24.64,24.64,0,0,0,24.62,24.65h75.47A24.64,24.64,0,0,0,289-263.44v-77.91A24.64,24.64,0,0,0,264.38-366Z" transform="translate(-163.34 366.9)" fill="url(#Безымянный_градиент_48)"/>
  </g>
  <g id="Icon">
    <polygon points="23.33 40.76 31.98 96.03 54.77 104.59 83.86 82.8 47.7 24.41 23.33 40.76" fill="url(#Безымянный_градиент_4)"/>
    <polygon points="89.36 84.35 103.51 55.55 47.7 24.41 87 87.47 89.36 84.35" fill="url(#Безымянный_градиент_5)"/>
    <polygon points="49.27 89.8 79.93 104.59 103.51 91.36 74.43 25.19 47.7 53.21 49.27 89.8" fill="url(#Безымянный_градиент_6)"/>
    <rect x="40.63" y="44.65" width="46.38" height="42.04" fill="#fff"/>
    <path d="M225.18-283.32H206.32v-3.89h18.86ZM217.91-316a4.52,4.52,0,0,0-2.77-.78h-3.07v5.54h3.07a4.65,4.65,0,0,0,2.77-.72,2.3,2.3,0,0,0,1-2A2.43,2.43,0,0,0,217.91-316Zm0,0a4.52,4.52,0,0,0-2.77-.78h-3.07v5.54h3.07a4.65,4.65,0,0,0,2.77-.72,2.3,2.3,0,0,0,1-2A2.43,2.43,0,0,0,217.91-316ZM200.79-327.7v50.61H252.7V-327.7Zm18,28-4.22-7.87h-2.47v7.87h-5.34v-20.82h8.41a13.76,13.76,0,0,1,4.84.78,7.2,7.2,0,0,1,3.16,2.2,5.29,5.29,0,0,1,1.13,3.36,5.84,5.84,0,0,1-1.24,3.63,6.94,6.94,0,0,1-3.35,2.33l4.94,8.57Zm26.84-6.7a5.77,5.77,0,0,1-1.13,3.51,7.25,7.25,0,0,1-3.16,2.33,12,12,0,0,1-4.74.84h-8.44V-320.5h8.48a12.43,12.43,0,0,1,4.74.82,7.38,7.38,0,0,1,3.15,2.34,5.76,5.76,0,0,1,1.13,3.52Zm-6.37-9.38a4.32,4.32,0,0,0-2.66-.74h-3.11v12.83h3.11a4.32,4.32,0,0,0,2.66-.74,2.37,2.37,0,0,0,1-2v-7.45a2.33,2.33,0,0,0-1-1.93ZM217.91-316a4.52,4.52,0,0,0-2.77-.78h-3.07v5.54h3.07a4.65,4.65,0,0,0,2.77-.72,2.3,2.3,0,0,0,1-2A2.43,2.43,0,0,0,217.91-316Z" transform="translate(-163.34 366.9)"/>
  </g>
</svg>
