<svg id="Слой_1" data-name="Слой 1" xmlns="http://www.w3.org/2000/svg" xmlns:xlink="http://www.w3.org/1999/xlink" width="126.84" height="129" viewBox="0 0 126.84 129">
  <defs>
    <linearGradient id="Безымянный_градиент_32" data-name="Безымянный градиент 32" x1="321.69" y1="-223.98" x2="-4.53" y2="140.24" gradientUnits="userSpaceOnUse">
      <stop offset="0" stop-color="#fff"/>
      <stop offset="0.45" stop-color="#8c8c8c"/>
      <stop offset="0.47" stop-color="#828282"/>
      <stop offset="0.55" stop-color="#5a5a5a"/>
      <stop offset="0.63" stop-color="#3a3a3a"/>
      <stop offset="0.72" stop-color="#202020"/>
      <stop offset="0.8" stop-color="#0e0e0e"/>
      <stop offset="0.9" stop-color="#030303"/>
      <stop offset="1"/>
    </linearGradient>
    <linearGradient id="Безымянный_градиент_71" data-name="Безымянный градиент 71" x1="351.71" y1="-405.79" x2="148.45" y2="-236.01" gradientUnits="userSpaceOnUse">
      <stop offset="0" stop-color="#76c8da"/>
      <stop offset="0.3" stop-color="#76c8da"/>
      <stop offset="0.54" stop-color="#43c7de"/>
      <stop offset="0.78" stop-color="#1ac6e2"/>
      <stop offset="1" stop-color="#0bc6e3"/>
    </linearGradient>
    <linearGradient id="Безымянный_градиент_14" data-name="Безымянный градиент 14" x1="285.34" y1="-362.79" x2="168.14" y2="-242.19" gradientUnits="userSpaceOnUse">
      <stop offset="0" stop-opacity="0"/>
      <stop offset="1"/>
    </linearGradient>
    <linearGradient id="Безымянный_градиент_59" data-name="Безымянный градиент 59" x1="288.58" y1="-366.54" x2="163.84" y2="-237.35" gradientUnits="userSpaceOnUse">
      <stop offset="0" stop-color="#999"/>
      <stop offset="0.09" stop-color="#959595"/>
      <stop offset="0.17" stop-color="#8a8a8a"/>
      <stop offset="0.24" stop-color="#777"/>
      <stop offset="0.32" stop-color="#5c5c5c"/>
      <stop offset="0.4" stop-color="#3a3a3a"/>
      <stop offset="0.47" stop-color="#101010"/>
      <stop offset="0.5"/>
    </linearGradient>
    <linearGradient id="Безымянный_градиент_48" data-name="Безымянный градиент 48" x1="288.75" y1="-365.91" x2="165.05" y2="-239.39" gradientUnits="userSpaceOnUse">
      <stop offset="0" stop-color="#999"/>
      <stop offset="0.12" stop-color="#717171"/>
      <stop offset="0.28" stop-color="#414141"/>
      <stop offset="0.42" stop-color="#1d1d1d"/>
      <stop offset="0.53" stop-color="#080808"/>
      <stop offset="0.6"/>
    </linearGradient>
  </defs>
  <g id="Badget">
    <rect id="IconBackgroundMesh" width="126.62" height="129" rx="25.43" fill="url(#Безымянный_градиент_32)"/>
    <g id="IconBackgroundMesh-2">
      <path d="M190.09-365.91a24.63,24.63,0,0,0-24.62,24.65v77.91a24.64,24.64,0,0,0,24.62,24.65h75.47a24.65,24.65,0,0,0,24.62-24.65v-77.91a24.64,24.64,0,0,0-24.62-24.65Z" transform="translate(-163.34 366.9)" fill="url(#Безымянный_градиент_71)"/>
    </g>
    <path id="IconBackgroundMesh-2-2" data-name="IconBackgroundMesh" d="M188.91-366a24.64,24.64,0,0,0-24.62,24.65v77.91a24.64,24.64,0,0,0,24.62,24.65h75.47A24.64,24.64,0,0,0,289-263.44v-77.91A24.64,24.64,0,0,0,264.38-366Z" transform="translate(-163.34 366.9)" fill="url(#Безымянный_градиент_14)"/>
    <path id="IconBackgroundMesh-3" data-name="IconBackgroundMesh" d="M264.53-365.9A24.46,24.46,0,0,1,289-341.47v78.15a24.45,24.45,0,0,1-24.43,24.42H188.76a24.44,24.44,0,0,1-24.42-24.42v-78.15a24.45,24.45,0,0,1,24.42-24.43h75.77m0-1H188.76a25.43,25.43,0,0,0-25.42,25.43v78.15a25.42,25.42,0,0,0,25.42,25.42h75.77A25.43,25.43,0,0,0,290-263.32v-78.15a25.44,25.44,0,0,0-25.43-25.43Z" transform="translate(-163.34 366.9)" fill="url(#Безымянный_градиент_59)"/>
    <path id="IconBackgroundMesh-4" data-name="IconBackgroundMesh" d="M264.38-365A23.66,23.66,0,0,1,288-341.35v77.91a23.66,23.66,0,0,1-23.62,23.65H188.91a23.66,23.66,0,0,1-23.62-23.65v-77.91A23.66,23.66,0,0,1,188.91-365h75.47m0-1H188.91a24.64,24.64,0,0,0-24.62,24.65v77.91a24.64,24.64,0,0,0,24.62,24.65h75.47A24.64,24.64,0,0,0,289-263.44v-77.91A24.64,24.64,0,0,0,264.38-366Z" transform="translate(-163.34 366.9)" fill="url(#Безымянный_градиент_48)"/>
  </g>
  <g id="Photoshop">
    <path d="M190.65-278.24v-49.1c16.26,0,24.32-.16,27.7.74a12.83,12.83,0,0,1,7.06,4.81c3.68,4.78,3.52,12.83,1.21,17.16a14,14,0,0,1-9.31,7.17c-4.36.86-10.81.7-16.75.7v18.52ZM200.56-319v13.93c10.05,0,14,.33,16.36-3.18a7,7,0,0,0-.45-8.24C214-319.3,211.21-319,200.56-319Z" transform="translate(-163.34 366.9)" fill="#76c8da"/>
    <path d="M229.59-288.38l9.44-1.44c.88,4,3.58,5.59,7.6,5.59,3.07,0,6.74-.77,6.74-3.85,0-2.07-1.74-2.53-3.82-3q-11.38-2.52-14.44-4.59a9.16,9.16,0,0,1-4.22-8,9.85,9.85,0,0,1,3.65-7.77q3.66-3.15,11.32-3.15c7.78,0,13.57,1.87,15.75,9.41l-8.88,1.62a5.49,5.49,0,0,0-2.16-3.18c-2.42-1.68-8-1.28-9.86-.06a2.11,2.11,0,0,0-.81,2.88,2.13,2.13,0,0,0,.67.73c2.73,2,14.37,2.74,19.29,6.83a8.68,8.68,0,0,1,3,7,10.79,10.79,0,0,1-4.08,8.41q-4.09,3.51-12.1,3.52-7.26,0-11.5-3A13.57,13.57,0,0,1,229.59-288.38Z" transform="translate(-163.34 366.9)" fill="#76c8da"/>
  </g>
</svg>
