<?xml version="1.0" encoding="utf-8"?>
<!-- Generator: Adobe Illustrator 24.1.2, SVG Export Plug-In . SVG Version: 6.00 Build 0)  -->
<svg version="1.1" id="Слой_1" xmlns="http://www.w3.org/2000/svg" xmlns:xlink="http://www.w3.org/1999/xlink" x="0px" y="0px"
	 width="525px" height="133px" viewBox="0 0 525 133" enable-background="new 0 0 525 133" xml:space="preserve">
<g>
	<path d="M27.227,1.716c-13.807,0-25,11.193-25,25v79c0,13.807,11.193,25,25,25h101.62v-129H27.227z"/>
</g>
<g>
	<linearGradient id="SVGID_1_" gradientUnits="userSpaceOnUse" x1="61.2862" y1="112.0428" x2="34.318" y2="-5.6095">
		<stop  offset="0" style="stop-color:#FFB300"/>
		<stop  offset="0.0706" style="stop-color:#FC9C0D"/>
		<stop  offset="0.2291" style="stop-color:#F76F26"/>
		<stop  offset="0.3884" style="stop-color:#F3493A"/>
		<stop  offset="0.5461" style="stop-color:#F02C4A"/>
		<stop  offset="0.7017" style="stop-color:#EE1756"/>
		<stop  offset="0.8541" style="stop-color:#EC0A5D"/>
		<stop  offset="1" style="stop-color:#EC065F"/>
	</linearGradient>
	<polygon fill="url(#SVGID_1_)" points="13.227,33.716 24.335,104.716 53.619,115.716 90.982,87.716 44.531,12.716 	"/>
	<linearGradient id="SVGID_5_" gradientUnits="userSpaceOnUse" x1="44.531" y1="53.2164" x2="116.2271" y2="53.2164">
		<stop  offset="0" style="stop-color:#FFB300"/>
		<stop  offset="0.0215" style="stop-color:#FDA10A"/>
		<stop  offset="0.0725" style="stop-color:#F97D1E"/>
		<stop  offset="0.1299" style="stop-color:#F65D2F"/>
		<stop  offset="0.1933" style="stop-color:#F3413E"/>
		<stop  offset="0.2649" style="stop-color:#F02B4A"/>
		<stop  offset="0.3486" style="stop-color:#EE1A54"/>
		<stop  offset="0.4521" style="stop-color:#ED0F5A"/>
		<stop  offset="0.5972" style="stop-color:#EC085E"/>
		<stop  offset="1" style="stop-color:#EC065F"/>
	</linearGradient>
	<polygon fill="url(#SVGID_5_)" points="98.051,89.716 116.227,52.716 44.531,12.716 95.021,93.716 	"/>
	<linearGradient id="SVGID_6_" gradientUnits="userSpaceOnUse" x1="12.5943" y1="-31.582" x2="133.4033" y2="177.6652">
		<stop  offset="0" style="stop-color:#007FFF"/>
		<stop  offset="0.1952" style="stop-color:#027EFE"/>
		<stop  offset="0.2656" style="stop-color:#097BFA"/>
		<stop  offset="0.3157" style="stop-color:#1476F4"/>
		<stop  offset="0.3563" style="stop-color:#256EEA"/>
		<stop  offset="0.391" style="stop-color:#3B64DE"/>
		<stop  offset="0.4218" style="stop-color:#5758CF"/>
		<stop  offset="0.4496" style="stop-color:#7749BD"/>
		<stop  offset="0.4748" style="stop-color:#9C39A8"/>
		<stop  offset="0.4976" style="stop-color:#C52692"/>
		<stop  offset="0.5" style="stop-color:#CA248F"/>
		<stop  offset="0.5024" style="stop-color:#C52692"/>
		<stop  offset="0.5252" style="stop-color:#9C39A8"/>
		<stop  offset="0.5504" style="stop-color:#7749BD"/>
		<stop  offset="0.5782" style="stop-color:#5758CF"/>
		<stop  offset="0.609" style="stop-color:#3B64DE"/>
		<stop  offset="0.6437" style="stop-color:#256EEA"/>
		<stop  offset="0.6843" style="stop-color:#1476F4"/>
		<stop  offset="0.7344" style="stop-color:#097BFA"/>
		<stop  offset="0.8048" style="stop-color:#027EFE"/>
		<stop  offset="1" style="stop-color:#007FFF"/>
	</linearGradient>
	<polygon fill="url(#SVGID_6_)" points="46.551,96.716 85.933,115.716 116.227,98.716 78.864,13.716 44.531,49.716 	"/>
	<rect x="35.443" y="38.716" fill="#FFFFFF" width="59.578" height="54"/>
	<path d="M62.707,88.716H38.472v-5h24.235V88.716z M53.367,46.696c-0.838-0.64-2.03-0.96-3.565-0.96h-3.948v7.11h3.948
		c1.535,0,2.726-0.31,3.565-0.92c0.838-0.61,1.262-1.46,1.262-2.56C54.629,48.216,54.205,47.326,53.367,46.696z M53.367,46.696
		c-0.838-0.64-2.03-0.96-3.565-0.96h-3.948v7.11h3.948c1.535,0,2.726-0.31,3.565-0.92c0.838-0.61,1.262-1.46,1.262-2.56
		C54.629,48.216,54.205,47.326,53.367,46.696z M31.404,31.716v65h66.647v-65H31.404z M54.498,67.716l-5.423-10.11h-3.221v10.11
		h-6.846v-26.74h10.795c2.393,0,4.463,0.33,6.21,0.99c1.747,0.66,3.1,1.6,4.07,2.82c0.959,1.22,1.444,2.66,1.444,4.32
		c0,1.74-0.525,3.29-1.585,4.66c-1.06,1.36-2.494,2.35-4.302,2.96l6.342,10.99H54.498z M88.962,59.106c0,1.71-0.485,3.21-1.444,4.51
		c-0.969,1.29-2.312,2.3-4.049,3.02c-1.727,0.72-3.756,1.08-6.089,1.08H66.484v-26.74H77.38c2.333,0,4.362,0.36,6.089,1.06
		c1.737,0.71,3.08,1.71,4.049,2.99c0.959,1.28,1.444,2.79,1.444,4.52V59.106z M80.783,47.057c-0.858-0.63-1.989-0.95-3.403-0.95
		h-3.999v16.48h3.999c1.414,0,2.545-0.31,3.403-0.95c0.858-0.63,1.282-1.48,1.282-2.53v-9.56
		C82.065,48.526,81.641,47.696,80.783,47.057z M53.367,46.696c-0.838-0.64-2.03-0.96-3.565-0.96h-3.948v7.11h3.948
		c1.535,0,2.726-0.31,3.565-0.92c0.838-0.61,1.262-1.46,1.262-2.56C54.629,48.216,54.205,47.326,53.367,46.696z"/>
</g>
<linearGradient id="SVGID_7_" gradientUnits="userSpaceOnUse" x1="128.8471" y1="129.4043" x2="128.8471" y2="2.7964">
	<stop  offset="0" style="stop-color:#003580;stop-opacity:0"/>
	<stop  offset="0.0318" style="stop-color:#004397;stop-opacity:0.0636"/>
	<stop  offset="0.0839" style="stop-color:#0056B7;stop-opacity:0.1678"/>
	<stop  offset="0.1407" style="stop-color:#0066D1;stop-opacity:0.2813"/>
	<stop  offset="0.2028" style="stop-color:#0072E6;stop-opacity:0.4056"/>
	<stop  offset="0.2731" style="stop-color:#007AF4;stop-opacity:0.5462"/>
	<stop  offset="0.3583" style="stop-color:#007FFC;stop-opacity:0.7166"/>
	<stop  offset="0.5" style="stop-color:#0081FF"/>
	<stop  offset="0.6413" style="stop-color:#007FFC;stop-opacity:0.7173"/>
	<stop  offset="0.7263" style="stop-color:#007BF4;stop-opacity:0.5474"/>
	<stop  offset="0.7964" style="stop-color:#0072E6;stop-opacity:0.4072"/>
	<stop  offset="0.8584" style="stop-color:#0066D1;stop-opacity:0.2832"/>
	<stop  offset="0.915" style="stop-color:#0056B7;stop-opacity:0.1699"/>
	<stop  offset="0.967" style="stop-color:#004497;stop-opacity:0.0659"/>
	<stop  offset="1" style="stop-color:#00357F;stop-opacity:0"/>
</linearGradient>
<path opacity="0.5" fill="none" stroke="url(#SVGID_7_)" stroke-miterlimit="10" d="M128.847,2.796v126.608V2.796z"/>
<g>
	<g>
		<linearGradient id="SVGID_8_" gradientUnits="userSpaceOnUse" x1="301.1943" y1="93.2146" x2="387.7129" y2="-30.6373">
			<stop  offset="0" style="stop-color:#000938"/>
			<stop  offset="0.2446" style="stop-color:#0B0833"/>
			<stop  offset="0.6739" style="stop-color:#280524"/>
			<stop  offset="1" style="stop-color:#430217"/>
		</linearGradient>
		<path fill="url(#SVGID_8_)" d="M498.227,1.716h-369.38v129h369.38c13.807,0,25-11.193,25-25v-79
			C523.227,12.909,512.034,1.716,498.227,1.716z"/>
	</g>
	<g>
		<linearGradient id="SVGID_9_" gradientUnits="userSpaceOnUse" x1="326.7697" y1="1.3033" x2="324.9919" y2="128.7107">
			<stop  offset="0" style="stop-color:#FFFFFF"/>
			<stop  offset="0.1818" style="stop-color:#E7E7E7"/>
			<stop  offset="0.3048" style="stop-color:#D4D4D4"/>
			<stop  offset="0.396" style="stop-color:#D0D0D0"/>
			<stop  offset="0.4914" style="stop-color:#C3C3C3"/>
			<stop  offset="0.5888" style="stop-color:#AEAEAE"/>
			<stop  offset="0.6876" style="stop-color:#919191"/>
			<stop  offset="0.7875" style="stop-color:#6B6B6B"/>
			<stop  offset="0.8882" style="stop-color:#3D3D3D"/>
			<stop  offset="0.9879" style="stop-color:#070707"/>
			<stop  offset="1" style="stop-color:#000000"/>
		</linearGradient>
		<path fill="url(#SVGID_9_)" d="M498.227,1.716h-369.38v129h369.38c13.807,0,25-11.193,25-25v-79
			C523.227,12.909,512.034,1.716,498.227,1.716z"/>
	</g>
</g>
<g>
	<g>
		<defs>
			<path id="SVGID_2_" d="M189.692,75.832c-2.47,0-4.429-0.671-5.878-2.013c-1.449-1.342-2.174-3.151-2.174-5.427h4.831
				c0,0.988,0.29,1.777,0.87,2.367c0.58,0.591,1.363,0.886,2.351,0.886c0.987,0,1.771-0.284,2.351-0.854
				c0.58-0.569,0.87-1.347,0.87-2.335V56.474h-6.603v-4.509h11.434v16.491c0,2.276-0.72,4.074-2.158,5.395
				C194.147,75.171,192.182,75.832,189.692,75.832z M210.013,75.799c-1.568,0-2.937-0.295-4.107-0.886
				c-1.171-0.59-2.072-1.417-2.706-2.48c-0.634-1.063-0.95-2.303-0.95-3.72v-4.187c0-1.417,0.317-2.657,0.95-3.72
				c0.633-1.063,1.535-1.889,2.706-2.48c1.17-0.59,2.539-0.886,4.107-0.886c1.567,0,2.926,0.295,4.074,0.886
				c1.148,0.591,2.04,1.417,2.673,2.48c0.633,1.063,0.95,2.303,0.95,3.72v3.221h-10.855v0.966c0,2.255,1.073,3.382,3.221,3.382
				c1.524,0,2.437-0.483,2.738-1.449h4.735c-0.387,1.546-1.262,2.792-2.625,3.736C213.561,75.327,211.924,75.799,210.013,75.799z
				 M206.857,64.526v0.483l6.249-0.064v-0.483c0-2.255-1.031-3.382-3.092-3.382c-1.052,0-1.841,0.301-2.367,0.902
				C207.12,62.583,206.857,63.431,206.857,64.526z M231.237,75.477c-1.804,0-3.221-0.515-4.252-1.546
				c-1.031-1.031-1.546-2.448-1.546-4.252v-7.569h-4.67v-4.348h4.67V52.77h4.831v4.992h6.603v4.348h-6.603v7.569
				c0,0.966,0.483,1.449,1.449,1.449h4.831v4.348H231.237z M250.471,75.799c-1.267,0-2.303-0.322-3.108-0.966
				c-0.805-0.644-1.305-1.557-1.498-2.738h-0.097v3.382h-4.67V51.965h4.831v4.831l-0.161,4.348h0.097
				c0.193-1.181,0.692-2.094,1.498-2.738c0.805-0.644,1.841-0.966,3.108-0.966c1.782,0,3.21,0.628,4.284,1.884
				c1.073,1.256,1.61,2.937,1.61,5.041v4.509c0,2.126-0.537,3.812-1.61,5.057C253.681,75.177,252.253,75.799,250.471,75.799z
				 M248.732,71.612c0.902,0,1.594-0.252,2.077-0.757c0.483-0.504,0.725-1.218,0.725-2.142v-4.187c0-0.923-0.242-1.637-0.725-2.142
				c-0.483-0.504-1.176-0.757-2.077-0.757c-0.881,0-1.568,0.253-2.061,0.757c-0.494,0.505-0.741,1.219-0.741,2.142v4.187
				c0,0.923,0.247,1.638,0.741,2.142C247.164,71.36,247.851,71.612,248.732,71.612z M260.937,75.477V57.762h4.509v3.382h0.064
				c0.58-2.469,2.233-3.704,4.96-3.704c1.954,0,3.473,0.591,4.558,1.772c1.084,1.181,1.627,2.845,1.627,4.992v1.449h-5.153v-1.127
				c0-0.966-0.263-1.718-0.789-2.255c-0.526-0.536-1.229-0.805-2.11-0.805c-0.924,0-1.627,0.269-2.11,0.805
				c-0.483,0.537-0.725,1.288-0.725,2.255v10.951H260.937z M284.995,75.799c-1.783,0-3.194-0.483-4.236-1.449
				c-1.042-0.966-1.562-2.276-1.562-3.93c0-1.782,0.617-3.151,1.852-4.107c1.235-0.955,3.012-1.433,5.331-1.433h3.672V63.56
				c0-0.687-0.242-1.235-0.725-1.643c-0.483-0.408-1.133-0.612-1.949-0.612c-0.752,0-1.374,0.172-1.868,0.515
				c-0.494,0.344-0.795,0.816-0.902,1.417h-4.67c0.193-1.782,0.971-3.194,2.335-4.236c1.363-1.041,3.119-1.562,5.266-1.562
				c2.255,0,4.042,0.553,5.363,1.659c1.321,1.106,1.981,2.593,1.981,4.461v11.917h-4.67v-2.899h-0.097
				c-0.258,1.01-0.837,1.799-1.739,2.367C287.475,75.515,286.347,75.799,284.995,75.799z M286.798,72.256
				c0.945,0,1.723-0.252,2.335-0.757c0.612-0.504,0.918-1.165,0.918-1.981v-1.9h-3.575c-0.73,0-1.321,0.209-1.771,0.628
				c-0.451,0.419-0.676,0.972-0.676,1.659c0,0.73,0.247,1.304,0.741,1.723C285.263,72.047,285.939,72.256,286.798,72.256z
				 M299.197,75.477v-4.38h6.12v-8.986h-5.315v-4.348h9.824v13.335h5.153v4.38H299.197z M307.249,54.96
				c-0.881,0-1.584-0.225-2.11-0.676c-0.526-0.451-0.789-1.063-0.789-1.836c0-0.773,0.263-1.385,0.789-1.836
				c0.526-0.451,1.229-0.676,2.11-0.676c0.88,0,1.583,0.225,2.11,0.676c0.526,0.451,0.789,1.063,0.789,1.836
				c0,0.773-0.263,1.385-0.789,1.836C308.832,54.735,308.129,54.96,307.249,54.96z M318.399,75.477V57.762h4.67v3.382h0.097
				c0.214-1.138,0.73-2.04,1.546-2.706c0.816-0.665,1.857-0.998,3.124-0.998c1.718,0,3.097,0.601,4.139,1.804
				c1.041,1.203,1.562,2.802,1.562,4.799v11.434h-4.831V64.526c0-0.923-0.242-1.637-0.725-2.142
				c-0.483-0.504-1.154-0.757-2.013-0.757c-0.859,0-1.53,0.253-2.013,0.757c-0.483,0.505-0.725,1.219-0.725,2.142v10.951H318.399z
				 M344.518,75.799c-1.461,0-2.738-0.231-3.833-0.692c-1.095-0.462-1.949-1.1-2.561-1.916c-0.612-0.816-0.918-1.771-0.918-2.867
				h4.831c0,0.515,0.23,0.929,0.693,1.24c0.461,0.312,1.057,0.467,1.788,0.467h1.417c1.804,0,2.706-0.612,2.706-1.836
				c0-1.009-0.837-1.621-2.512-1.836l-2.061-0.258c-2.212-0.279-3.822-0.816-4.831-1.61c-1.01-0.794-1.514-2.008-1.514-3.64
				c0-1.718,0.59-3.049,1.772-3.994c1.181-0.945,2.909-1.417,5.186-1.417h1.224c2.169,0,3.897,0.473,5.186,1.417
				c1.288,0.945,1.933,2.212,1.933,3.801h-4.831c0-0.429-0.209-0.778-0.628-1.047c-0.419-0.268-0.972-0.403-1.659-0.403h-1.224
				c-0.795,0-1.374,0.134-1.739,0.403c-0.365,0.269-0.548,0.671-0.548,1.208c0,0.494,0.166,0.87,0.499,1.127
				c0.333,0.258,0.864,0.44,1.594,0.548l2.222,0.29c2.233,0.279,3.892,0.837,4.976,1.675c1.084,0.837,1.627,2.083,1.627,3.736
				c0,1.804-0.623,3.189-1.868,4.155c-1.246,0.966-3.082,1.449-5.508,1.449H344.518z M376.344,75.477V51.965h7.569
				c1.675,0,3.124,0.29,4.348,0.87c1.224,0.58,2.174,1.407,2.851,2.48c0.676,1.074,1.015,2.341,1.015,3.801
				c0,1.525-0.37,2.888-1.111,4.091c-0.741,1.203-1.745,2.072-3.012,2.609l4.445,9.663h-5.25l-3.801-8.89h-2.255v8.89H376.344z
				 M381.143,62.4h2.77c1.073,0,1.905-0.268,2.496-0.805c0.59-0.536,0.886-1.288,0.886-2.255c0-1.009-0.295-1.793-0.886-2.351
				c-0.591-0.558-1.423-0.837-2.496-0.837h-2.77V62.4z M395.828,75.477v-4.38h6.12v-8.986h-5.315v-4.348h9.824v13.335h5.153v4.38
				H395.828z M403.88,54.96c-0.881,0-1.584-0.225-2.11-0.676c-0.526-0.451-0.789-1.063-0.789-1.836c0-0.773,0.263-1.385,0.789-1.836
				c0.526-0.451,1.229-0.676,2.11-0.676c0.88,0,1.583,0.225,2.11,0.676c0.526,0.451,0.789,1.063,0.789,1.836
				c0,0.773-0.263,1.385-0.789,1.836C405.464,54.735,404.761,54.96,403.88,54.96z M420.723,75.799c-1.783,0-3.21-0.623-4.284-1.868
				c-1.074-1.245-1.61-2.931-1.61-5.057v-4.509c0-2.104,0.536-3.785,1.61-5.041c1.073-1.256,2.501-1.884,4.284-1.884
				c1.267,0,2.303,0.322,3.108,0.966c0.805,0.644,1.304,1.557,1.498,2.738h0.097l-0.161-4.348v-4.831h4.831v23.513h-4.67v-3.382
				h-0.097c-0.193,1.181-0.692,2.094-1.498,2.738C423.026,75.477,421.99,75.799,420.723,75.799z M422.463,71.612
				c0.88,0,1.567-0.252,2.061-0.757c0.494-0.504,0.741-1.218,0.741-2.142v-4.187c0-0.923-0.247-1.637-0.741-2.142
				c-0.494-0.504-1.181-0.757-2.061-0.757c-0.902,0-1.594,0.253-2.077,0.757c-0.483,0.505-0.725,1.219-0.725,2.142v4.187
				c0,0.923,0.242,1.638,0.725,2.142C420.868,71.36,421.561,71.612,422.463,71.612z M441.915,75.799
				c-1.568,0-2.937-0.295-4.107-0.886c-1.171-0.59-2.072-1.417-2.706-2.48c-0.634-1.063-0.95-2.303-0.95-3.72v-4.187
				c0-1.417,0.317-2.657,0.95-3.72c0.633-1.063,1.535-1.889,2.706-2.48c1.17-0.59,2.539-0.886,4.107-0.886
				c1.567,0,2.926,0.295,4.074,0.886c1.148,0.591,2.04,1.417,2.673,2.48c0.633,1.063,0.95,2.303,0.95,3.72v3.221h-10.855v0.966
				c0,2.255,1.073,3.382,3.221,3.382c1.524,0,2.437-0.483,2.738-1.449h4.735c-0.387,1.546-1.262,2.792-2.625,3.736
				C445.463,75.327,443.826,75.799,441.915,75.799z M438.758,64.526v0.483l6.249-0.064v-0.483c0-2.255-1.031-3.382-3.092-3.382
				c-1.052,0-1.841,0.301-2.367,0.902C439.021,62.583,438.758,63.431,438.758,64.526z M454.192,75.477V57.762h4.509v3.382h0.064
				c0.58-2.469,2.233-3.704,4.96-3.704c1.954,0,3.473,0.591,4.558,1.772c1.084,1.181,1.627,2.845,1.627,4.992v1.449h-5.153v-1.127
				c0-0.966-0.263-1.718-0.789-2.255c-0.526-0.536-1.229-0.805-2.11-0.805c-0.924,0-1.627,0.269-2.11,0.805
				c-0.483,0.537-0.725,1.288-0.725,2.255v10.951H454.192z"/>
		</defs>
		<clipPath id="SVGID_10_">
			<use xlink:href="#SVGID_2_"  overflow="visible"/>
		</clipPath>
		<g clip-path="url(#SVGID_10_)">
			<defs>
				<path id="SVGID_3_" d="M20.434-3.5h484.43c11.078,0,20.059,8.98,20.059,20.059v91.263c0,11.078-8.98,20.059-20.059,20.059
					H20.434c-11.078,0-20.059-8.98-20.059-20.059V16.559C0.375,5.481,9.356-3.5,20.434-3.5z"/>
			</defs>
			<clipPath id="SVGID_11_">
				<use xlink:href="#SVGID_3_"  overflow="visible"/>
			</clipPath>
			<g clip-path="url(#SVGID_11_)">
				<defs>
					<rect id="SVGID_4_" x="-1.63" y="-4.507" width="526.553" height="133.393"/>
				</defs>
				<clipPath id="SVGID_12_">
					<use xlink:href="#SVGID_4_"  overflow="visible"/>
				</clipPath>
				<g clip-path="url(#SVGID_12_)">
					
						<image overflow="visible" width="525" height="133" xlink:href="92E8A719.jpg"  transform="matrix(1.003 0 0 1.003 -1.6302 -4.5066)">
					</image>
				</g>
			</g>
		</g>
	</g>
</g>
</svg>
