<svg xmlns="http://www.w3.org/2000/svg" xmlns:xlink="http://www.w3.org/1999/xlink" width="520.36" height="129" viewBox="0 0 520.36 129">
  <defs>
    <linearGradient id="Безымянный_градиент_160" data-name="Безымянный градиент 160" x1="128.62" y1="-1552.72" x2="128.62" y2="-1679.33" gradientUnits="userSpaceOnUse">
      <stop offset="0" stop-color="#865fc5" stop-opacity="0"/>
      <stop offset="0.01" stop-color="#865fc5" stop-opacity="0.06"/>
      <stop offset="0.05" stop-color="#865fc5" stop-opacity="0.28"/>
      <stop offset="0.09" stop-color="#865fc5" stop-opacity="0.47"/>
      <stop offset="0.14" stop-color="#865fc5" stop-opacity="0.64"/>
      <stop offset="0.19" stop-color="#865fc5" stop-opacity="0.77"/>
      <stop offset="0.24" stop-color="#865fc5" stop-opacity="0.87"/>
      <stop offset="0.3" stop-color="#865fc5" stop-opacity="0.94"/>
      <stop offset="0.38" stop-color="#865fc5" stop-opacity="0.99"/>
      <stop offset="0.5" stop-color="#865fc5"/>
      <stop offset="0.62" stop-color="#865fc5" stop-opacity="0.99"/>
      <stop offset="0.7" stop-color="#865fc5" stop-opacity="0.94"/>
      <stop offset="0.76" stop-color="#865fc5" stop-opacity="0.87"/>
      <stop offset="0.81" stop-color="#865fc5" stop-opacity="0.77"/>
      <stop offset="0.86" stop-color="#865fc5" stop-opacity="0.64"/>
      <stop offset="0.91" stop-color="#865fc5" stop-opacity="0.47"/>
      <stop offset="0.95" stop-color="#865fc5" stop-opacity="0.28"/>
      <stop offset="0.99" stop-color="#865fc5" stop-opacity="0.06"/>
      <stop offset="1" stop-color="#865fc5" stop-opacity="0"/>
    </linearGradient>
    <linearGradient id="Безымянный_градиент_44" data-name="Безымянный градиент 44" x1="353.22" y1="-1755.53" x2="311.14" y2="-1562.94" gradientUnits="userSpaceOnUse">
      <stop offset="0" stop-color="#7fc0e3"/>
      <stop offset="0.2" stop-color="#5ab6db"/>
      <stop offset="0.5" stop-color="#449ad4"/>
      <stop offset="0.8" stop-color="#1673ba"/>
      <stop offset="0.93" stop-color="#074eab"/>
      <stop offset="1" stop-color="#003fa5"/>
    </linearGradient>
    <linearGradient id="Безымянный_градиент_151" data-name="Безымянный градиент 151" x1="336.71" y1="-1703.39" x2="306.48" y2="-1504.72" gradientUnits="userSpaceOnUse">
      <stop offset="0" stop-opacity="0"/>
      <stop offset="1"/>
    </linearGradient>
  </defs>
  <g style="isolation: isolate">
    <g id="IconBackground">
      <g id="IconBackgroundMesh">
        <path d="M27-1680.52a25,25,0,0,0-25,25v79a25,25,0,0,0,25,25H128.62v-129Z" transform="translate(-2 1680.52)"/>
      </g>
    </g>
    <g id="IconTextBackgroundBorder">
      <path id="IconTextBackgroundBorderMesh" d="M128.62-1679.33v0Z" transform="translate(-2 1680.52)" fill="none" stroke-miterlimit="10" stroke="url(#Безымянный_градиент_160)"/>
    </g>
    <g id="TextBackground">
      <g id="BudgetTextColorGradient">
        <path d="M497.36-1680.52H128v129H497.36a25,25,0,0,0,25-25v-79A25,25,0,0,0,497.36-1680.52Z" transform="translate(-2 1680.52)" fill="url(#Безымянный_градиент_44)"/>
      </g>
      <g id="BudgetTextVignette">
        <path d="M497.36-1680.52H128v129H497.36a25,25,0,0,0,25-25v-79A25,25,0,0,0,497.36-1680.52Z" transform="translate(-2 1680.52)" fill="url(#Безымянный_градиент_151)" style="mix-blend-mode: multiply"/>
      </g>
    </g>
    <g id="Text">
      <g id="Visual_Studio" data-name="Visual Studio" opacity="0.8">
        <path d="M157.08-1604.66,162.8-1628h6.08l5.8,23.36h-4.9l-1.12-5.28h-5.57l-1.12,5.28Zm6.81-9.12h3.94l-1.12-5.64c-.15-.81-.31-1.61-.47-2.41s-.28-1.43-.36-1.87c-.09.44-.2,1.06-.34,1.85s-.29,1.59-.46,2.4Z" transform="translate(-2 1680.52)" fill="#fff"/>
        <path d="M177.72-1604.66v-4.16l8.7-9.28H178v-4.16h14v4.16l-8.7,9.28h9.06v4.16Z" transform="translate(-2 1680.52)" fill="#fff"/>
        <path d="M204.27-1604.34a7.71,7.71,0,0,1-5.55-1.92,7,7,0,0,1-2-5.25v-10.75h4.8v10.72c0,2,.92,3,2.75,3a2.61,2.61,0,0,0,2-.79,3.2,3.2,0,0,0,.72-2.25v-10.72h4.8v10.75a6.9,6.9,0,0,1-2,5.26A7.74,7.74,0,0,1,204.27-1604.34Z" transform="translate(-2 1680.52)" fill="#fff"/>
        <path d="M216.5-1604.66v-17.6H221v3.36H221c.58-2.46,2.22-3.68,4.93-3.68a5.83,5.83,0,0,1,4.53,1.76,7,7,0,0,1,1.61,5v1.44H227v-1.12a3.07,3.07,0,0,0-.78-2.24,2.77,2.77,0,0,0-2.1-.8,2.65,2.65,0,0,0-2.09.8,3.23,3.23,0,0,0-.72,2.24v10.88Z" transform="translate(-2 1680.52)" fill="#fff"/>
        <path d="M242.71-1604.34a9,9,0,0,1-4.08-.88,6.38,6.38,0,0,1-2.69-2.47,7.06,7.06,0,0,1-.95-3.69v-4.16a7.1,7.1,0,0,1,.95-3.7,6.3,6.3,0,0,1,2.69-2.46,8.89,8.89,0,0,1,4.08-.88,8.69,8.69,0,0,1,4,.88,6.33,6.33,0,0,1,2.66,2.46,7.09,7.09,0,0,1,.94,3.7v3.2H239.57v1q0,3.36,3.2,3.36c1.52,0,2.42-.48,2.72-1.44h4.7a6.25,6.25,0,0,1-2.6,3.71A8.38,8.38,0,0,1,242.71-1604.34Zm-3.14-11.2v.48l6.21-.07v-.48c0-2.24-1-3.36-3.07-3.36a3,3,0,0,0-2.36.9A3.74,3.74,0,0,0,239.57-1615.54Z" transform="translate(-2 1680.52)" fill="#fff"/>
        <path d="M273.49-1604.66V-1628h7.58a9.27,9.27,0,0,1,4.24.92,6.84,6.84,0,0,1,2.82,2.61,7.56,7.56,0,0,1,1,4v8.36a7.56,7.56,0,0,1-1,3.93,6.91,6.91,0,0,1-2.82,2.64,9,9,0,0,1-4.24.95Zm4.8-4.48h2.78a3.33,3.33,0,0,0,2.37-.84,2.85,2.85,0,0,0,.9-2.2v-8.36a2.81,2.81,0,0,0-.9-2.17,3.33,3.33,0,0,0-2.37-.83h-2.78Z" transform="translate(-2 1680.52)" fill="#fff"/>
        <path d="M298-1604.34a6,6,0,0,1-4.21-1.44,5.08,5.08,0,0,1-1.55-3.91,4.85,4.85,0,0,1,1.84-4.08,8.51,8.51,0,0,1,5.3-1.42H303v-1.31a2,2,0,0,0-.72-1.64,2.91,2.91,0,0,0-1.93-.6,3.19,3.19,0,0,0-1.86.51,2.07,2.07,0,0,0-.89,1.41H293a5.83,5.83,0,0,1,2.32-4.21,8.32,8.32,0,0,1,5.23-1.55,8.1,8.1,0,0,1,5.33,1.64,5.5,5.5,0,0,1,2,4.44v11.84h-4.64v-2.88h-.09a3.83,3.83,0,0,1-1.73,2.35A6.25,6.25,0,0,1,298-1604.34Zm1.79-3.52a3.49,3.49,0,0,0,2.32-.76,2.4,2.4,0,0,0,.91-2v-1.89h-3.55a2.52,2.52,0,0,0-1.76.62,2.15,2.15,0,0,0-.67,1.65,2.11,2.11,0,0,0,.74,1.71A3,3,0,0,0,299.79-1607.86Z" transform="translate(-2 1680.52)" fill="#fff"/>
        <path d="M321.39-1604.66a5.71,5.71,0,0,1-4.22-1.54,5.67,5.67,0,0,1-1.54-4.22v-7.52H311v-4.32h4.64v-5h4.8v5H327v4.32h-6.56v7.52a1.27,1.27,0,0,0,1.44,1.44h4.8v4.32Z" transform="translate(-2 1680.52)" fill="#fff"/>
        <path d="M336.4-1604.34a5.94,5.94,0,0,1-4.21-1.44,5.08,5.08,0,0,1-1.55-3.91,4.85,4.85,0,0,1,1.84-4.08,8.5,8.5,0,0,1,5.29-1.42h3.65v-1.31a2,2,0,0,0-.72-1.64,2.91,2.91,0,0,0-1.93-.6,3.19,3.19,0,0,0-1.86.51,2.11,2.11,0,0,0-.9,1.41h-4.64a5.9,5.9,0,0,1,2.32-4.21,8.37,8.37,0,0,1,5.24-1.55,8.06,8.06,0,0,1,5.32,1.64,5.47,5.47,0,0,1,2,4.44v11.84h-4.64v-2.88h-.09a3.87,3.87,0,0,1-1.73,2.35A6.25,6.25,0,0,1,336.4-1604.34Zm1.79-3.52a3.49,3.49,0,0,0,2.32-.76,2.4,2.4,0,0,0,.91-2v-1.89h-3.55a2.5,2.5,0,0,0-1.76.62,2.15,2.15,0,0,0-.67,1.65,2.1,2.1,0,0,0,.73,1.71A3,3,0,0,0,338.19-1607.86Z" transform="translate(-2 1680.52)" fill="#fff"/>
        <path d="M377.07-1604.34a10.2,10.2,0,0,1-4.29-.84,6.52,6.52,0,0,1-2.82-2.33,6.31,6.31,0,0,1-1-3.55h4.8a2.24,2.24,0,0,0,.91,1.87,4,4,0,0,0,2.49.69,3.69,3.69,0,0,0,2.35-.68,2.23,2.23,0,0,0,.85-1.85,2.59,2.59,0,0,0-.65-1.76,3.18,3.18,0,0,0-1.79-1l-2.37-.55a8.5,8.5,0,0,1-4.62-2.61,6.84,6.84,0,0,1-1.65-4.65,6.24,6.24,0,0,1,2.08-4.91,8.19,8.19,0,0,1,5.63-1.84,8.51,8.51,0,0,1,5.68,1.77,6,6,0,0,1,2.1,4.79H380a2.14,2.14,0,0,0-.78-1.76,3.5,3.5,0,0,0-2.26-.64,3.14,3.14,0,0,0-2.11.62,2.22,2.22,0,0,0-.74,1.78,2.67,2.67,0,0,0,.59,1.74,3,3,0,0,0,1.69,1l2.49.57a8.46,8.46,0,0,1,4.7,2.55,6.86,6.86,0,0,1,1.61,4.68,6.55,6.55,0,0,1-1,3.62,6.64,6.64,0,0,1-2.82,2.43A9.77,9.77,0,0,1,377.07-1604.34Z" transform="translate(-2 1680.52)" fill="#fff"/>
        <path d="M398.19-1604.66a5.75,5.75,0,0,1-4.23-1.54,5.71,5.71,0,0,1-1.53-4.22v-7.52h-4.64v-4.32h4.64v-5h4.8v5h6.56v4.32h-6.56v7.52a1.27,1.27,0,0,0,1.44,1.44h4.8v4.32Z" transform="translate(-2 1680.52)" fill="#fff"/>
        <path d="M415.47-1604.34a7.67,7.67,0,0,1-5.55-1.92,6.91,6.91,0,0,1-2-5.25v-10.75h4.79v10.72c0,2,.92,3,2.76,3a2.6,2.6,0,0,0,2-.79,3.2,3.2,0,0,0,.72-2.25v-10.72H423v10.75a6.86,6.86,0,0,1-2,5.26A7.73,7.73,0,0,1,415.47-1604.34Z" transform="translate(-2 1680.52)" fill="#fff"/>
        <path d="M432.84-1604.34a5.31,5.31,0,0,1-4.25-1.86,7.41,7.41,0,0,1-1.6-5v-4.48a7.44,7.44,0,0,1,1.6-5,5.29,5.29,0,0,1,4.25-1.87,4.79,4.79,0,0,1,3.09,1,4.18,4.18,0,0,1,1.49,2.72h.09l-.16-4.32v-4.8h4.8v23.36h-4.64V-1608h-.09a4.2,4.2,0,0,1-1.49,2.72A4.79,4.79,0,0,1,432.84-1604.34Zm1.73-4.16a2.7,2.7,0,0,0,2.05-.76,2.9,2.9,0,0,0,.73-2.12v-4.16a2.91,2.91,0,0,0-.73-2.13,2.73,2.73,0,0,0-2.05-.75,2.71,2.71,0,0,0-2.06.75,3,3,0,0,0-.72,2.13v4.16a2.94,2.94,0,0,0,.72,2.12A2.68,2.68,0,0,0,434.57-1608.5Z" transform="translate(-2 1680.52)" fill="#fff"/>
        <path d="M446.51-1604.66V-1609h6.08v-8.92h-5.28v-4.32h9.76V-1609h5.12v4.36Zm8-20.39a3.1,3.1,0,0,1-2.1-.67,2.29,2.29,0,0,1-.78-1.82,2.3,2.3,0,0,1,.78-1.83,3.1,3.1,0,0,1,2.1-.67,3.09,3.09,0,0,1,2.09.67,2.3,2.3,0,0,1,.79,1.83,2.3,2.3,0,0,1-.79,1.82A3.09,3.09,0,0,1,454.51-1625Z" transform="translate(-2 1680.52)" fill="#fff"/>
        <path d="M473.06-1604.34a8.93,8.93,0,0,1-4.06-.88,6.45,6.45,0,0,1-2.67-2.47,7.06,7.06,0,0,1-.95-3.69v-4.16a7.1,7.1,0,0,1,.95-3.7,6.36,6.36,0,0,1,2.67-2.46,8.8,8.8,0,0,1,4.06-.88,8.77,8.77,0,0,1,4.08.88,6.33,6.33,0,0,1,2.66,2.46,7.1,7.1,0,0,1,.95,3.7v4.16a7.06,7.06,0,0,1-.95,3.69,6.42,6.42,0,0,1-2.66,2.47A8.9,8.9,0,0,1,473.06-1604.34Zm0-4.16a2.85,2.85,0,0,0,2.15-.76,2.91,2.91,0,0,0,.74-2.12v-4.16a2.92,2.92,0,0,0-.74-2.15,2.92,2.92,0,0,0-2.15-.73,2.9,2.9,0,0,0-2.12.73,2.89,2.89,0,0,0-.76,2.15v4.16a2.88,2.88,0,0,0,.76,2.12A2.84,2.84,0,0,0,473.06-1608.5Z" transform="translate(-2 1680.52)" fill="#fff"/>
      </g>
    </g>
    <g id="Icon">
      <path d="M26.78-1586.92a6.71,6.71,0,0,0,.09,1.1h-.09Z" transform="translate(-2 1680.52)" fill="#f0f"/>
      <path d="M75.38-1624.43c-12.19,8.7-46.43,6.81-48.58-7.74-.35-6.69,8.11-11.83,19.73-13.54-2.09,10.78,6.29,21.46,17,21.29C63.81-1624.44,68.9-1624.44,75.38-1624.43Z" transform="translate(-2 1680.52)" fill="#b8d530"/>
      <path d="M92.15-1664.15c-.2-.13-.4-.25-.61-.36a17.82,17.82,0,0,0-14.74-1.29,3.75,3.75,0,0,0-.43.16,1.45,1.45,0,0,0-.26.11,16.35,16.35,0,0,0-4.31,2.6,17.15,17.15,0,0,0-3.64,4.18h0a12.09,12.09,0,0,0-1.55-.23c-18.94-1.15-23.61,25-5.35,30.34-9.58-11,.23-28.13,14.71-25.28a17.47,17.47,0,0,1,19.55-7.44A17.75,17.75,0,0,0,92.15-1664.15Z" transform="translate(-2 1680.52)" fill="#7fc0e3"/>
      <path d="M100.82-1628.16c-3.66.07-35-.06-35.72,0h-.4a14.33,14.33,0,0,1-3.48-.49c-9.58-11,.23-28.13,14.71-25.28a17.47,17.47,0,0,1,19.55-7.44,17.75,17.75,0,0,0-3.33-2.78,16.84,16.84,0,0,1,8,12.93h.38C115.65-1650.64,115.89-1629.11,100.82-1628.16Z" transform="translate(-2 1680.52)" fill="#5ab6db"/>
      <path d="M100.82-1628.16h0Z" transform="translate(-2 1680.52)" fill="#f0f"/>
      <path d="M72.52-1623.34h0Z" transform="translate(-2 1680.52)" fill="#f0f"/>
      <path d="M107.83-1587.71a13.77,13.77,0,0,0,0-6.63l4.1-1.71-1.56-3.74-4.09,1.71a13.61,13.61,0,0,0-4.71-4.68l1.68-4.11-3.74-1.53-1.69,4.11a13.77,13.77,0,0,0-6.63,0l-1.72-4.12-3.73,1.56,1.73,4.14a13.67,13.67,0,0,0-4.62,4.7l-4.19-1.72-1.54,3.74,4.21,1.73a13.82,13.82,0,0,0,0,6.55l-4.22,1.76,1.56,3.73,4.23-1.76a13.79,13.79,0,0,0,4.63,4.61l-1.74,4.24,3.74,1.53,1.74-4.23a13.82,13.82,0,0,0,6.55,0l1.76,4.19,3.73-1.56-1.75-4.17a13.7,13.7,0,0,0,4.67-4.66l4.16,1.71L112-1586Zm-7.8,4.63a9.66,9.66,0,0,1-13.33-2.44A9.65,9.65,0,0,1,89-1598.9C99.87-1605.9,110.35-1590.74,100-1583.08Z" transform="translate(-2 1680.52)" fill="#003fa5"/>
      <g>
        <path d="M75.8-1579l-3.48-8.85,4.62-1.81v-2.21l-3.41-1.4-19.67.2v19.66C62.89-1573.38,70.88-1575.58,75.8-1579Z" transform="translate(-2 1680.52)" fill="#1673ba" opacity="0.5"/>
        <path d="M76.74-1604.48l4.21,1.84v-21.79H75.38c-4.95,3.22-12.75,5.31-21.52,5.31v22.27H73.73Z" transform="translate(-2 1680.52)" fill="#1673ba" opacity="0.5"/>
      </g>
      <g>
        <path d="M48.45-1578.39l-9.83-26.49L34.2-1593H26.78c0,.83-.08,6.54.09,7.22,1.12,7,12.78,12.44,27,12.44V-1593h-.2Z" transform="translate(-2 1680.52)" fill="#39abea" opacity="0.5"/>
        <path d="M26.8-1632.17h0V-1597h5l7-18.86,9.43,26.48,2.81-7.42h2.8v-22.27C39.24-1619.12,27.32-1624.92,26.8-1632.17Z" transform="translate(-2 1680.52)" fill="#39abea" opacity="0.5"/>
      </g>
    </g>
  </g>
</svg>
