<svg xmlns="http://www.w3.org/2000/svg" xmlns:xlink="http://www.w3.org/1999/xlink" width="520.5" height="129" viewBox="0 0 520.5 129">
  <defs>
    <linearGradient id="Безымянный_градиент_8" data-name="Безымянный градиент 8" x1="354.04" y1="-1755.01" x2="311.97" y2="-1562.41" gradientUnits="userSpaceOnUse">
      <stop offset="0" stop-color="#df871e"/>
      <stop offset="0.2" stop-color="#df871e"/>
      <stop offset="0.5" stop-color="#df871e"/>
      <stop offset="0.8" stop-color="#df871e"/>
      <stop offset="1" stop-color="#df871e"/>
    </linearGradient>
    <linearGradient id="Безымянный_градиент_151" data-name="Безымянный градиент 151" x1="337.53" y1="-1702.87" x2="307.31" y2="-1504.2" gradientUnits="userSpaceOnUse">
      <stop offset="0" stop-opacity="0"/>
      <stop offset="1"/>
    </linearGradient>
    <linearGradient id="Безымянный_градиент_17" data-name="Безымянный градиент 17" x1="129.31" y1="-1552" x2="129.31" y2="-1678.61" gradientUnits="userSpaceOnUse">
      <stop offset="0" stop-color="#df871e" stop-opacity="0"/>
      <stop offset="0.03" stop-color="#df871e" stop-opacity="0.17"/>
      <stop offset="0.07" stop-color="#df871e" stop-opacity="0.36"/>
      <stop offset="0.11" stop-color="#df871e" stop-opacity="0.53"/>
      <stop offset="0.15" stop-color="#df871e" stop-opacity="0.68"/>
      <stop offset="0.2" stop-color="#df871e" stop-opacity="0.8"/>
      <stop offset="0.25" stop-color="#df871e" stop-opacity="0.89"/>
      <stop offset="0.31" stop-color="#df871e" stop-opacity="0.95"/>
      <stop offset="0.38" stop-color="#df871e" stop-opacity="0.99"/>
      <stop offset="0.5" stop-color="#df871e"/>
      <stop offset="0.62" stop-color="#df871e" stop-opacity="0.99"/>
      <stop offset="0.69" stop-color="#df871e" stop-opacity="0.95"/>
      <stop offset="0.75" stop-color="#df871e" stop-opacity="0.89"/>
      <stop offset="0.8" stop-color="#df871e" stop-opacity="0.8"/>
      <stop offset="0.85" stop-color="#df871e" stop-opacity="0.68"/>
      <stop offset="0.89" stop-color="#df871e" stop-opacity="0.53"/>
      <stop offset="0.93" stop-color="#df871e" stop-opacity="0.36"/>
      <stop offset="0.97" stop-color="#df871e" stop-opacity="0.17"/>
      <stop offset="1" stop-color="#df871e" stop-opacity="0"/>
    </linearGradient>
  </defs>
  <g style="isolation: isolate">
    <g id="IconBackground">
      <g id="IconBackgroundMesh">
        <path d="M27.69-1680a25,25,0,0,0-25,25v79a25,25,0,0,0,25,25H129.31v-129Z" transform="translate(-2.69 1680)"/>
      </g>
    </g>
    <g id="TextBackground">
      <g id="BudgetTextColorGradient">
        <path d="M498.19-1680H128.81v129H498.19a25,25,0,0,0,25-25v-79A25,25,0,0,0,498.19-1680Z" transform="translate(-2.69 1680)" fill="url(#Безымянный_градиент_8)"/>
      </g>
      <g id="BudgetTextVignette">
        <path d="M498.19-1680H128.81v129H498.19a25,25,0,0,0,25-25v-79A25,25,0,0,0,498.19-1680Z" transform="translate(-2.69 1680)" fill="url(#Безымянный_градиент_151)" style="mix-blend-mode: multiply"/>
      </g>
    </g>
    <g id="Text">
      <g id="Visual_Studio" data-name="Visual Studio" opacity="0.8">
        <path d="M162.87-1604.14l5.73-23.36h6.08l5.79,23.36h-4.9l-1.12-5.28h-5.57l-1.12,5.28Zm6.82-9.12h3.93l-1.12-5.63c-.15-.81-.3-1.62-.46-2.42s-.29-1.42-.37-1.87c-.09.45-.2,1.07-.34,1.86s-.29,1.59-.46,2.4Z" transform="translate(-2.69 1680)" fill="#fff"/>
        <path d="M189-1603.82a5.31,5.31,0,0,1-4.25-1.86,7.4,7.4,0,0,1-1.6-5v-4.48a7.44,7.44,0,0,1,1.6-5,5.29,5.29,0,0,1,4.25-1.87,4.79,4.79,0,0,1,3.09,1,4.2,4.2,0,0,1,1.49,2.72h.1l-.16-4.32v-4.8h4.8v23.36h-4.64v-3.36h-.1a4.2,4.2,0,0,1-1.49,2.72A4.79,4.79,0,0,1,189-1603.82Zm1.73-4.16a2.73,2.73,0,0,0,2-.75,2.92,2.92,0,0,0,.74-2.13V-1615a2.92,2.92,0,0,0-.74-2.13,2.73,2.73,0,0,0-2-.75,2.73,2.73,0,0,0-2.06.75A3,3,0,0,0,188-1615v4.16a3,3,0,0,0,.72,2.13A2.73,2.73,0,0,0,190.77-1608Z" transform="translate(-2.69 1680)" fill="#fff"/>
        <path d="M210.07-1603.82a8.85,8.85,0,0,1-4.07-.88,6.49,6.49,0,0,1-2.67-2.46,7.09,7.09,0,0,1-.94-3.7V-1615a7.09,7.09,0,0,1,.94-3.7,6.49,6.49,0,0,1,2.67-2.46,8.85,8.85,0,0,1,4.07-.88,8.77,8.77,0,0,1,4.08.88,6.5,6.5,0,0,1,2.65,2.46,7.1,7.1,0,0,1,.95,3.7v4.16a7.1,7.1,0,0,1-.95,3.7,6.5,6.5,0,0,1-2.65,2.46A8.77,8.77,0,0,1,210.07-1603.82Zm0-4.16a2.86,2.86,0,0,0,2.14-.75,2.92,2.92,0,0,0,.74-2.13V-1615a2.9,2.9,0,0,0-.74-2.14,2.9,2.9,0,0,0-2.14-.74,2.92,2.92,0,0,0-2.13.74,2.86,2.86,0,0,0-.75,2.14v4.16a2.88,2.88,0,0,0,.75,2.13A2.88,2.88,0,0,0,210.07-1608Z" transform="translate(-2.69 1680)" fill="#fff"/>
        <path d="M231.09-1603.82a4.79,4.79,0,0,1-3.09-1,4.19,4.19,0,0,1-1.48-2.72h-.1v3.36h-4.64v-23.36h4.8v4.8l-.16,4.32h.1a4.19,4.19,0,0,1,1.48-2.72,4.79,4.79,0,0,1,3.09-1,5.32,5.32,0,0,1,4.26,1.87,7.49,7.49,0,0,1,1.6,5v4.48a7.45,7.45,0,0,1-1.6,5A5.35,5.35,0,0,1,231.09-1603.82Zm-1.73-4.16a2.74,2.74,0,0,0,2.07-.75,3,3,0,0,0,.72-2.13V-1615a3,3,0,0,0-.72-2.13,2.74,2.74,0,0,0-2.07-.75,2.73,2.73,0,0,0-2,.75,2.92,2.92,0,0,0-.74,2.13v4.16a2.92,2.92,0,0,0,.74,2.13A2.73,2.73,0,0,0,229.36-1608Z" transform="translate(-2.69 1680)" fill="#fff"/>
        <path d="M248.5-1603.82a8.89,8.89,0,0,1-4.08-.88,6.48,6.48,0,0,1-2.69-2.46,7.09,7.09,0,0,1-.94-3.7V-1615a7.09,7.09,0,0,1,.94-3.7,6.48,6.48,0,0,1,2.69-2.46,8.89,8.89,0,0,1,4.08-.88,8.7,8.7,0,0,1,4.05.88,6.5,6.5,0,0,1,2.65,2.46,7.1,7.1,0,0,1,.95,3.7v3.2H245.36v1q0,3.36,3.2,3.36c1.52,0,2.42-.48,2.72-1.44H256a6.28,6.28,0,0,1-2.61,3.71A8.35,8.35,0,0,1,248.5-1603.82Zm-3.14-11.2v.48l6.21-.06v-.48q0-3.36-3.07-3.36a2.93,2.93,0,0,0-2.35.89A3.69,3.69,0,0,0,245.36-1615Z" transform="translate(-2.69 1680)" fill="#fff"/>
        <path d="M279.83-1604.14v-4.16h4.64v-15h-4.64v-4.16h14.08v4.16h-4.64v15h4.64v4.16Z" transform="translate(-2.69 1680)" fill="#fff"/>
        <path d="M309.11-1604.14a6.65,6.65,0,0,1-3.27-.78,5.58,5.58,0,0,1-2.19-2.2,6.58,6.58,0,0,1-.78-3.26v-12.8h-5.6v-4.32h10.4v17.12a1.87,1.87,0,0,0,.52,1.39,1.92,1.92,0,0,0,1.4.53h5v4.32Z" transform="translate(-2.69 1680)" fill="#fff"/>
        <path d="M328.3-1604.14a6.63,6.63,0,0,1-3.26-.78,5.58,5.58,0,0,1-2.19-2.2,6.58,6.58,0,0,1-.78-3.26v-12.8h-5.61v-4.32h10.41v17.12a1.87,1.87,0,0,0,.52,1.39,1.92,1.92,0,0,0,1.4.53h5v4.32Z" transform="translate(-2.69 1680)" fill="#fff"/>
        <path d="M344.46-1603.82a7.71,7.71,0,0,1-5.55-1.92,7,7,0,0,1-2-5.25v-10.75h4.8V-1611c0,2,.92,3,2.75,3a2.64,2.64,0,0,0,2-.78,3.25,3.25,0,0,0,.72-2.26v-10.72H352V-1611a6.92,6.92,0,0,1-2,5.27A7.73,7.73,0,0,1,344.46-1603.82Z" transform="translate(-2.69 1680)" fill="#fff"/>
        <path d="M362.93-1603.82a9.74,9.74,0,0,1-3.81-.69,5.94,5.94,0,0,1-2.54-1.9,4.61,4.61,0,0,1-.92-2.85h4.8a1.42,1.42,0,0,0,.69,1.23,3.12,3.12,0,0,0,1.78.47h1.41c1.79,0,2.68-.61,2.68-1.83,0-1-.83-1.61-2.49-1.82l-2-.26a9.85,9.85,0,0,1-4.8-1.6,4.31,4.31,0,0,1-1.5-3.61,4.77,4.77,0,0,1,1.76-4,8.08,8.08,0,0,1,5.15-1.41h1.21a8.53,8.53,0,0,1,5.16,1.41,4.45,4.45,0,0,1,1.92,3.77h-4.8a1.21,1.21,0,0,0-.63-1,3,3,0,0,0-1.65-.4h-1.21a3,3,0,0,0-1.73.4,1.41,1.41,0,0,0-.54,1.2,1.32,1.32,0,0,0,.49,1.12,3.44,3.44,0,0,0,1.59.55l2.2.29a10.17,10.17,0,0,1,4.95,1.66,4.41,4.41,0,0,1,1.61,3.71,4.94,4.94,0,0,1-1.85,4.13,8.81,8.81,0,0,1-5.47,1.44Z" transform="translate(-2.69 1680)" fill="#fff"/>
        <path d="M384.78-1604.14a5.67,5.67,0,0,1-4.22-1.54,5.71,5.71,0,0,1-1.54-4.22v-7.52h-4.64v-4.32H379v-5h4.8v5h6.56v4.32h-6.56v7.52a1.27,1.27,0,0,0,1.44,1.44h4.8v4.32Z" transform="translate(-2.69 1680)" fill="#fff"/>
        <path d="M395.09-1604.14v-17.6h4.48v3.36h.06q.87-3.67,4.93-3.68a5.86,5.86,0,0,1,4.53,1.76,7.1,7.1,0,0,1,1.61,5v1.44h-5.12V-1615a3.07,3.07,0,0,0-.78-2.24,2.81,2.81,0,0,0-2.1-.8,2.67,2.67,0,0,0-2.09.8,3.23,3.23,0,0,0-.72,2.24v10.88Z" transform="translate(-2.69 1680)" fill="#fff"/>
        <path d="M419-1603.82a6,6,0,0,1-4.21-1.44,5.08,5.08,0,0,1-1.55-3.9,4.85,4.85,0,0,1,1.84-4.08,8.51,8.51,0,0,1,5.3-1.43H424V-1616a2,2,0,0,0-.72-1.63,2.86,2.86,0,0,0-1.93-.61,3.19,3.19,0,0,0-1.86.51,2.07,2.07,0,0,0-.89,1.41H414a5.9,5.9,0,0,1,2.33-4.21,8.38,8.38,0,0,1,5.23-1.55,8,8,0,0,1,5.32,1.65,5.45,5.45,0,0,1,2,4.43v11.84h-4.64V-1607h-.09a3.8,3.8,0,0,1-1.73,2.35A6.16,6.16,0,0,1,419-1603.82Zm1.79-3.52a3.53,3.53,0,0,0,2.32-.75,2.42,2.42,0,0,0,.91-2v-1.89h-3.55a2.48,2.48,0,0,0-1.76.63,2.11,2.11,0,0,0-.67,1.64,2.14,2.14,0,0,0,.73,1.72A3.09,3.09,0,0,0,420.78-1607.34Z" transform="translate(-2.69 1680)" fill="#fff"/>
        <path d="M442.38-1604.14a5.67,5.67,0,0,1-4.22-1.54,5.67,5.67,0,0,1-1.54-4.22v-7.52H432v-4.32h4.64v-5h4.8v5H448v4.32h-6.56v7.52a1.27,1.27,0,0,0,1.44,1.44h4.8v4.32Z" transform="translate(-2.69 1680)" fill="#fff"/>
        <path d="M459.66-1603.82a8.77,8.77,0,0,1-4.06-.88,6.46,6.46,0,0,1-2.68-2.46,7.09,7.09,0,0,1-.94-3.7V-1615a7.09,7.09,0,0,1,.94-3.7,6.46,6.46,0,0,1,2.68-2.46,8.77,8.77,0,0,1,4.06-.88,8.77,8.77,0,0,1,4.08.88,6.52,6.52,0,0,1,2.66,2.46,7.19,7.19,0,0,1,.94,3.7v4.16a7.19,7.19,0,0,1-.94,3.7,6.52,6.52,0,0,1-2.66,2.46A8.77,8.77,0,0,1,459.66-1603.82Zm0-4.16a2.86,2.86,0,0,0,2.14-.75,2.92,2.92,0,0,0,.74-2.13V-1615a2.9,2.9,0,0,0-.74-2.14,2.9,2.9,0,0,0-2.14-.74,2.92,2.92,0,0,0-2.13.74,2.86,2.86,0,0,0-.75,2.14v4.16a2.88,2.88,0,0,0,.75,2.13A2.88,2.88,0,0,0,459.66-1608Z" transform="translate(-2.69 1680)" fill="#fff"/>
        <path d="M471.88-1604.14v-17.6h4.48v3.36h.07c.57-2.45,2.22-3.68,4.92-3.68a5.83,5.83,0,0,1,4.53,1.76,7.06,7.06,0,0,1,1.62,5v1.44h-5.12V-1615a3,3,0,0,0-.79-2.24,2.8,2.8,0,0,0-2.09-.8,2.69,2.69,0,0,0-2.1.8,3.23,3.23,0,0,0-.72,2.24v10.88Z" transform="translate(-2.69 1680)" fill="#fff"/>
      </g>
    </g>
    <g id="Icon">
      <g id="IconTextBackgroundBorder">
        <path id="IconTextBackgroundBorderMesh" d="M129.31-1678.61v0Z" transform="translate(-2.69 1680)" fill="none" stroke-miterlimit="10" stroke="url(#Безымянный_градиент_17)"/>
      </g>
      <g id="Illustrator">
        <path d="M93.22-1580.41H77.81l-6.13-15.94H43.63l-5.79,15.94h-15l27.33-70.18h15Zm-26.09-27.77-9.66-26-9.48,26Z" transform="translate(-2.69 1680)" fill="#df871e"/>
        <path d="M95.74-1638.14v-12.45h13.45v12.45Zm0,57.73v-50.84h13.45v50.84Z" transform="translate(-2.69 1680)" fill="#df871e"/>
      </g>
    </g>
  </g>
</svg>
