<svg xmlns="http://www.w3.org/2000/svg" xmlns:xlink="http://www.w3.org/1999/xlink" width="520.5" height="129" viewBox="0 0 520.5 129">
  <defs>
    <linearGradient id="Безымянный_градиент_49" data-name="Безымянный градиент 49" x1="354.04" y1="-1755.01" x2="311.97" y2="-1562.41" gradientUnits="userSpaceOnUse">
      <stop offset="0" stop-color="#76c8da"/>
      <stop offset="0.23" stop-color="#76c8da"/>
      <stop offset="0.51" stop-color="#76c8da"/>
      <stop offset="0.68" stop-color="#76c8da"/>
      <stop offset="0.78" stop-color="#43c7de"/>
      <stop offset="0.86" stop-color="#1ac6e2"/>
      <stop offset="0.9" stop-color="#0bc6e3"/>
    </linearGradient>
    <linearGradient id="Безымянный_градиент_151" data-name="Безымянный градиент 151" x1="337.53" y1="-1702.87" x2="307.31" y2="-1504.2" gradientUnits="userSpaceOnUse">
      <stop offset="0" stop-opacity="0"/>
      <stop offset="1"/>
    </linearGradient>
    <linearGradient id="Безымянный_градиент_42" data-name="Безымянный градиент 42" x1="129.31" y1="-1552" x2="129.31" y2="-1678.61" gradientUnits="userSpaceOnUse">
      <stop offset="0" stop-color="#0bc6e3" stop-opacity="0"/>
      <stop offset="0.03" stop-color="#0bc6e3" stop-opacity="0.18"/>
      <stop offset="0.07" stop-color="#0bc6e3" stop-opacity="0.37"/>
      <stop offset="0.11" stop-color="#0bc6e3" stop-opacity="0.54"/>
      <stop offset="0.15" stop-color="#0bc6e3" stop-opacity="0.68"/>
      <stop offset="0.2" stop-color="#0bc6e3" stop-opacity="0.8"/>
      <stop offset="0.25" stop-color="#0bc6e3" stop-opacity="0.89"/>
      <stop offset="0.31" stop-color="#0bc6e3" stop-opacity="0.95"/>
      <stop offset="0.38" stop-color="#0bc6e3" stop-opacity="0.99"/>
      <stop offset="0.5" stop-color="#0bc6e3"/>
      <stop offset="0.62" stop-color="#0bc6e3" stop-opacity="0.99"/>
      <stop offset="0.69" stop-color="#0bc6e3" stop-opacity="0.95"/>
      <stop offset="0.75" stop-color="#0bc6e3" stop-opacity="0.89"/>
      <stop offset="0.8" stop-color="#0bc6e3" stop-opacity="0.8"/>
      <stop offset="0.85" stop-color="#0bc6e3" stop-opacity="0.68"/>
      <stop offset="0.89" stop-color="#0bc6e3" stop-opacity="0.54"/>
      <stop offset="0.93" stop-color="#0bc6e3" stop-opacity="0.37"/>
      <stop offset="0.97" stop-color="#0bc6e3" stop-opacity="0.18"/>
      <stop offset="1" stop-color="#0bc6e3" stop-opacity="0"/>
    </linearGradient>
  </defs>
  <g style="isolation: isolate">
    <g id="IconBackground">
      <g id="IconBackgroundMesh">
        <path d="M27.69-1680a25,25,0,0,0-25,25v79a25,25,0,0,0,25,25H129.31v-129Z" transform="translate(-2.69 1680)"/>
      </g>
    </g>
    <g id="TextBackground">
      <g id="BudgetTextColorGradient">
        <path d="M498.19-1680H128.81v129H498.19a25,25,0,0,0,25-25v-79A25,25,0,0,0,498.19-1680Z" transform="translate(-2.69 1680)" fill="url(#Безымянный_градиент_49)"/>
      </g>
      <g id="BudgetTextVignette">
        <path d="M498.19-1680H128.81v129H498.19a25,25,0,0,0,25-25v-79A25,25,0,0,0,498.19-1680Z" transform="translate(-2.69 1680)" fill="url(#Безымянный_градиент_151)" style="mix-blend-mode: multiply"/>
      </g>
    </g>
    <g id="Text">
      <g id="Visual_Studio" data-name="Visual Studio" opacity="0.8">
        <path d="M182.33-1604.14l5.73-23.36h6.08l5.79,23.36H195l-1.12-5.28h-5.57l-1.12,5.28Zm6.82-9.12h3.94l-1.12-5.63c-.15-.81-.31-1.62-.47-2.42l-.37-1.87-.33,1.86c-.14.79-.29,1.59-.47,2.4Z" transform="translate(-2.69 1680)" fill="#fff"/>
        <path d="M208.51-1603.82a5.35,5.35,0,0,1-4.26-1.86,7.45,7.45,0,0,1-1.6-5v-4.48a7.49,7.49,0,0,1,1.6-5,5.32,5.32,0,0,1,4.26-1.87,4.79,4.79,0,0,1,3.09,1,4.25,4.25,0,0,1,1.49,2.72h.09l-.16-4.32v-4.8h4.8v23.36h-4.64v-3.36h-.09a4.25,4.25,0,0,1-1.49,2.72A4.79,4.79,0,0,1,208.51-1603.82Zm1.73-4.16a2.75,2.75,0,0,0,2-.75,2.91,2.91,0,0,0,.73-2.13V-1615a2.91,2.91,0,0,0-.73-2.13,2.75,2.75,0,0,0-2-.75,2.74,2.74,0,0,0-2.07.75,3,3,0,0,0-.72,2.13v4.16a3,3,0,0,0,.72,2.13A2.74,2.74,0,0,0,210.24-1608Z" transform="translate(-2.69 1680)" fill="#fff"/>
        <path d="M229.53-1603.82a8.8,8.8,0,0,1-4.06-.88,6.49,6.49,0,0,1-2.67-2.46,7.1,7.1,0,0,1-1-3.7V-1615a7.1,7.1,0,0,1,1-3.7,6.49,6.49,0,0,1,2.67-2.46,8.8,8.8,0,0,1,4.06-.88,8.77,8.77,0,0,1,4.08.88,6.52,6.52,0,0,1,2.66,2.46,7.09,7.09,0,0,1,.94,3.7v4.16a7.09,7.09,0,0,1-.94,3.7,6.52,6.52,0,0,1-2.66,2.46A8.77,8.77,0,0,1,229.53-1603.82Zm0-4.16a2.88,2.88,0,0,0,2.15-.75,2.91,2.91,0,0,0,.73-2.13V-1615a2.89,2.89,0,0,0-.73-2.14,2.92,2.92,0,0,0-2.15-.74,2.91,2.91,0,0,0-2.12.74,2.82,2.82,0,0,0-.76,2.14v4.16a2.85,2.85,0,0,0,.76,2.13A2.87,2.87,0,0,0,229.53-1608Z" transform="translate(-2.69 1680)" fill="#fff"/>
        <path d="M250.56-1603.82a4.79,4.79,0,0,1-3.09-1,4.2,4.2,0,0,1-1.49-2.72h-.09v3.36h-4.64v-23.36h4.8v4.8l-.16,4.32H246a4.2,4.2,0,0,1,1.49-2.72,4.79,4.79,0,0,1,3.09-1,5.29,5.29,0,0,1,4.25,1.87,7.44,7.44,0,0,1,1.6,5v4.48a7.4,7.4,0,0,1-1.6,5A5.31,5.31,0,0,1,250.56-1603.82Zm-1.73-4.16a2.71,2.71,0,0,0,2.06-.75,3,3,0,0,0,.72-2.13V-1615a3,3,0,0,0-.72-2.13,2.71,2.71,0,0,0-2.06-.75,2.73,2.73,0,0,0-2.05.75,2.91,2.91,0,0,0-.73,2.13v4.16a2.91,2.91,0,0,0,.73,2.13A2.73,2.73,0,0,0,248.83-1608Z" transform="translate(-2.69 1680)" fill="#fff"/>
        <path d="M268-1603.82a9,9,0,0,1-4.08-.88,6.46,6.46,0,0,1-2.68-2.46,7.1,7.1,0,0,1-.95-3.7V-1615a7.1,7.1,0,0,1,.95-3.7,6.46,6.46,0,0,1,2.68-2.46,9,9,0,0,1,4.08-.88,8.7,8.7,0,0,1,4.05.88,6.52,6.52,0,0,1,2.66,2.46,7.09,7.09,0,0,1,.94,3.7v3.2H264.83v1q0,3.36,3.2,3.36c1.51,0,2.42-.48,2.72-1.44h4.7a6.2,6.2,0,0,1-2.61,3.71A8.33,8.33,0,0,1,268-1603.82Zm-3.13-11.2v.48l6.21-.06v-.48q0-3.36-3.08-3.36a3,3,0,0,0-2.35.89A3.74,3.74,0,0,0,264.83-1615Z" transform="translate(-2.69 1680)" fill="#fff"/>
        <path d="M298.84-1604.14v-23.36h8a9.47,9.47,0,0,1,4.31.93A6.86,6.86,0,0,1,314-1624a7.31,7.31,0,0,1,1,3.9,7.33,7.33,0,0,1-1,3.89,7,7,0,0,1-2.85,2.61,9.35,9.35,0,0,1-4.29.93h-3.17v8.51Zm4.8-12.83h3.17a3.45,3.45,0,0,0,2.45-.85,2.94,2.94,0,0,0,.91-2.26,2.92,2.92,0,0,0-.91-2.25,3.45,3.45,0,0,0-2.45-.85h-3.17Z" transform="translate(-2.69 1680)" fill="#fff"/>
        <path d="M318-1604.14v-23.36h4.8v5.76l-.16,3.36h.1a4.32,4.32,0,0,1,1.53-2.7,4.84,4.84,0,0,1,3.11-1,5.17,5.17,0,0,1,4.11,1.79,7,7,0,0,1,1.55,4.77v11.36h-4.8V-1615a3,3,0,0,0-.72-2.13,2.67,2.67,0,0,0-2-.75,2.59,2.59,0,0,0-2,.75,3,3,0,0,0-.71,2.13v10.88Z" transform="translate(-2.69 1680)" fill="#fff"/>
        <path d="M344.73-1603.82a8.77,8.77,0,0,1-4.06-.88,6.46,6.46,0,0,1-2.68-2.46,7.09,7.09,0,0,1-.94-3.7V-1615a7.09,7.09,0,0,1,.94-3.7,6.46,6.46,0,0,1,2.68-2.46,8.77,8.77,0,0,1,4.06-.88,8.77,8.77,0,0,1,4.08.88,6.52,6.52,0,0,1,2.66,2.46,7.19,7.19,0,0,1,.94,3.7v4.16a7.19,7.19,0,0,1-.94,3.7,6.52,6.52,0,0,1-2.66,2.46A8.77,8.77,0,0,1,344.73-1603.82Zm0-4.16a2.86,2.86,0,0,0,2.14-.75,2.92,2.92,0,0,0,.74-2.13V-1615a2.9,2.9,0,0,0-.74-2.14,2.9,2.9,0,0,0-2.14-.74,2.92,2.92,0,0,0-2.13.74,2.86,2.86,0,0,0-.75,2.14v4.16a2.88,2.88,0,0,0,.75,2.13A2.88,2.88,0,0,0,344.73-1608Z" transform="translate(-2.69 1680)" fill="#fff"/>
        <path d="M365.85-1604.14a5.67,5.67,0,0,1-4.22-1.54,5.67,5.67,0,0,1-1.54-4.22v-7.52h-4.64v-4.32h4.64v-5h4.8v5h6.56v4.32h-6.56v7.52a1.27,1.27,0,0,0,1.44,1.44h4.8v4.32Z" transform="translate(-2.69 1680)" fill="#fff"/>
        <path d="M383.13-1603.82a8.85,8.85,0,0,1-4.07-.88,6.49,6.49,0,0,1-2.67-2.46,7.09,7.09,0,0,1-.94-3.7V-1615a7.09,7.09,0,0,1,.94-3.7,6.49,6.49,0,0,1,2.67-2.46,8.85,8.85,0,0,1,4.07-.88,8.77,8.77,0,0,1,4.08.88,6.5,6.5,0,0,1,2.65,2.46,7.1,7.1,0,0,1,.95,3.7v4.16a7.1,7.1,0,0,1-.95,3.7,6.5,6.5,0,0,1-2.65,2.46A8.77,8.77,0,0,1,383.13-1603.82Zm0-4.16a2.86,2.86,0,0,0,2.14-.75,2.92,2.92,0,0,0,.74-2.13V-1615a2.9,2.9,0,0,0-.74-2.14,2.9,2.9,0,0,0-2.14-.74,2.92,2.92,0,0,0-2.13.74,2.86,2.86,0,0,0-.75,2.14v4.16a2.88,2.88,0,0,0,.75,2.13A2.88,2.88,0,0,0,383.13-1608Z" transform="translate(-2.69 1680)" fill="#fff"/>
        <path d="M401.59-1603.82a9.74,9.74,0,0,1-3.81-.69,6.07,6.07,0,0,1-2.54-1.9,4.6,4.6,0,0,1-.91-2.85h4.8a1.42,1.42,0,0,0,.69,1.23,3.08,3.08,0,0,0,1.77.47H403c1.79,0,2.69-.61,2.69-1.83,0-1-.83-1.61-2.5-1.82l-2.05-.26a9.92,9.92,0,0,1-4.8-1.6,4.31,4.31,0,0,1-1.5-3.61,4.8,4.8,0,0,1,1.76-4,8.08,8.08,0,0,1,5.15-1.41H403a8.52,8.52,0,0,1,5.15,1.41,4.45,4.45,0,0,1,1.92,3.77h-4.8a1.22,1.22,0,0,0-.62-1,3.1,3.1,0,0,0-1.65-.4h-1.22a3,3,0,0,0-1.73.4,1.41,1.41,0,0,0-.54,1.2,1.3,1.3,0,0,0,.5,1.12,3.39,3.39,0,0,0,1.58.55l2.21.29a10.13,10.13,0,0,1,4.94,1.66,4.39,4.39,0,0,1,1.62,3.71,4.92,4.92,0,0,1-1.86,4.13,8.81,8.81,0,0,1-5.47,1.44Z" transform="translate(-2.69 1680)" fill="#fff"/>
        <path d="M414-1604.14v-23.36h4.8v5.76l-.16,3.36h.09a4.37,4.37,0,0,1,1.54-2.7,4.82,4.82,0,0,1,3.11-1,5.2,5.2,0,0,1,4.11,1.79,7.07,7.07,0,0,1,1.55,4.77v11.36h-4.8V-1615a3,3,0,0,0-.72-2.13,2.69,2.69,0,0,0-2-.75,2.59,2.59,0,0,0-2,.75,3,3,0,0,0-.7,2.13v10.88Z" transform="translate(-2.69 1680)" fill="#fff"/>
        <path d="M440.73-1603.82a8.82,8.82,0,0,1-4.07-.88,6.49,6.49,0,0,1-2.67-2.46,7.09,7.09,0,0,1-.94-3.7V-1615a7.09,7.09,0,0,1,.94-3.7,6.49,6.49,0,0,1,2.67-2.46,8.82,8.82,0,0,1,4.07-.88,8.83,8.83,0,0,1,4.08.88,6.5,6.5,0,0,1,2.65,2.46,7.1,7.1,0,0,1,1,3.7v4.16a7.1,7.1,0,0,1-1,3.7,6.5,6.5,0,0,1-2.65,2.46A8.83,8.83,0,0,1,440.73-1603.82Zm0-4.16a2.87,2.87,0,0,0,2.14-.75,2.92,2.92,0,0,0,.74-2.13V-1615a2.9,2.9,0,0,0-.74-2.14,2.91,2.91,0,0,0-2.14-.74,2.92,2.92,0,0,0-2.13.74,2.86,2.86,0,0,0-.75,2.14v4.16a2.88,2.88,0,0,0,.75,2.13A2.88,2.88,0,0,0,440.73-1608Z" transform="translate(-2.69 1680)" fill="#fff"/>
        <path d="M452.44-1598.38v-23.36h4.64v3.36h.09a4.25,4.25,0,0,1,1.49-2.72,4.79,4.79,0,0,1,3.09-1,5.29,5.29,0,0,1,4.25,1.87,7.44,7.44,0,0,1,1.61,5v4.48a7.44,7.44,0,0,1-1.61,5,5.29,5.29,0,0,1-4.25,1.87,4.79,4.79,0,0,1-3.09-1,4.25,4.25,0,0,1-1.49-2.72h-.09l.16,4.32v4.8ZM460-1608a2.7,2.7,0,0,0,2.06-.75,2.91,2.91,0,0,0,.73-2.13V-1615a2.89,2.89,0,0,0-.73-2.14,2.73,2.73,0,0,0-2.06-.74,2.75,2.75,0,0,0-2,.75,2.91,2.91,0,0,0-.73,2.13v4.16a2.91,2.91,0,0,0,.73,2.13A2.75,2.75,0,0,0,460-1608Z" transform="translate(-2.69 1680)" fill="#fff"/>
      </g>
    </g>
    <g id="Icon">
      <g id="IconTextBackgroundBorder">
        <path id="IconTextBackgroundBorderMesh" d="M129.31-1678.61v0Z" transform="translate(-2.69 1680)" fill="none" stroke-miterlimit="10" stroke="url(#Безымянный_градиент_42)"/>
        <g id="Photoshop">
          <path d="M29.92-1591.35v-49.1c16.26,0,24.32-.16,27.7.74a12.85,12.85,0,0,1,7.06,4.81c3.68,4.78,3.52,12.83,1.21,17.16a14,14,0,0,1-9.31,7.17c-4.36.86-10.81.7-16.75.7v18.52Zm9.91-40.79v13.93c10.05,0,14,.33,16.36-3.18a7,7,0,0,0-.45-8.24C53.23-1632.41,50.48-1632.14,39.83-1632.14Z" transform="translate(-2.69 1680)" fill="#76c8da"/>
          <path d="M68.86-1601.49l9.44-1.44c.88,4,3.58,5.59,7.6,5.59,3.07,0,6.74-.77,6.74-3.85,0-2.07-1.74-2.53-3.82-3q-11.38-2.51-14.44-4.59a9.16,9.16,0,0,1-4.22-8,9.88,9.88,0,0,1,3.65-7.77q3.66-3.15,11.32-3.15c7.78,0,13.57,1.87,15.75,9.41L92-1616.67a5.51,5.51,0,0,0-2.16-3.18c-2.42-1.68-8-1.28-9.86-.06a2.12,2.12,0,0,0-.14,3.61c2.73,2,14.37,2.74,19.29,6.83a8.7,8.7,0,0,1,3,7,10.74,10.74,0,0,1-4.08,8.41q-4.09,3.52-12.1,3.52-7.26,0-11.5-3A13.57,13.57,0,0,1,68.86-1601.49Z" transform="translate(-2.69 1680)" fill="#76c8da"/>
        </g>
      </g>
    </g>
  </g>
</svg>
