<svg id="Слой_1" data-name="Слой 1" xmlns="http://www.w3.org/2000/svg" xmlns:xlink="http://www.w3.org/1999/xlink" width="126.62" height="129" viewBox="0 0 126.62 129">
  <defs>
    <linearGradient id="Безымянный_градиент_32" data-name="Безымянный градиент 32" x1="321.69" y1="-223.98" x2="-4.53" y2="140.24" gradientUnits="userSpaceOnUse">
      <stop offset="0" stop-color="#fff"/>
      <stop offset="0.45" stop-color="#8c8c8c"/>
      <stop offset="0.47" stop-color="#828282"/>
      <stop offset="0.55" stop-color="#5a5a5a"/>
      <stop offset="0.63" stop-color="#3a3a3a"/>
      <stop offset="0.72" stop-color="#202020"/>
      <stop offset="0.8" stop-color="#0e0e0e"/>
      <stop offset="0.9" stop-color="#030303"/>
      <stop offset="1"/>
    </linearGradient>
    <linearGradient id="Безымянный_градиент_51" data-name="Безымянный градиент 51" x1="150.37" y1="-215.71" x2="189.48" y2="-260.16" gradientUnits="userSpaceOnUse">
      <stop offset="0" stop-color="#50382b"/>
      <stop offset="0.12" stop-color="#4f382b"/>
      <stop offset="0.19" stop-color="#5e4736"/>
      <stop offset="0.32" stop-color="#876c53"/>
      <stop offset="0.36" stop-color="#94795d"/>
      <stop offset="0.71" stop-color="#cecdb7"/>
      <stop offset="1" stop-color="#409433"/>
    </linearGradient>
    <linearGradient id="Безымянный_градиент_14" data-name="Безымянный градиент 14" x1="285.34" y1="-362.79" x2="168.14" y2="-242.19" gradientUnits="userSpaceOnUse">
      <stop offset="0" stop-opacity="0"/>
      <stop offset="1"/>
    </linearGradient>
    <linearGradient id="Безымянный_градиент_59" data-name="Безымянный градиент 59" x1="288.58" y1="-366.54" x2="163.84" y2="-237.35" gradientUnits="userSpaceOnUse">
      <stop offset="0" stop-color="#999"/>
      <stop offset="0.09" stop-color="#959595"/>
      <stop offset="0.17" stop-color="#8a8a8a"/>
      <stop offset="0.24" stop-color="#777"/>
      <stop offset="0.32" stop-color="#5c5c5c"/>
      <stop offset="0.4" stop-color="#3a3a3a"/>
      <stop offset="0.47" stop-color="#101010"/>
      <stop offset="0.5"/>
    </linearGradient>
    <linearGradient id="Безымянный_градиент_48" data-name="Безымянный градиент 48" x1="288.75" y1="-365.91" x2="165.05" y2="-239.39" gradientUnits="userSpaceOnUse">
      <stop offset="0" stop-color="#999"/>
      <stop offset="0.12" stop-color="#717171"/>
      <stop offset="0.28" stop-color="#414141"/>
      <stop offset="0.42" stop-color="#1d1d1d"/>
      <stop offset="0.53" stop-color="#080808"/>
      <stop offset="0.6"/>
    </linearGradient>
  </defs>
  <g id="Badget">
    <rect id="IconBackgroundMesh" width="126.62" height="129" rx="25.43" fill="url(#Безымянный_градиент_32)"/>
    <g id="IconBackgroundMesh-2" data-name="IconBackgroundMesh" opacity="0.4">
      <path d="M188.91-366a24.64,24.64,0,0,0-24.62,24.65v77.91a24.64,24.64,0,0,0,24.62,24.65h75.47A24.64,24.64,0,0,0,289-263.44v-77.91A24.64,24.64,0,0,0,264.38-366Z" transform="translate(-163.34 366.9)" fill="url(#Безымянный_градиент_51)"/>
    </g>
    <path id="IconBackgroundMesh-3" data-name="IconBackgroundMesh" d="M188.91-366a24.64,24.64,0,0,0-24.62,24.65v77.91a24.64,24.64,0,0,0,24.62,24.65h75.47A24.64,24.64,0,0,0,289-263.44v-77.91A24.64,24.64,0,0,0,264.38-366Z" transform="translate(-163.34 366.9)" fill="url(#Безымянный_градиент_14)"/>
    <path id="IconBackgroundMesh-4" data-name="IconBackgroundMesh" d="M264.53-365.9A24.46,24.46,0,0,1,289-341.47v78.15a24.45,24.45,0,0,1-24.43,24.42H188.76a24.44,24.44,0,0,1-24.42-24.42v-78.15a24.45,24.45,0,0,1,24.42-24.43h75.77m0-1H188.76a25.43,25.43,0,0,0-25.42,25.43v78.15a25.42,25.42,0,0,0,25.42,25.42h75.77A25.43,25.43,0,0,0,290-263.32v-78.15a25.44,25.44,0,0,0-25.43-25.43Z" transform="translate(-163.34 366.9)" fill="url(#Безымянный_градиент_59)"/>
    <path id="IconBackgroundMesh-5" data-name="IconBackgroundMesh" d="M264.38-365A23.66,23.66,0,0,1,288-341.35v77.91a23.66,23.66,0,0,1-23.62,23.65H188.91a23.66,23.66,0,0,1-23.62-23.65v-77.91A23.66,23.66,0,0,1,188.91-365h75.47m0-1H188.91a24.64,24.64,0,0,0-24.62,24.65v77.91a24.64,24.64,0,0,0,24.62,24.65h75.47A24.64,24.64,0,0,0,289-263.44v-77.91A24.64,24.64,0,0,0,264.38-366Z" transform="translate(-163.34 366.9)" fill="url(#Безымянный_градиент_48)"/>
  </g>
  <g id="MongoDb">
    <path d="M241.86-278.76c.11-.22.21-.4.3-.6a.24.24,0,0,1,.27-.14l2.22.05h1.89c.71,0,1.42-.05,2.13,0a6.53,6.53,0,0,1,2.72.63,5.07,5.07,0,0,1,2.32,2.28,5.47,5.47,0,0,1,.61,2.05,7.18,7.18,0,0,1-.29,3.09,5.51,5.51,0,0,1-2.29,2.91,7.33,7.33,0,0,1-2.75,1.06,16.41,16.41,0,0,1-3.13.14c-1.15,0-2.3,0-3.45,0-.2,0-.23,0-.17-.23l0-.18c.11-.35.17-.37.52-.43a1.85,1.85,0,0,0,.72-.27.76.76,0,0,0,.21-.44,1.68,1.68,0,0,0,0-.45c0-2.24,0-4.47,0-6.71,0-.57,0-1.14,0-1.7a.77.77,0,0,0-.71-.76l-1.1-.19-.12,0Zm10.51,5.42c-.05-.45-.08-.9-.16-1.34a4.58,4.58,0,0,0-1.46-2.69,5.72,5.72,0,0,0-4.54-1.2c-.38,0-.46.16-.47.54,0,.55,0,1.1,0,1.65v5.23c0,.49,0,1,0,1.48a1.15,1.15,0,0,0,.7,1.14,4.64,4.64,0,0,0,2.42.21,3.77,3.77,0,0,0,2.84-2.1,6.55,6.55,0,0,0,.67-2.92Zm3.18,5.93a1.22,1.22,0,0,1,.23-.7c0-.06.17-.05.26-.07l.75-.15a.54.54,0,0,0,.44-.49,4.57,4.57,0,0,0,0-.52c0-1.37,0-2.74,0-4.11v-4.39a.69.69,0,0,0-.67-.73l-1-.15c-.11,0-.15-.07-.11-.17a3.08,3.08,0,0,1,.24-.52c0-.06.17-.08.26-.08.45,0,.91,0,1.36,0l3.95,0a4.59,4.59,0,0,1,2.18.5,2.37,2.37,0,0,1,1.29,1.86,2.39,2.39,0,0,1-.79,2.23,6.62,6.62,0,0,1-.92.6l-.1.07c.29.1.56.19.83.3a3,3,0,0,1,1.72,1.61,3,3,0,0,1,.1,1.93,3.4,3.4,0,0,1-1.78,2.21,5.74,5.74,0,0,1-2.64.81c-.87,0-1.75,0-2.62,0h-.5l-2.52-.07-.08,0Zm3.62-4h0c0,.43,0,.86,0,1.29a4.51,4.51,0,0,0,.06.83,1,1,0,0,0,.72.88,4.24,4.24,0,0,0,1.84.08,2.16,2.16,0,0,0,1.72-1.25,3,3,0,0,0,.21-1.71,2.23,2.23,0,0,0-1.22-1.71,3.32,3.32,0,0,0-1.44-.41l-1.72,0c-.16,0-.18.07-.18.21v1.83Zm1.22-2.93c.32,0,.67,0,1-.05a1.56,1.56,0,0,0,1.4-1.05,2.67,2.67,0,0,0,.12-1,2,2,0,0,0-1.35-1.92,5.37,5.37,0,0,0-2-.21c-.28,0-.4.12-.4.4l0,3.59c0,.14.06.2.19.21Z" transform="translate(-163.34 366.9)" fill="#94795d" fill-rule="evenodd"/>
    <path d="M191.69-268.1l-.05.62h-1.26l-2.32,0H188c-.11,0-.31,0-.31-.05a3.58,3.58,0,0,1,0-.57.27.27,0,0,1,.12-.06l.61-.13a.59.59,0,0,0,.52-.65c0-.43,0-.87,0-1.31,0-1.07,0-2.14,0-3.21a.54.54,0,0,0-.32-.55l-.84-.35c-.14-.06-.31-.09-.3-.26s.19-.23.35-.27l2-.46a6.36,6.36,0,0,0,.66-.22,2.58,2.58,0,0,1,0,.39l0,.62a.29.29,0,0,0,.09.2s.13,0,.19-.06a6.14,6.14,0,0,1,1.82-1,2.14,2.14,0,0,1,2.57.88c.22.32.22.32.53.1a6.68,6.68,0,0,1,1.69-.95,2.33,2.33,0,0,1,3.12,1.5,4.61,4.61,0,0,1,.24,1.52v3.47a.48.48,0,0,0,.36.54c.31.1.62.16,1,.25l-.08.6h-1.11c-.88,0-1.76,0-2.64,0-.15,0-.19,0-.2-.17,0-.46,0-.46.4-.57l.15,0c.42-.12.56-.25.56-.67,0-1.23,0-2.46,0-3.69a1.71,1.71,0,0,0-2.31-1.62,3.2,3.2,0,0,0-1.1.53.3.3,0,0,0-.13.32c0,.54.06,1.08.06,1.63,0,.94,0,1.89,0,2.84,0,.39.13.53.51.62l.57.13.1,0a4.87,4.87,0,0,1,0,.54c0,.11-.1.12-.19.12l-1.65,0c-.67,0-1.33,0-2,0h-.16a5.23,5.23,0,0,1,0-.56s.08-.1.13-.12l.66-.14a.48.48,0,0,0,.43-.49,25.91,25.91,0,0,0,0-3.94,2.15,2.15,0,0,0-.21-.75,1.58,1.58,0,0,0-2-.83,3.49,3.49,0,0,0-1.14.53.53.53,0,0,0-.25.46c0,1.31,0,2.62,0,3.93v.51a.57.57,0,0,0,.51.61l.71.13Z" transform="translate(-163.34 366.9)" fill="#50382b" fill-rule="evenodd"/>
    <path d="M231.22-275.4a1.22,1.22,0,0,1-.26,1.27c-.36.34-.81.23-1.26.15,0,.24.09.43.11.64a3,3,0,0,1-1.87,3.24,4.66,4.66,0,0,1-1.65.37.62.62,0,0,0-.56.47.52.52,0,0,0,.42.55,9.5,9.5,0,0,0,1.07.15c.77.09,1.54.13,2.3.26a2,2,0,0,1,1.59,2.36,3.57,3.57,0,0,1-1.6,2.35,5.09,5.09,0,0,1-4.56.75,2.45,2.45,0,0,1-1.81-1.88,1.25,1.25,0,0,1,.38-1.29c.44-.39.92-.75,1.39-1.13l.15-.15-.17-.12a1.62,1.62,0,0,1-1-1.07.31.31,0,0,1,.15-.39l.78-.48.36-.24c.15-.12.14-.21-.05-.28a2.37,2.37,0,0,1-1.1-.74,2.77,2.77,0,0,1-.6-2,2.73,2.73,0,0,1,1.72-2.41,4.25,4.25,0,0,1,3.67-.09,3,3,0,0,0,1.43.21,1.42,1.42,0,0,0,1-.47Zm-4.47,8.29a1.89,1.89,0,0,0-1.73.65,1.42,1.42,0,0,0,0,2.07,2.53,2.53,0,0,0,1.65.75,3.49,3.49,0,0,0,2.13-.32,1.7,1.7,0,0,0,.9-1.86,1.4,1.4,0,0,0-1.12-1.05A7.55,7.55,0,0,0,226.75-267.11ZM225-272.93c0,.25,0,.51.1.76a2,2,0,0,0,1.07,1.49,1.39,1.39,0,0,0,2-.86,3.15,3.15,0,0,0-.07-2.14,1.65,1.65,0,0,0-.6-.78,1.54,1.54,0,0,0-2.3.49A2.5,2.5,0,0,0,225-272.93Z" transform="translate(-163.34 366.9)" fill="#4f382b" fill-rule="evenodd"/>
    <path d="M215.76-275.56a2,2,0,0,1,.07.37c0,.24,0,.48,0,.72v.22l.21-.16a5.45,5.45,0,0,1,1.87-1.07,2.35,2.35,0,0,1,2.95,1.6,5.23,5.23,0,0,1,.23,1.52l0,3.42c0,.41,0,.48.44.6a4,4,0,0,0,.67.15c.13,0,.18.07.17.19v.12c0,.47,0,.49-.5.49h-3.29c-.33,0-.33,0-.36-.31v-.18c0-.28,0-.28.3-.32a4.88,4.88,0,0,0,.55-.12.41.41,0,0,0,.3-.36c0-.1,0-.19,0-.28,0-1.25,0-2.5-.07-3.75a1.6,1.6,0,0,0-1.83-1.54,2.67,2.67,0,0,0-1.36.49.83.83,0,0,0-.32.76l0,3.5c0,.25,0,.51,0,.76a.43.43,0,0,0,.4.45c.26.06.52.09.8.14l0,.21c0,.5,0,.54-.53.54-1.14,0-2.27,0-3.41,0-.18,0-.25-.05-.25-.22v-.08c0-.45,0-.47.41-.54l.2,0c.46-.1.58-.23.59-.7,0-1.48,0-3,0-4.45a.46.46,0,0,0-.27-.47l-.85-.35c-.15-.07-.33-.11-.33-.32s.15-.29.38-.33c.44-.09.89-.17,1.33-.28S215.28-275.42,215.76-275.56Z" transform="translate(-163.34 366.9)" fill="#4f372b" fill-rule="evenodd"/>
    <path d="M240.29-271.68a4.18,4.18,0,0,1-1.36,3.35,4.42,4.42,0,0,1-4.77.63,3.23,3.23,0,0,1-1.49-1.54,4.9,4.9,0,0,1-.37-3.26,3.57,3.57,0,0,1,1.94-2.44,4.63,4.63,0,0,1,3.28-.46,3.59,3.59,0,0,1,2.71,3C240.26-272.09,240.28-271.82,240.29-271.68Zm-1.69.75h0c0-.13,0-.26,0-.39a4.28,4.28,0,0,0-.71-2.27,2.32,2.32,0,0,0-1.85-1.08,1.77,1.77,0,0,0-1.9,1.34,5,5,0,0,0,.44,3.94,2.41,2.41,0,0,0,1.34,1.15,1.81,1.81,0,0,0,2.52-1.32A12.4,12.4,0,0,0,238.6-270.93Z" transform="translate(-163.34 366.9)" fill="#4f382b" fill-rule="evenodd"/>
    <path d="M211.49-271.57a4.48,4.48,0,0,1-.88,2.71,4,4,0,0,1-2.59,1.51,3.85,3.85,0,0,1-3.34-.8,3.34,3.34,0,0,1-1-1.45,5,5,0,0,1-.22-2.85,3.53,3.53,0,0,1,1.72-2.36,4.52,4.52,0,0,1,3.4-.61,3.51,3.51,0,0,1,2.79,2.9C211.44-272.21,211.45-271.89,211.49-271.57Zm-1.71.65h0v-.19a4.5,4.5,0,0,0-.75-2.54,2.37,2.37,0,0,0-1.64-1,1.82,1.82,0,0,0-2.11,1.42,5.12,5.12,0,0,0,.28,3.49,2.65,2.65,0,0,0,1.54,1.52,1.82,1.82,0,0,0,2.51-1.33A12.22,12.22,0,0,0,209.78-270.92Z" transform="translate(-163.34 366.9)" fill="#4f372b" fill-rule="evenodd"/>
    <path d="M238.65-322.31a28.24,28.24,0,0,1,1.57,7.14,31.31,31.31,0,0,1-.51,9.06l-.08.24a4.12,4.12,0,0,0-.61,0l-5,.8c-1.72.28-3.44.55-5.15.84-.61.11-1.36,0-1.61.82l-.12,0,.09-5-.09-12.11.8-.14,3.93-.64,4.69-.73Z" transform="translate(-163.34 366.9)" fill="#439934" fill-rule="evenodd"/>
    <path d="M225.51-288.72c-.84-.73-1.72-1.42-2.53-2.18a31.35,31.35,0,0,1-9.1-14.77,24,24,0,0,1-.82-4.89A29,29,0,0,1,213-314a40.93,40.93,0,0,1,1.56-9.06l0-.07a1.45,1.45,0,0,1,.26.35q1.32,3.88,2.61,7.77l8.18,24.42a2.45,2.45,0,0,0,.3.44Z" transform="translate(-163.34 366.9)" fill="#45a538" fill-rule="evenodd"/>
    <path d="M238.65-322.31l-2.07.31-4.69.73-3.93.64-.8.14V-321c0-.42-.08-.85-.08-1.28l-.09-8.21c0-1.71-.05-3.43-.09-5.14,0-1.06,0-2.13-.09-3.19,0-.57-.12-1.14-.16-1.71,0-.33,0-.66,0-1,.41.79.81,1.59,1.23,2.37a14.93,14.93,0,0,0,2.67,3.16A35.16,35.16,0,0,1,238.65-322.31Z" transform="translate(-163.34 366.9)" fill="#46a037" fill-rule="evenodd"/>
    <path d="M227.16-303.36l.12,0c.25-.84,1-.71,1.61-.82,1.71-.29,3.43-.56,5.15-.84l5-.8a4.14,4.14,0,0,1,.61,0c-.31,1.11-.56,2.24-.95,3.32a35.78,35.78,0,0,1-1.57,3.59,24.9,24.9,0,0,1-3.17,4.88c-1,1.15-2,2.22-3.1,3.27-.59.58-1.29,1.05-1.94,1.58l-.17-.12-.6-.52-.63-1.37a20.94,20.94,0,0,1-.7-4.92l0-.28.08-1.21c0-.41.07-.83.09-1.24.06-1.49.11-3,.17-4.47Z" transform="translate(-163.34 366.9)" fill="#409433" fill-rule="evenodd"/>
    <path d="M227.16-303.36c-.06,1.49-.11,3-.17,4.47,0,.42-.06.83-.09,1.24l-.38.15c-.85-2.5-1.7-5-2.53-7.45q-2.06-6.15-4.1-12.31-1.66-5-3.35-9.93a1.64,1.64,0,0,0-.31-.41l2.45-4.5a4.91,4.91,0,0,1,.25.44q1.69,5,3.38,10.05,2.17,6.54,4.36,13.09a4,4,0,0,0,.24.53l.34-.39-.09,5Z" transform="translate(-163.34 366.9)" fill="#4faa41" fill-rule="evenodd"/>
    <path d="M216.23-327.6a1.64,1.64,0,0,1,.31.41q1.68,5,3.35,9.93,2.06,6.15,4.1,12.31c.83,2.48,1.68,4.95,2.53,7.45l.38-.15-.08,1.22-.08.27c-.14,1.33-.25,2.66-.41,4-.08.67-.25,1.32-.39,2a3,3,0,0,1-.29-.44l-8.18-24.42c-.86-2.59-1.74-5.18-2.61-7.77a1.45,1.45,0,0,0-.26-.35l1.63-4.42Z" transform="translate(-163.34 366.9)" fill="#4aa73c" fill-rule="evenodd"/>
    <path d="M227.25-308.38l-.34.39a4,4,0,0,1-.24-.53q-2.19-6.54-4.36-13.09-1.68-5-3.38-10.05a4.91,4.91,0,0,0-.25-.44l3-4a1.43,1.43,0,0,1,.28.38q1.26,3.69,2.5,7.38c.78,2.3,1.54,4.61,2.32,6.9,0,.16.23.26.36.39v.53Z" transform="translate(-163.34 366.9)" fill="#57ae47" fill-rule="evenodd"/>
    <path d="M227.16-321c-.13-.13-.31-.23-.36-.39-.78-2.29-1.54-4.6-2.32-6.9q-1.24-3.69-2.5-7.38a1.43,1.43,0,0,0-.28-.38c1-1,1.94-2,3-2.88a4.13,4.13,0,0,0,1.68-3l.07-.26.26.65c0,.33,0,.66,0,1,0,.57.13,1.14.16,1.71.05,1.06.07,2.13.09,3.19,0,1.71.07,3.43.09,5.14l.09,8.21C227.08-321.87,227.13-321.44,227.16-321Z" transform="translate(-163.34 366.9)" fill="#60b24f" fill-rule="evenodd"/>
    <path d="M226-290.2c.13-.66.3-1.31.38-2,.16-1.32.28-2.65.41-4h.06a20.94,20.94,0,0,0,.7,4.92,1.67,1.67,0,0,0-.26.35c-.36,1-.7,2.06-1.07,3.08a1.43,1.43,0,0,1-.29.37l-.37-1.28Z" transform="translate(-163.34 366.9)" fill="#a9aa88" fill-rule="evenodd"/>
    <path d="M225.88-287.44a1.43,1.43,0,0,0,.29-.37c.37-1,.71-2.06,1.07-3.08a1.67,1.67,0,0,1,.26-.35l.63,1.38a2.11,2.11,0,0,0-.37.53l-1.2,3.52c-.05.14-.21.24-.33.36Z" transform="translate(-163.34 366.9)" fill="#b6b598" fill-rule="evenodd"/>
    <path d="M226.23-285.45c.12-.12.28-.22.33-.36l1.2-3.53a2.54,2.54,0,0,1,.37-.53l.6.52a1.07,1.07,0,0,0-.35,1.05l-.19.6c-.08.11-.2.2-.24.32-.42,1.2-.82,2.4-1.25,3.6a1.87,1.87,0,0,1-.3.41Z" transform="translate(-163.34 366.9)" fill="#c2c1a7" fill-rule="evenodd"/>
    <path d="M226.4-283.37a1.87,1.87,0,0,0,.3-.41c.43-1.2.83-2.4,1.25-3.61,0-.11.16-.2.24-.31l-.25,2.77c-.07.08-.17.15-.2.24l-.85,2.43a3,3,0,0,1-.26.46c-.08-.1-.22-.2-.23-.31C226.38-282.53,226.4-282.95,226.4-283.37Z" transform="translate(-163.34 366.9)" fill="#cecdb7" fill-rule="evenodd"/>
    <path d="M226.63-281.8a3,3,0,0,0,.26-.46l.85-2.43c0-.09.13-.16.2-.24v1.82l-.6,1.56Z" transform="translate(-163.34 366.9)" fill="#dbdac7" fill-rule="evenodd"/>
    <path d="M227.34-281.55l.6-1.56.13,1.85Z" transform="translate(-163.34 366.9)" fill="#ebe9dc" fill-rule="evenodd"/>
    <path d="M228.38-288.3a1.07,1.07,0,0,1,.35-1.05l.17.12Z" transform="translate(-163.34 366.9)" fill="#cecdb7" fill-rule="evenodd"/>
    <path d="M226.8-296.16h-.06l.08-.27Z" transform="translate(-163.34 366.9)" fill="#4faa41" fill-rule="evenodd"/>
  </g>
</svg>
