<svg id="Слой_1" data-name="Слой 1" xmlns="http://www.w3.org/2000/svg" xmlns:xlink="http://www.w3.org/1999/xlink" width="126.62" height="129" viewBox="0 0 126.62 129">
  <defs>
    <linearGradient id="Безымянный_градиент_32" data-name="Безымянный градиент 32" x1="321.69" y1="-223.98" x2="-4.53" y2="140.24" gradientUnits="userSpaceOnUse">
      <stop offset="0" stop-color="#fff"/>
      <stop offset="0.45" stop-color="#8c8c8c"/>
      <stop offset="0.47" stop-color="#828282"/>
      <stop offset="0.55" stop-color="#5a5a5a"/>
      <stop offset="0.63" stop-color="#3a3a3a"/>
      <stop offset="0.72" stop-color="#202020"/>
      <stop offset="0.8" stop-color="#0e0e0e"/>
      <stop offset="0.9" stop-color="#030303"/>
      <stop offset="1"/>
    </linearGradient>
    <linearGradient id="Безымянный_градиент_41" data-name="Безымянный градиент 41" x1="166.42" y1="-239.44" x2="284.2" y2="-362.55" gradientUnits="userSpaceOnUse">
      <stop offset="0" stop-color="#70142b"/>
      <stop offset="0.12" stop-color="#70142b"/>
      <stop offset="0.19" stop-color="#7f142b"/>
      <stop offset="0.31" stop-color="#a8132c"/>
      <stop offset="0.36" stop-color="#bb132d"/>
      <stop offset="0.71" stop-color="#bb132d"/>
      <stop offset="1" stop-color="#bb132d"/>
    </linearGradient>
    <linearGradient id="Безымянный_градиент_14" data-name="Безымянный градиент 14" x1="285.34" y1="-362.79" x2="168.14" y2="-242.19" gradientUnits="userSpaceOnUse">
      <stop offset="0" stop-opacity="0"/>
      <stop offset="1"/>
    </linearGradient>
    <linearGradient id="Безымянный_градиент_59" data-name="Безымянный градиент 59" x1="288.58" y1="-366.54" x2="163.84" y2="-237.35" gradientUnits="userSpaceOnUse">
      <stop offset="0" stop-color="#999"/>
      <stop offset="0.09" stop-color="#959595"/>
      <stop offset="0.17" stop-color="#8a8a8a"/>
      <stop offset="0.24" stop-color="#777"/>
      <stop offset="0.32" stop-color="#5c5c5c"/>
      <stop offset="0.4" stop-color="#3a3a3a"/>
      <stop offset="0.47" stop-color="#101010"/>
      <stop offset="0.5"/>
    </linearGradient>
    <linearGradient id="Безымянный_градиент_48" data-name="Безымянный градиент 48" x1="288.75" y1="-365.91" x2="165.05" y2="-239.39" gradientUnits="userSpaceOnUse">
      <stop offset="0" stop-color="#999"/>
      <stop offset="0.12" stop-color="#717171"/>
      <stop offset="0.28" stop-color="#414141"/>
      <stop offset="0.42" stop-color="#1d1d1d"/>
      <stop offset="0.53" stop-color="#080808"/>
      <stop offset="0.6"/>
    </linearGradient>
    <linearGradient id="Безымянный_градиент_26" data-name="Безымянный градиент 26" x1="254.31" y1="-290.86" x2="210.49" y2="-276.59" gradientUnits="userSpaceOnUse">
      <stop offset="0.4" stop-color="#dfe0e4"/>
      <stop offset="1" stop-color="#8d9ba8"/>
    </linearGradient>
    <radialGradient id="Безымянный_градиент_21" data-name="Безымянный градиент 21" cx="225.85" cy="-315.46" r="25.53" gradientUnits="userSpaceOnUse">
      <stop offset="0" stop-color="#f26d64"/>
      <stop offset="1" stop-color="#70142b"/>
    </radialGradient>
    <linearGradient id="Безымянный_градиент_31" data-name="Безымянный градиент 31" x1="237.61" y1="-342.13" x2="193.79" y2="-327.86" gradientUnits="userSpaceOnUse">
      <stop offset="0" stop-color="#dfe0e4"/>
      <stop offset="1" stop-color="#8d9ba8"/>
    </linearGradient>
  </defs>
  <g id="Badget">
    <rect id="IconBackgroundMesh" width="126.62" height="129" rx="25.43" fill="url(#Безымянный_градиент_32)"/>
    <g id="IconBackgroundMesh-2" data-name="IconBackgroundMesh" opacity="0.4">
      <path d="M188.91-366a24.64,24.64,0,0,0-24.62,24.65v77.91a24.64,24.64,0,0,0,24.62,24.65h75.47A24.64,24.64,0,0,0,289-263.44v-77.91A24.64,24.64,0,0,0,264.38-366Z" transform="translate(-163.34 366.9)" fill="url(#Безымянный_градиент_41)"/>
    </g>
    <path id="IconBackgroundMesh-3" data-name="IconBackgroundMesh" d="M188.91-366a24.64,24.64,0,0,0-24.62,24.65v77.91a24.64,24.64,0,0,0,24.62,24.65h75.47A24.64,24.64,0,0,0,289-263.44v-77.91A24.64,24.64,0,0,0,264.38-366Z" transform="translate(-163.34 366.9)" fill="url(#Безымянный_градиент_14)"/>
    <path id="IconBackgroundMesh-4" data-name="IconBackgroundMesh" d="M264.53-365.9A24.46,24.46,0,0,1,289-341.47v78.15a24.45,24.45,0,0,1-24.43,24.42H188.76a24.44,24.44,0,0,1-24.42-24.42v-78.15a24.45,24.45,0,0,1,24.42-24.43h75.77m0-1H188.76a25.43,25.43,0,0,0-25.42,25.43v78.15a25.42,25.42,0,0,0,25.42,25.42h75.77A25.43,25.43,0,0,0,290-263.32v-78.15a25.44,25.44,0,0,0-25.43-25.43Z" transform="translate(-163.34 366.9)" fill="url(#Безымянный_градиент_59)"/>
    <path id="IconBackgroundMesh-5" data-name="IconBackgroundMesh" d="M264.38-365A23.66,23.66,0,0,1,288-341.35v77.91a23.66,23.66,0,0,1-23.62,23.65H188.91a23.66,23.66,0,0,1-23.62-23.65v-77.91A23.66,23.66,0,0,1,188.91-365h75.47m0-1H188.91a24.64,24.64,0,0,0-24.62,24.65v77.91a24.64,24.64,0,0,0,24.62,24.65h75.47A24.64,24.64,0,0,0,289-263.44v-77.91A24.64,24.64,0,0,0,264.38-366Z" transform="translate(-163.34 366.9)" fill="url(#Безымянный_градиент_48)"/>
  </g>
  <g id="MSSQL">
    <path id="Down" d="M234.72-304.56l-.13,0-1.8.54.25,7.55a37.86,37.86,0,0,1-8.1-5l-.74.26a16.39,16.39,0,0,0,9.12,5.59c-9.81,6.44-11.21,5.88-11.21,5.88A27.46,27.46,0,0,0,223.67-301l-1.25.45c0,7.73-1.71,10.83-1.71,10.83-4.22-3.82-5.41-6.63-5.75-7.91l-.86.36c1.09,5,5.77,8.67,5.77,8.67l-12.32,4.48a57.82,57.82,0,0,0,6.25-13l-1.8.79h0c-1.41,2.82-6.69,12.23-6.69,12.23-2-2.83-1.72-6.68-1.52-8.25l-1.63.88c-.92,3.8,1.18,8.49,1.18,8.49-5.88,1.4-12.88,3.64-12.88,3.64a18.76,18.76,0,0,1,5.6-8.4c-15.66,10.63-7.08,24.82,29.69,26.33C225.75-261.42,237.46-277.89,234.72-304.56Zm-14.85,17.65A57.7,57.7,0,0,1,214-276a31.45,31.45,0,0,1-7.56-6.16A72.15,72.15,0,0,0,219.87-286.91Zm-29.13,8.12,12.88-2.8-7.84,10.93A10.2,10.2,0,0,1,190.74-278.79Zm14-2.24s3.64,4.48,7,5.6l-15.13,5.61Zm-7,11.77,15.41-4.48-5.88,8.4A35.08,35.08,0,0,1,197.74-269.26Zm17.37-5.05c3.64,3.09,12.89,3.93,12.89,3.93-4.21,2-19.33,5.6-19.33,5.6C210.91-267,215.11-274.31,215.11-274.31Zm9.8,11.77c-1.4.28-14.56-1.68-14.56-1.68,15.4-3.36,18.49-5.88,18.49-5.88C228.56-269,224.91-262.54,224.91-262.54Zm3.93-8.68c-10.09-1.4-12.89-3.93-12.89-3.93,3.64,0,16.25-7,16.25-7C230.52-274,228.84-271.22,228.84-271.22Zm-12.05-5.61c2.8-4.2,4.76-10.92,4.76-10.92,6.45,4.48,11.21,4.48,11.21,4.48C228.28-281.87,216.79-276.83,216.79-276.83Zm15.41-7c-6.73-1.68-9.53-4.76-9.53-4.76,8.41-3.36,10.65-6.16,10.65-6.16C233.32-287.19,232.2-283.83,232.2-283.83Z" transform="translate(-163.34 366.9)" opacity="0.6" fill="url(#Безымянный_градиент_26)"/>
    <g id="Middle" opacity="0.9">
      <path d="M231.33-329.27c-27.15-3.86-28-5-29.39-6.38,0,0,.1,1.22,2.24,3.36a51.8,51.8,0,0,1,6.22,7c3.31,4.65,3.93,10.77,2.47,16.21-2.42,9.19-9.4,15.85-16.81,21.31.4-.29.88-.57,1.42-.93l.05,0,0,0h0c.9-.58,1.82-1.14,2.75-1.69l.07,0c20.75-11.47,39.77-16.45,64.3-20.81C264.69-311.28,258.47-325.41,231.33-329.27Zm18.79,7.62A71.23,71.23,0,0,0,233.88-316c3.64-6.45,3.08-10.37,3.08-10.37C246.2-323.89,250.12-321.65,250.12-321.65Zm-17.64,5a24.8,24.8,0,0,0-6.73-3.08,52.2,52.2,0,0,1,10.65-6.73S235.84-320.52,232.48-316.6Zm-18.77-5,7.84,2.81-7,6.16A22.1,22.1,0,0,0,213.71-321.65Zm9,3.09s.56,3.08-4.48,10.64L214.55-311Zm1.4.56,6.17,3.08-9,4.76A28.62,28.62,0,0,0,224.07-318Zm11.21-9c-1.68.28-11.21,6.17-11.21,6.17.28-7.57-1.12-8.41-1.12-8.41ZM223-320.8s-8.12-2-8.12-2.53l7-5.88S223.23-328.37,223-320.8ZM205-332.85l5.32,1.4,2,6.72Zm8.68,9-2.52-7.56,9.8,2ZM214-309.6l3.08,2.52-5.88,4.2A24.55,24.55,0,0,0,214-309.6ZM205.88-295c.26-.31,4.48-5.34,5-6.43,0,0,2-1.12,5.6-3.64Zm14.27-5.87s-11.45,4.47-12.6,5.32c.29-.23,9.54-7.6,10.92-10.08C218.47-305.68,220.43-302.88,220.15-300.92Zm-.56-6.44,10.09-5.32c-1.4,3.36-8.69,10.92-8.69,10.92C221.27-304,219.59-307.36,219.59-307.36Zm3.37,5a50.45,50.45,0,0,0,9.52-11.2c6.44,3.64,7.28,6.16,7.28,6.16A71.44,71.44,0,0,0,223-302.32Zm11.48-12.6a90.85,90.85,0,0,1,16.8-5.88c-2,3.64-10.08,12.88-10.08,12.88A16,16,0,0,0,234.44-314.92Zm17.37-5.88c8.4,4.2,11.48,9.24,11.48,9.24-8.12,0-20.45,3.36-20.45,3.36C251-315.76,251.81-320.8,251.81-320.8Z" transform="translate(-163.34 366.9)" fill="url(#Безымянный_градиент_21)"/>
    </g>
    <path id="Up" d="M219.87-344.9c-2.63,1.74-17,5.92-17.93,9.25a5.76,5.76,0,0,0,1.52,1.11c.78-1.63,3.53-3.63,3.53-3.63a42.93,42.93,0,0,0,4.68,5.78l2.36.44-6.76-6.5a77.21,77.21,0,0,0,14.56,2.8l-6.75,3.89,1.69.29a47.58,47.58,0,0,0,5.34-3.34,18.86,18.86,0,0,0,2.14,4.5l2.24.34C223.75-335.21,220.77-340.28,219.87-344.9ZM208.39-339a86.62,86.62,0,0,1,11.2-5c-.28,2.52,2,7.28,2,7.28Z" transform="translate(-163.34 366.9)" opacity="0.6" fill="url(#Безымянный_градиент_31)"/>
    <g opacity="0.6">
      <path d="M230.64-264.66h-1.15v-.41h2.8v.41h-1.16v3.36h-.49Z" transform="translate(-163.34 366.9)" fill="#fff"/>
      <path d="M235.89-262.95c0-.53-.06-1.16-.06-1.63h0c-.13.44-.29.91-.48,1.43l-.66,1.83h-.37l-.62-1.8c-.17-.53-.33-1-.43-1.46h0c0,.47,0,1.1-.08,1.67l-.1,1.61h-.46l.26-3.77h.62l.65,1.83c.15.46.28.87.38,1.27h0c.1-.38.23-.8.4-1.27l.67-1.83h.63l.23,3.77H236Z" transform="translate(-163.34 366.9)" fill="#fff"/>
    </g>
  </g>
</svg>
